G75*
%MOIN*%
%OFA0B0*%
%FSLAX24Y24*%
%IPPOS*%
%LPD*%
%AMOC8*
5,1,8,0,0,1.08239X$1,22.5*
%
%ADD10C,0.1330*%
%ADD11OC8,0.0660*%
%ADD12C,0.0660*%
%ADD13OC8,0.0694*%
%ADD14C,0.1346*%
%ADD15C,0.0576*%
%ADD16OC8,0.0760*%
%ADD17C,0.0980*%
%ADD18R,0.0655X0.0655*%
%ADD19C,0.1480*%
%ADD20R,0.0790X0.0790*%
%ADD21C,0.0740*%
%ADD22C,0.0660*%
D10*
X001217Y001200D03*
X020717Y001200D03*
X020717Y013200D03*
X001217Y013200D03*
D11*
X003717Y011700D03*
X004717Y011700D03*
X008717Y011700D03*
X008717Y010700D03*
X010717Y009700D03*
X011717Y009700D03*
X012717Y009700D03*
X013717Y009700D03*
X015217Y009200D03*
X014217Y008200D03*
X013217Y008200D03*
X015217Y006200D03*
X018217Y006200D03*
X018217Y004200D03*
X015217Y004200D03*
X018217Y001700D03*
X019217Y001700D03*
X014905Y001575D03*
X011905Y001575D03*
X010780Y001575D03*
X009780Y001575D03*
X008355Y007947D03*
X010717Y012700D03*
X011717Y012700D03*
X012717Y012700D03*
X013717Y012700D03*
X018217Y009200D03*
D12*
X008355Y008747D03*
D13*
X004548Y008039D03*
X003564Y008039D03*
X003564Y007212D03*
X003564Y006188D03*
X003564Y005361D03*
X004548Y005361D03*
D14*
X002387Y004060D03*
X002057Y006700D03*
X002387Y009340D03*
D15*
X007546Y006011D02*
X007546Y005514D01*
X009514Y005514D02*
X009514Y006011D01*
X009514Y004073D02*
X009514Y003577D01*
X007546Y003577D02*
X007546Y004073D01*
D16*
X011405Y004200D03*
X011405Y005200D03*
X011405Y006200D03*
X011405Y007200D03*
X014405Y007200D03*
X014405Y006200D03*
X014405Y005200D03*
X014405Y004200D03*
D17*
X006331Y004746D03*
X005335Y003774D03*
X001405Y004743D03*
X001405Y005723D03*
X001405Y007703D03*
X001405Y008683D03*
X005335Y009683D03*
X006327Y008683D03*
X005339Y006719D03*
D18*
X021217Y006700D03*
X022217Y007200D03*
X021217Y007700D03*
X022217Y008200D03*
X021217Y008700D03*
X022217Y006200D03*
X021217Y005700D03*
X022217Y005200D03*
D19*
X023467Y003950D03*
X023467Y001950D03*
X023467Y010450D03*
X023467Y012450D03*
D20*
X024467Y013580D03*
X024467Y000820D03*
D21*
X019547Y003200D02*
X018887Y003200D01*
X018887Y004200D02*
X019547Y004200D01*
X019547Y005200D02*
X018887Y005200D01*
X018887Y006200D02*
X019547Y006200D01*
X019547Y007200D02*
X018887Y007200D01*
X018887Y008200D02*
X019547Y008200D01*
X019547Y009200D02*
X018887Y009200D01*
X018887Y010200D02*
X019547Y010200D01*
D22*
X019217Y011410D02*
X019217Y011990D01*
X018217Y011990D02*
X018217Y011410D01*
X016217Y011410D02*
X016217Y011990D01*
X015217Y011990D02*
X015217Y011410D01*
M02*
