G75*
%MOIN*%
%OFA0B0*%
%FSLAX24Y24*%
%IPPOS*%
%LPD*%
%AMOC8*
5,1,8,0,0,1.08239X$1,22.5*
%
%ADD10C,0.0040*%
%ADD11C,0.0160*%
%ADD12C,0.0060*%
%ADD13C,0.0020*%
%ADD14C,0.0080*%
%ADD15C,0.0100*%
%ADD16R,0.0150X0.0200*%
%ADD17C,0.0030*%
%ADD18C,0.0050*%
%ADD19R,0.0200X0.0150*%
%ADD20R,0.0140X0.0240*%
D10*
X026500Y012740D02*
X026500Y013047D01*
X026576Y013047D01*
X026883Y012740D01*
X026960Y012740D01*
X027700Y012470D02*
X027700Y012316D01*
X027776Y012240D01*
X027853Y012240D01*
X027930Y012316D01*
X027930Y012470D01*
X028007Y012547D01*
X028083Y012547D01*
X028160Y012470D01*
X028160Y012316D01*
X028083Y012240D01*
X028007Y012240D01*
X027930Y012316D01*
X027930Y012470D02*
X027853Y012547D01*
X027776Y012547D01*
X027700Y012470D01*
X030700Y013475D02*
X030776Y013398D01*
X030853Y013398D01*
X030930Y013475D01*
X030930Y013628D01*
X031007Y013705D01*
X031083Y013705D01*
X031160Y013628D01*
X031160Y013475D01*
X031083Y013398D01*
X030700Y013475D02*
X030700Y013628D01*
X030776Y013705D01*
X030700Y013858D02*
X030700Y014089D01*
X030776Y014165D01*
X031083Y014165D01*
X031160Y014089D01*
X031160Y013858D01*
X030700Y013858D01*
X030700Y014319D02*
X031160Y014319D01*
X031160Y014626D01*
X030930Y014779D02*
X030930Y015086D01*
X031007Y015240D02*
X030930Y015316D01*
X030853Y015240D01*
X030776Y015240D01*
X030700Y015316D01*
X030700Y015470D01*
X030776Y015547D01*
X030853Y015547D01*
X030930Y015470D01*
X030930Y015316D01*
X031007Y015240D02*
X031083Y015240D01*
X031160Y015316D01*
X031160Y015470D01*
X031083Y015547D01*
X031007Y015547D01*
X030930Y015470D01*
X028160Y016740D02*
X027853Y017047D01*
X027776Y017047D01*
X027700Y016970D01*
X027700Y016816D01*
X027776Y016740D01*
X028160Y016740D02*
X028160Y017047D01*
X026960Y017240D02*
X026960Y017547D01*
X026960Y017393D02*
X026500Y017393D01*
X026653Y017240D01*
X009339Y021450D02*
X009339Y021680D01*
X009262Y021757D01*
X009185Y021680D01*
X009185Y021450D01*
X009032Y021450D02*
X009032Y021757D01*
X009108Y021757D01*
X009185Y021680D01*
X008878Y021680D02*
X008801Y021757D01*
X008648Y021757D01*
X008571Y021680D01*
X008571Y021527D01*
X008648Y021450D01*
X008801Y021450D01*
X008878Y021527D01*
X008878Y021680D01*
X008418Y021757D02*
X008188Y021757D01*
X008111Y021680D01*
X008111Y021527D01*
X008188Y021450D01*
X008418Y021450D01*
X007957Y021450D02*
X007957Y021527D01*
X007881Y021527D01*
X007881Y021450D01*
X007957Y021450D01*
X007727Y021757D02*
X007650Y021757D01*
X007497Y021603D01*
X007497Y021450D02*
X007497Y021757D01*
X007344Y021680D02*
X007344Y021603D01*
X007037Y021603D01*
X007037Y021527D02*
X007037Y021680D01*
X007113Y021757D01*
X007267Y021757D01*
X007344Y021680D01*
X007267Y021450D02*
X007113Y021450D01*
X007037Y021527D01*
X006883Y021450D02*
X006653Y021603D01*
X006883Y021757D01*
X006653Y021910D02*
X006653Y021450D01*
X006499Y021450D02*
X006269Y021450D01*
X006193Y021527D01*
X006269Y021603D01*
X006499Y021603D01*
X006499Y021680D02*
X006499Y021450D01*
X006499Y021680D02*
X006423Y021757D01*
X006269Y021757D01*
X006039Y021680D02*
X005962Y021757D01*
X005732Y021757D01*
X005732Y021910D02*
X005732Y021450D01*
X005962Y021450D01*
X006039Y021527D01*
X006039Y021680D01*
X005579Y021680D02*
X005579Y021450D01*
X005425Y021450D02*
X005425Y021680D01*
X005502Y021757D01*
X005579Y021680D01*
X005425Y021680D02*
X005348Y021757D01*
X005272Y021757D01*
X005272Y021450D01*
X005118Y021527D02*
X005042Y021603D01*
X004888Y021603D01*
X004811Y021680D01*
X004888Y021757D01*
X005118Y021757D01*
X005118Y021527D02*
X005042Y021450D01*
X004811Y021450D01*
X004658Y021450D02*
X004658Y021527D01*
X004581Y021527D01*
X004581Y021450D01*
X004658Y021450D01*
X004428Y021527D02*
X004428Y021757D01*
X004428Y021527D02*
X004351Y021450D01*
X004274Y021527D01*
X004198Y021450D01*
X004121Y021527D01*
X004121Y021757D01*
X003967Y021757D02*
X003967Y021527D01*
X003891Y021450D01*
X003814Y021527D01*
X003737Y021450D01*
X003660Y021527D01*
X003660Y021757D01*
X003507Y021757D02*
X003507Y021527D01*
X003430Y021450D01*
X003353Y021527D01*
X003277Y021450D01*
X003200Y021527D01*
X003200Y021757D01*
D11*
X012680Y003180D02*
X013680Y003180D01*
X013680Y002180D02*
X012680Y002180D01*
D12*
X012180Y001830D02*
X012330Y001680D01*
X013030Y001680D01*
X013180Y001830D01*
X013330Y001680D01*
X014030Y001680D01*
X014180Y001830D01*
X014180Y003530D01*
X014030Y003680D01*
X013330Y003680D01*
X013180Y003530D01*
X013030Y003680D01*
X012330Y003680D01*
X012180Y003530D01*
X012180Y001830D01*
X010180Y001980D02*
X010180Y001380D01*
X010178Y001363D01*
X010174Y001346D01*
X010167Y001330D01*
X010157Y001316D01*
X010144Y001303D01*
X010130Y001293D01*
X010114Y001286D01*
X010097Y001282D01*
X010080Y001280D01*
X009930Y001280D01*
X009880Y001330D01*
X008480Y001330D01*
X008430Y001280D01*
X008280Y001280D01*
X008263Y001282D01*
X008246Y001286D01*
X008230Y001293D01*
X008216Y001303D01*
X008203Y001316D01*
X008193Y001330D01*
X008186Y001346D01*
X008182Y001363D01*
X008180Y001380D01*
X008180Y001980D01*
X008182Y001997D01*
X008186Y002014D01*
X008193Y002030D01*
X008203Y002044D01*
X008216Y002057D01*
X008230Y002067D01*
X008246Y002074D01*
X008263Y002078D01*
X008280Y002080D01*
X008430Y002080D01*
X008480Y002030D01*
X009880Y002030D01*
X009930Y002080D01*
X010080Y002080D01*
X010097Y002078D01*
X010114Y002074D01*
X010130Y002067D01*
X010144Y002057D01*
X010157Y002044D01*
X010167Y002030D01*
X010174Y002014D01*
X010178Y001997D01*
X010180Y001980D01*
X010080Y002280D02*
X009930Y002280D01*
X009880Y002330D01*
X008480Y002330D01*
X008430Y002280D01*
X008280Y002280D01*
X008263Y002282D01*
X008246Y002286D01*
X008230Y002293D01*
X008216Y002303D01*
X008203Y002316D01*
X008193Y002330D01*
X008186Y002346D01*
X008182Y002363D01*
X008180Y002380D01*
X008180Y002980D01*
X008182Y002997D01*
X008186Y003014D01*
X008193Y003030D01*
X008203Y003044D01*
X008216Y003057D01*
X008230Y003067D01*
X008246Y003074D01*
X008263Y003078D01*
X008280Y003080D01*
X008430Y003080D01*
X008480Y003030D01*
X009880Y003030D01*
X009930Y003080D01*
X010080Y003080D01*
X010097Y003078D01*
X010114Y003074D01*
X010130Y003067D01*
X010144Y003057D01*
X010157Y003044D01*
X010167Y003030D01*
X010174Y003014D01*
X010178Y002997D01*
X010180Y002980D01*
X010180Y002380D01*
X010178Y002363D01*
X010174Y002346D01*
X010167Y002330D01*
X010157Y002316D01*
X010144Y002303D01*
X010130Y002293D01*
X010114Y002286D01*
X010097Y002282D01*
X010080Y002280D01*
X010080Y003280D02*
X009930Y003280D01*
X009880Y003330D01*
X008480Y003330D01*
X008430Y003280D01*
X008280Y003280D01*
X008263Y003282D01*
X008246Y003286D01*
X008230Y003293D01*
X008216Y003303D01*
X008203Y003316D01*
X008193Y003330D01*
X008186Y003346D01*
X008182Y003363D01*
X008180Y003380D01*
X008180Y003980D01*
X008182Y003997D01*
X008186Y004014D01*
X008193Y004030D01*
X008203Y004044D01*
X008216Y004057D01*
X008230Y004067D01*
X008246Y004074D01*
X008263Y004078D01*
X008280Y004080D01*
X008430Y004080D01*
X008480Y004030D01*
X009880Y004030D01*
X009930Y004080D01*
X010080Y004080D01*
X010097Y004078D01*
X010114Y004074D01*
X010130Y004067D01*
X010144Y004057D01*
X010157Y004044D01*
X010167Y004030D01*
X010174Y004014D01*
X010178Y003997D01*
X010180Y003980D01*
X010180Y003380D01*
X010178Y003363D01*
X010174Y003346D01*
X010167Y003330D01*
X010157Y003316D01*
X010144Y003303D01*
X010130Y003293D01*
X010114Y003286D01*
X010097Y003282D01*
X010080Y003280D01*
X006180Y003380D02*
X006180Y003980D01*
X006178Y003997D01*
X006174Y004014D01*
X006167Y004030D01*
X006157Y004044D01*
X006144Y004057D01*
X006130Y004067D01*
X006114Y004074D01*
X006097Y004078D01*
X006080Y004080D01*
X005930Y004080D01*
X005880Y004030D01*
X004480Y004030D01*
X004430Y004080D01*
X004280Y004080D01*
X004263Y004078D01*
X004246Y004074D01*
X004230Y004067D01*
X004216Y004057D01*
X004203Y004044D01*
X004193Y004030D01*
X004186Y004014D01*
X004182Y003997D01*
X004180Y003980D01*
X004180Y003380D01*
X004182Y003363D01*
X004186Y003346D01*
X004193Y003330D01*
X004203Y003316D01*
X004216Y003303D01*
X004230Y003293D01*
X004246Y003286D01*
X004263Y003282D01*
X004280Y003280D01*
X004430Y003280D01*
X004480Y003330D01*
X005880Y003330D01*
X005930Y003280D01*
X006080Y003280D01*
X006097Y003282D01*
X006114Y003286D01*
X006130Y003293D01*
X006144Y003303D01*
X006157Y003316D01*
X006167Y003330D01*
X006174Y003346D01*
X006178Y003363D01*
X006180Y003380D01*
X006080Y003080D02*
X005930Y003080D01*
X005880Y003030D01*
X004480Y003030D01*
X004430Y003080D01*
X004280Y003080D01*
X004263Y003078D01*
X004246Y003074D01*
X004230Y003067D01*
X004216Y003057D01*
X004203Y003044D01*
X004193Y003030D01*
X004186Y003014D01*
X004182Y002997D01*
X004180Y002980D01*
X004180Y002380D01*
X004182Y002363D01*
X004186Y002346D01*
X004193Y002330D01*
X004203Y002316D01*
X004216Y002303D01*
X004230Y002293D01*
X004246Y002286D01*
X004263Y002282D01*
X004280Y002280D01*
X004430Y002280D01*
X004480Y002330D01*
X005880Y002330D01*
X005930Y002280D01*
X006080Y002280D01*
X006097Y002282D01*
X006114Y002286D01*
X006130Y002293D01*
X006144Y002303D01*
X006157Y002316D01*
X006167Y002330D01*
X006174Y002346D01*
X006178Y002363D01*
X006180Y002380D01*
X006180Y002980D01*
X006178Y002997D01*
X006174Y003014D01*
X006167Y003030D01*
X006157Y003044D01*
X006144Y003057D01*
X006130Y003067D01*
X006114Y003074D01*
X006097Y003078D01*
X006080Y003080D01*
X006080Y002080D02*
X005930Y002080D01*
X005880Y002030D01*
X004480Y002030D01*
X004430Y002080D01*
X004280Y002080D01*
X004263Y002078D01*
X004246Y002074D01*
X004230Y002067D01*
X004216Y002057D01*
X004203Y002044D01*
X004193Y002030D01*
X004186Y002014D01*
X004182Y001997D01*
X004180Y001980D01*
X004180Y001380D01*
X004182Y001363D01*
X004186Y001346D01*
X004193Y001330D01*
X004203Y001316D01*
X004216Y001303D01*
X004230Y001293D01*
X004246Y001286D01*
X004263Y001282D01*
X004280Y001280D01*
X004430Y001280D01*
X004480Y001330D01*
X005880Y001330D01*
X005930Y001280D01*
X006080Y001280D01*
X006097Y001282D01*
X006114Y001286D01*
X006130Y001293D01*
X006144Y001303D01*
X006157Y001316D01*
X006167Y001330D01*
X006174Y001346D01*
X006178Y001363D01*
X006180Y001380D01*
X006180Y001980D01*
X006178Y001997D01*
X006174Y002014D01*
X006167Y002030D01*
X006157Y002044D01*
X006144Y002057D01*
X006130Y002067D01*
X006114Y002074D01*
X006097Y002078D01*
X006080Y002080D01*
X002180Y005930D02*
X001930Y005680D01*
X001430Y005680D01*
X001180Y005930D01*
X001180Y006430D01*
X001430Y006680D01*
X001180Y006930D01*
X001180Y007430D01*
X001430Y007680D01*
X001180Y007930D01*
X001180Y008430D01*
X001430Y008680D01*
X001180Y008930D01*
X001180Y009430D01*
X001430Y009680D01*
X001180Y009930D01*
X001180Y010430D01*
X001430Y010680D01*
X001180Y010930D01*
X001180Y011430D01*
X001430Y011680D01*
X001180Y011930D01*
X001180Y012430D01*
X001430Y012680D01*
X001180Y012930D01*
X001180Y013430D01*
X001430Y013680D01*
X001180Y013930D01*
X001180Y014430D01*
X001430Y014680D01*
X001180Y014930D01*
X001180Y015430D01*
X001430Y015680D01*
X001180Y015930D01*
X001180Y016430D01*
X001430Y016680D01*
X001180Y016930D01*
X001180Y017430D01*
X001430Y017680D01*
X001930Y017680D01*
X002180Y017430D01*
X002180Y016930D01*
X001930Y016680D01*
X002180Y016430D01*
X002180Y015930D01*
X001930Y015680D01*
X002180Y015430D01*
X002180Y014930D01*
X001930Y014680D01*
X002180Y014430D01*
X002180Y013930D01*
X001930Y013680D01*
X002180Y013430D01*
X002180Y012930D01*
X001930Y012680D01*
X002180Y012430D01*
X002180Y011930D01*
X001930Y011680D01*
X002180Y011430D01*
X002180Y010930D01*
X001930Y010680D01*
X002180Y010430D01*
X002180Y009930D01*
X001930Y009680D01*
X002180Y009430D01*
X002180Y008930D01*
X001930Y008680D01*
X002180Y008430D01*
X002180Y007930D01*
X001930Y007680D01*
X002180Y007430D01*
X002180Y006930D01*
X001930Y006680D01*
X002180Y006430D01*
X002180Y005930D01*
X017180Y013830D02*
X017180Y015530D01*
X017182Y015547D01*
X017186Y015564D01*
X017193Y015580D01*
X017203Y015594D01*
X017216Y015607D01*
X017230Y015617D01*
X017246Y015624D01*
X017263Y015628D01*
X017280Y015630D01*
X018080Y015630D01*
X018097Y015628D01*
X018114Y015624D01*
X018130Y015617D01*
X018144Y015607D01*
X018157Y015594D01*
X018167Y015580D01*
X018174Y015564D01*
X018178Y015547D01*
X018180Y015530D01*
X018180Y013830D01*
X018178Y013813D01*
X018174Y013796D01*
X018167Y013780D01*
X018157Y013766D01*
X018144Y013753D01*
X018130Y013743D01*
X018114Y013736D01*
X018097Y013732D01*
X018080Y013730D01*
X017280Y013730D01*
X017263Y013732D01*
X017246Y013736D01*
X017230Y013743D01*
X017216Y013753D01*
X017203Y013766D01*
X017193Y013780D01*
X017186Y013796D01*
X017182Y013813D01*
X017180Y013830D01*
X017680Y014530D02*
X017680Y014580D01*
X017680Y014780D02*
X017680Y014830D01*
X022180Y015030D02*
X022180Y013330D01*
X022182Y013313D01*
X022186Y013296D01*
X022193Y013280D01*
X022203Y013266D01*
X022216Y013253D01*
X022230Y013243D01*
X022246Y013236D01*
X022263Y013232D01*
X022280Y013230D01*
X023080Y013230D01*
X023080Y013130D02*
X022280Y013130D01*
X022263Y013128D01*
X022246Y013124D01*
X022230Y013117D01*
X022216Y013107D01*
X022203Y013094D01*
X022193Y013080D01*
X022186Y013064D01*
X022182Y013047D01*
X022180Y013030D01*
X022180Y011330D01*
X022182Y011313D01*
X022186Y011296D01*
X022193Y011280D01*
X022203Y011266D01*
X022216Y011253D01*
X022230Y011243D01*
X022246Y011236D01*
X022263Y011232D01*
X022280Y011230D01*
X023080Y011230D01*
X023097Y011232D01*
X023114Y011236D01*
X023130Y011243D01*
X023144Y011253D01*
X023157Y011266D01*
X023167Y011280D01*
X023174Y011296D01*
X023178Y011313D01*
X023180Y011330D01*
X023180Y013030D01*
X023178Y013047D01*
X023174Y013064D01*
X023167Y013080D01*
X023157Y013094D01*
X023144Y013107D01*
X023130Y013117D01*
X023114Y013124D01*
X023097Y013128D01*
X023080Y013130D01*
X023080Y013230D02*
X023097Y013232D01*
X023114Y013236D01*
X023130Y013243D01*
X023144Y013253D01*
X023157Y013266D01*
X023167Y013280D01*
X023174Y013296D01*
X023178Y013313D01*
X023180Y013330D01*
X023180Y015030D01*
X023178Y015047D01*
X023174Y015064D01*
X023167Y015080D01*
X023157Y015094D01*
X023144Y015107D01*
X023130Y015117D01*
X023114Y015124D01*
X023097Y015128D01*
X023080Y015130D01*
X022280Y015130D01*
X022263Y015128D01*
X022246Y015124D01*
X022230Y015117D01*
X022216Y015107D01*
X022203Y015094D01*
X022193Y015080D01*
X022186Y015064D01*
X022182Y015047D01*
X022180Y015030D01*
X022680Y014330D02*
X022680Y014280D01*
X022680Y014080D02*
X022680Y014030D01*
X024680Y013930D02*
X024680Y013430D01*
X024930Y013180D01*
X024680Y012930D01*
X024680Y012430D01*
X024930Y012180D01*
X024680Y011930D01*
X024680Y011430D01*
X024930Y011180D01*
X025430Y011180D01*
X025680Y011430D01*
X025680Y011930D01*
X025430Y012180D01*
X025680Y012430D01*
X025680Y012930D01*
X025430Y013180D01*
X025680Y013430D01*
X025680Y013930D01*
X025430Y014180D01*
X025680Y014430D01*
X025680Y014930D01*
X025430Y015180D01*
X025680Y015430D01*
X025680Y015930D01*
X025430Y016180D01*
X025680Y016430D01*
X025680Y016930D01*
X025430Y017180D01*
X025680Y017430D01*
X025680Y017930D01*
X025430Y018180D01*
X025680Y018430D01*
X025680Y018930D01*
X025430Y019180D01*
X024930Y019180D01*
X024680Y018930D01*
X024680Y018430D01*
X024930Y018180D01*
X024680Y017930D01*
X024680Y017430D01*
X024930Y017180D01*
X024680Y016930D01*
X024680Y016430D01*
X024930Y016180D01*
X024680Y015930D01*
X024680Y015430D01*
X024930Y015180D01*
X024680Y014930D01*
X024680Y014430D01*
X024930Y014180D01*
X024680Y013930D01*
X022680Y012330D02*
X022680Y012280D01*
X022680Y012080D02*
X022680Y012030D01*
X023632Y010618D02*
X023632Y010418D01*
X023532Y010518D02*
X023732Y010518D01*
X023032Y009818D02*
X023034Y009881D01*
X023040Y009943D01*
X023050Y010005D01*
X023063Y010067D01*
X023081Y010127D01*
X023102Y010186D01*
X023127Y010244D01*
X023156Y010300D01*
X023188Y010354D01*
X023223Y010406D01*
X023261Y010455D01*
X023303Y010503D01*
X023347Y010547D01*
X023395Y010589D01*
X023444Y010627D01*
X023496Y010662D01*
X023550Y010694D01*
X023606Y010723D01*
X023664Y010748D01*
X023723Y010769D01*
X023783Y010787D01*
X023845Y010800D01*
X023907Y010810D01*
X023969Y010816D01*
X024032Y010818D01*
X024095Y010816D01*
X024157Y010810D01*
X024219Y010800D01*
X024281Y010787D01*
X024341Y010769D01*
X024400Y010748D01*
X024458Y010723D01*
X024514Y010694D01*
X024568Y010662D01*
X024620Y010627D01*
X024669Y010589D01*
X024717Y010547D01*
X024761Y010503D01*
X024803Y010455D01*
X024841Y010406D01*
X024876Y010354D01*
X024908Y010300D01*
X024937Y010244D01*
X024962Y010186D01*
X024983Y010127D01*
X025001Y010067D01*
X025014Y010005D01*
X025024Y009943D01*
X025030Y009881D01*
X025032Y009818D01*
X025030Y009755D01*
X025024Y009693D01*
X025014Y009631D01*
X025001Y009569D01*
X024983Y009509D01*
X024962Y009450D01*
X024937Y009392D01*
X024908Y009336D01*
X024876Y009282D01*
X024841Y009230D01*
X024803Y009181D01*
X024761Y009133D01*
X024717Y009089D01*
X024669Y009047D01*
X024620Y009009D01*
X024568Y008974D01*
X024514Y008942D01*
X024458Y008913D01*
X024400Y008888D01*
X024341Y008867D01*
X024281Y008849D01*
X024219Y008836D01*
X024157Y008826D01*
X024095Y008820D01*
X024032Y008818D01*
X023969Y008820D01*
X023907Y008826D01*
X023845Y008836D01*
X023783Y008849D01*
X023723Y008867D01*
X023664Y008888D01*
X023606Y008913D01*
X023550Y008942D01*
X023496Y008974D01*
X023444Y009009D01*
X023395Y009047D01*
X023347Y009089D01*
X023303Y009133D01*
X023261Y009181D01*
X023223Y009230D01*
X023188Y009282D01*
X023156Y009336D01*
X023127Y009392D01*
X023102Y009450D01*
X023081Y009509D01*
X023063Y009569D01*
X023050Y009631D01*
X023040Y009693D01*
X023034Y009755D01*
X023032Y009818D01*
X025730Y010080D02*
X025730Y009280D01*
X025732Y009263D01*
X025736Y009246D01*
X025743Y009230D01*
X025753Y009216D01*
X025766Y009203D01*
X025780Y009193D01*
X025796Y009186D01*
X025813Y009182D01*
X025830Y009180D01*
X027530Y009180D01*
X027547Y009182D01*
X027564Y009186D01*
X027580Y009193D01*
X027594Y009203D01*
X027607Y009216D01*
X027617Y009230D01*
X027624Y009246D01*
X027628Y009263D01*
X027630Y009280D01*
X027630Y010080D01*
X027628Y010097D01*
X027624Y010114D01*
X027617Y010130D01*
X027607Y010144D01*
X027594Y010157D01*
X027580Y010167D01*
X027564Y010174D01*
X027547Y010178D01*
X027530Y010180D01*
X025830Y010180D01*
X025813Y010178D01*
X025796Y010174D01*
X025780Y010167D01*
X025766Y010157D01*
X025753Y010144D01*
X025743Y010130D01*
X025736Y010114D01*
X025732Y010097D01*
X025730Y010080D01*
X026530Y009680D02*
X026580Y009680D01*
X026780Y009680D02*
X026830Y009680D01*
X027530Y008680D02*
X025830Y008680D01*
X025813Y008678D01*
X025796Y008674D01*
X025780Y008667D01*
X025766Y008657D01*
X025753Y008644D01*
X025743Y008630D01*
X025736Y008614D01*
X025732Y008597D01*
X025730Y008580D01*
X025730Y007780D01*
X025732Y007763D01*
X025736Y007746D01*
X025743Y007730D01*
X025753Y007716D01*
X025766Y007703D01*
X025780Y007693D01*
X025796Y007686D01*
X025813Y007682D01*
X025830Y007680D01*
X027530Y007680D01*
X027547Y007682D01*
X027564Y007686D01*
X027580Y007693D01*
X027594Y007703D01*
X027607Y007716D01*
X027617Y007730D01*
X027624Y007746D01*
X027628Y007763D01*
X027630Y007780D01*
X027630Y008580D01*
X027628Y008597D01*
X027624Y008614D01*
X027617Y008630D01*
X027607Y008644D01*
X027594Y008657D01*
X027580Y008667D01*
X027564Y008674D01*
X027547Y008678D01*
X027530Y008680D01*
X026830Y008180D02*
X026780Y008180D01*
X026580Y008180D02*
X026530Y008180D01*
X023180Y005980D02*
X023180Y005380D01*
X023178Y005363D01*
X023174Y005346D01*
X023167Y005330D01*
X023157Y005316D01*
X023144Y005303D01*
X023130Y005293D01*
X023114Y005286D01*
X023097Y005282D01*
X023080Y005280D01*
X022930Y005280D01*
X022880Y005330D01*
X021480Y005330D01*
X021430Y005280D01*
X021280Y005280D01*
X021263Y005282D01*
X021246Y005286D01*
X021230Y005293D01*
X021216Y005303D01*
X021203Y005316D01*
X021193Y005330D01*
X021186Y005346D01*
X021182Y005363D01*
X021180Y005380D01*
X021180Y005980D01*
X021182Y005997D01*
X021186Y006014D01*
X021193Y006030D01*
X021203Y006044D01*
X021216Y006057D01*
X021230Y006067D01*
X021246Y006074D01*
X021263Y006078D01*
X021280Y006080D01*
X021430Y006080D01*
X021480Y006030D01*
X022880Y006030D01*
X022930Y006080D01*
X023080Y006080D01*
X023097Y006078D01*
X023114Y006074D01*
X023130Y006067D01*
X023144Y006057D01*
X023157Y006044D01*
X023167Y006030D01*
X023174Y006014D01*
X023178Y005997D01*
X023180Y005980D01*
X021680Y006380D02*
X021680Y006980D01*
X021678Y006997D01*
X021674Y007014D01*
X021667Y007030D01*
X021657Y007044D01*
X021644Y007057D01*
X021630Y007067D01*
X021614Y007074D01*
X021597Y007078D01*
X021580Y007080D01*
X021430Y007080D01*
X021380Y007030D01*
X019980Y007030D01*
X019930Y007080D01*
X019780Y007080D01*
X019763Y007078D01*
X019746Y007074D01*
X019730Y007067D01*
X019716Y007057D01*
X019703Y007044D01*
X019693Y007030D01*
X019686Y007014D01*
X019682Y006997D01*
X019680Y006980D01*
X019680Y006380D01*
X019682Y006363D01*
X019686Y006346D01*
X019693Y006330D01*
X019703Y006316D01*
X019716Y006303D01*
X019730Y006293D01*
X019746Y006286D01*
X019763Y006282D01*
X019780Y006280D01*
X019930Y006280D01*
X019980Y006330D01*
X021380Y006330D01*
X021430Y006280D01*
X021580Y006280D01*
X021597Y006282D01*
X021614Y006286D01*
X021630Y006293D01*
X021644Y006303D01*
X021657Y006316D01*
X021667Y006330D01*
X021674Y006346D01*
X021678Y006363D01*
X021680Y006380D01*
X019630Y006080D02*
X019630Y005280D01*
X019628Y005263D01*
X019624Y005246D01*
X019617Y005230D01*
X019607Y005216D01*
X019594Y005203D01*
X019580Y005193D01*
X019564Y005186D01*
X019547Y005182D01*
X019530Y005180D01*
X017830Y005180D01*
X017813Y005182D01*
X017796Y005186D01*
X017780Y005193D01*
X017766Y005203D01*
X017753Y005216D01*
X017743Y005230D01*
X017736Y005246D01*
X017732Y005263D01*
X017730Y005280D01*
X017730Y006080D01*
X017732Y006097D01*
X017736Y006114D01*
X017743Y006130D01*
X017753Y006144D01*
X017766Y006157D01*
X017780Y006167D01*
X017796Y006174D01*
X017813Y006178D01*
X017830Y006180D01*
X019530Y006180D01*
X019547Y006178D01*
X019564Y006174D01*
X019580Y006167D01*
X019594Y006157D01*
X019607Y006144D01*
X019617Y006130D01*
X019624Y006114D01*
X019628Y006097D01*
X019630Y006080D01*
X018830Y005680D02*
X018780Y005680D01*
X018580Y005680D02*
X018530Y005680D01*
X017680Y004330D02*
X017680Y003580D01*
X017719Y003578D01*
X017758Y003572D01*
X017796Y003563D01*
X017833Y003550D01*
X017869Y003533D01*
X017902Y003513D01*
X017934Y003489D01*
X017963Y003463D01*
X017989Y003434D01*
X018013Y003402D01*
X018033Y003369D01*
X018050Y003333D01*
X018063Y003296D01*
X018072Y003258D01*
X018078Y003219D01*
X018080Y003180D01*
X018078Y003141D01*
X018072Y003102D01*
X018063Y003064D01*
X018050Y003027D01*
X018033Y002991D01*
X018013Y002958D01*
X017989Y002926D01*
X017963Y002897D01*
X017934Y002871D01*
X017902Y002847D01*
X017869Y002827D01*
X017833Y002810D01*
X017796Y002797D01*
X017758Y002788D01*
X017719Y002782D01*
X017680Y002780D01*
X017680Y002030D01*
X024680Y002030D01*
X024680Y004330D01*
X017680Y004330D01*
X023380Y016680D02*
X023980Y016680D01*
X023997Y016682D01*
X024014Y016686D01*
X024030Y016693D01*
X024044Y016703D01*
X024057Y016716D01*
X024067Y016730D01*
X024074Y016746D01*
X024078Y016763D01*
X024080Y016780D01*
X024080Y016930D01*
X024030Y016980D01*
X024030Y018380D01*
X024080Y018430D01*
X024080Y018580D01*
X024078Y018597D01*
X024074Y018614D01*
X024067Y018630D01*
X024057Y018644D01*
X024044Y018657D01*
X024030Y018667D01*
X024014Y018674D01*
X023997Y018678D01*
X023980Y018680D01*
X023380Y018680D01*
X023363Y018678D01*
X023346Y018674D01*
X023330Y018667D01*
X023316Y018657D01*
X023303Y018644D01*
X023293Y018630D01*
X023286Y018614D01*
X023282Y018597D01*
X023280Y018580D01*
X023280Y018430D01*
X023330Y018380D01*
X023330Y016980D01*
X023280Y016930D01*
X023280Y016780D01*
X023282Y016763D01*
X023286Y016746D01*
X023293Y016730D01*
X023303Y016716D01*
X023316Y016703D01*
X023330Y016693D01*
X023346Y016686D01*
X023363Y016682D01*
X023380Y016680D01*
X024080Y020180D02*
X023780Y020480D01*
X023680Y020480D01*
X023680Y020880D01*
X023780Y020880D01*
X024080Y021180D01*
X024580Y021180D01*
X024680Y021080D01*
X025680Y021080D01*
X025780Y021180D01*
X026280Y021180D01*
X026580Y020880D01*
X026680Y020880D01*
X026680Y020480D01*
X026580Y020480D01*
X026280Y020180D01*
X025780Y020180D01*
X025680Y020280D01*
X024680Y020280D01*
X024580Y020180D01*
X024080Y020180D01*
X024180Y020480D02*
X024280Y020480D01*
X024580Y020180D01*
X025080Y020180D01*
X025180Y020280D01*
X025280Y020180D01*
X025780Y020180D01*
X026080Y020480D01*
X026180Y020480D01*
X026180Y020880D01*
X026080Y020880D01*
X025780Y021180D01*
X025280Y021180D01*
X025180Y021080D01*
X025080Y021180D01*
X024580Y021180D01*
X024280Y020880D01*
X024180Y020880D01*
X024180Y020480D01*
X013680Y020930D02*
X013680Y019430D01*
X013430Y019180D01*
X012930Y019180D01*
X012680Y019430D01*
X012430Y019180D01*
X011930Y019180D01*
X011680Y019430D01*
X011430Y019180D01*
X010930Y019180D01*
X010680Y019430D01*
X010680Y020930D01*
X010930Y021180D01*
X011430Y021180D01*
X011680Y020930D01*
X011930Y021180D01*
X012430Y021180D01*
X012680Y020930D01*
X012930Y021180D01*
X013430Y021180D01*
X013680Y020930D01*
X009118Y019705D02*
X009071Y019707D01*
X009023Y019713D01*
X008977Y019722D01*
X008931Y019735D01*
X008887Y019751D01*
X008843Y019772D01*
X008802Y019795D01*
X008763Y019821D01*
X008726Y019851D01*
X008691Y019884D01*
X008659Y019919D01*
X008630Y019956D01*
X009117Y020905D02*
X009162Y020903D01*
X009208Y020898D01*
X009252Y020890D01*
X009296Y020878D01*
X009339Y020862D01*
X009381Y020844D01*
X009421Y020822D01*
X009459Y020798D01*
X009495Y020771D01*
X009530Y020741D01*
X009561Y020708D01*
X009591Y020673D01*
X009118Y020905D02*
X009073Y020903D01*
X009027Y020898D01*
X008983Y020890D01*
X008939Y020878D01*
X008896Y020862D01*
X008854Y020844D01*
X008814Y020822D01*
X008776Y020798D01*
X008740Y020771D01*
X008705Y020741D01*
X008674Y020708D01*
X008644Y020673D01*
X009117Y019705D02*
X009163Y019707D01*
X009209Y019712D01*
X009255Y019721D01*
X009300Y019733D01*
X009343Y019749D01*
X009385Y019768D01*
X009426Y019791D01*
X009465Y019816D01*
X009501Y019844D01*
X009536Y019875D01*
X009568Y019909D01*
X009597Y019945D01*
X006993Y020005D02*
X006993Y020605D01*
X006991Y020622D01*
X006987Y020639D01*
X006980Y020655D01*
X006970Y020669D01*
X006957Y020682D01*
X006943Y020692D01*
X006927Y020699D01*
X006910Y020703D01*
X006893Y020705D01*
X006743Y020705D01*
X006693Y020655D01*
X005293Y020655D01*
X005243Y020705D01*
X005093Y020705D01*
X005076Y020703D01*
X005059Y020699D01*
X005043Y020692D01*
X005029Y020682D01*
X005016Y020669D01*
X005006Y020655D01*
X004999Y020639D01*
X004995Y020622D01*
X004993Y020605D01*
X004993Y020005D01*
X004995Y019988D01*
X004999Y019971D01*
X005006Y019955D01*
X005016Y019941D01*
X005029Y019928D01*
X005043Y019918D01*
X005059Y019911D01*
X005076Y019907D01*
X005093Y019905D01*
X005243Y019905D01*
X005293Y019955D01*
X006693Y019955D01*
X006743Y019905D01*
X006893Y019905D01*
X006910Y019907D01*
X006927Y019911D01*
X006943Y019918D01*
X006957Y019928D01*
X006970Y019941D01*
X006980Y019955D01*
X006987Y019971D01*
X006991Y019988D01*
X006993Y020005D01*
D13*
X005745Y020138D02*
X005598Y020138D01*
X005524Y020138D02*
X005451Y020211D01*
X005488Y020211D02*
X005378Y020211D01*
X005378Y020138D02*
X005378Y020358D01*
X005488Y020358D01*
X005524Y020321D01*
X005524Y020248D01*
X005488Y020211D01*
X005598Y020284D02*
X005672Y020358D01*
X005672Y020138D01*
X017290Y015973D02*
X017290Y015827D01*
X017327Y015790D01*
X017400Y015790D01*
X017437Y015827D01*
X017511Y015827D02*
X017548Y015790D01*
X017621Y015790D01*
X017658Y015827D01*
X017658Y015863D01*
X017621Y015900D01*
X017511Y015900D01*
X017511Y015827D01*
X017511Y015900D02*
X017584Y015973D01*
X017658Y016010D01*
X017437Y015973D02*
X017400Y016010D01*
X017327Y016010D01*
X017290Y015973D01*
X022350Y015658D02*
X022350Y015511D01*
X022460Y015511D01*
X022423Y015584D01*
X022423Y015621D01*
X022460Y015658D01*
X022533Y015658D01*
X022570Y015621D01*
X022570Y015548D01*
X022533Y015511D01*
X022533Y015437D02*
X022570Y015400D01*
X022570Y015327D01*
X022533Y015290D01*
X022387Y015290D01*
X022350Y015327D01*
X022350Y015400D01*
X022387Y015437D01*
X024080Y020280D02*
X024080Y021080D01*
X024580Y021080D02*
X024580Y020280D01*
X024580Y021080D01*
X025080Y021080D02*
X025080Y020280D01*
X025280Y020280D02*
X025280Y021080D01*
X025780Y021080D02*
X025780Y020280D01*
X025780Y021080D01*
X026280Y021080D02*
X026280Y020280D01*
X025680Y020680D02*
X024680Y020680D01*
X020410Y020616D02*
X020410Y020469D01*
X020263Y020616D01*
X020227Y020616D01*
X020190Y020579D01*
X020190Y020506D01*
X020227Y020469D01*
X020190Y020395D02*
X020373Y020395D01*
X020410Y020358D01*
X020410Y020285D01*
X020373Y020248D01*
X020190Y020248D01*
X024017Y009260D02*
X023980Y009224D01*
X023980Y009077D01*
X024017Y009040D01*
X024090Y009040D01*
X024127Y009077D01*
X024201Y009150D02*
X024348Y009150D01*
X024311Y009040D02*
X024311Y009260D01*
X024201Y009150D01*
X024127Y009224D02*
X024090Y009260D01*
X024017Y009260D01*
X026632Y008997D02*
X026706Y009070D01*
X026780Y009033D02*
X026780Y008887D01*
X026816Y008850D01*
X026890Y008850D01*
X026926Y008887D01*
X027001Y008887D02*
X027001Y008850D01*
X027001Y008887D02*
X027147Y009033D01*
X027147Y009070D01*
X027001Y009070D01*
X026926Y009033D02*
X026890Y009070D01*
X026816Y009070D01*
X026780Y009033D01*
X026632Y008997D02*
X026632Y008923D01*
X026706Y008850D01*
X027222Y008850D02*
X027295Y008923D01*
X027295Y008997D01*
X027222Y009070D01*
X027369Y009033D02*
X027406Y009070D01*
X027479Y009070D01*
X027516Y009033D01*
X027516Y008997D01*
X027369Y008850D01*
X027516Y008850D01*
X027442Y007570D02*
X027442Y007350D01*
X027369Y007350D02*
X027516Y007350D01*
X027369Y007497D02*
X027442Y007570D01*
X027295Y007497D02*
X027222Y007570D01*
X027147Y007570D02*
X027147Y007533D01*
X027001Y007387D01*
X027001Y007350D01*
X026926Y007387D02*
X026890Y007350D01*
X026816Y007350D01*
X026780Y007387D01*
X026780Y007533D01*
X026816Y007570D01*
X026890Y007570D01*
X026926Y007533D01*
X027001Y007570D02*
X027147Y007570D01*
X027295Y007497D02*
X027295Y007423D01*
X027222Y007350D01*
X026706Y007350D02*
X026632Y007423D01*
X026632Y007497D01*
X026706Y007570D01*
D14*
X025601Y007133D02*
X025601Y001227D01*
X030641Y001227D01*
X030641Y007133D01*
X025601Y007133D01*
X021380Y007680D02*
X021380Y007780D01*
X021380Y007680D02*
X018980Y007680D01*
X018980Y007780D01*
X018980Y021580D02*
X018980Y021680D01*
X019680Y021680D01*
X019682Y021636D01*
X019688Y021593D01*
X019697Y021551D01*
X019710Y021509D01*
X019727Y021469D01*
X019747Y021430D01*
X019770Y021393D01*
X019797Y021359D01*
X019826Y021326D01*
X019859Y021297D01*
X019893Y021270D01*
X019930Y021247D01*
X019969Y021227D01*
X020009Y021210D01*
X020051Y021197D01*
X020093Y021188D01*
X020136Y021182D01*
X020180Y021180D01*
X020224Y021182D01*
X020267Y021188D01*
X020309Y021197D01*
X020351Y021210D01*
X020391Y021227D01*
X020430Y021247D01*
X020467Y021270D01*
X020501Y021297D01*
X020534Y021326D01*
X020563Y021359D01*
X020590Y021393D01*
X020613Y021430D01*
X020633Y021469D01*
X020650Y021509D01*
X020663Y021551D01*
X020672Y021593D01*
X020678Y021636D01*
X020680Y021680D01*
X021380Y021680D01*
X021380Y021580D01*
D15*
X017980Y014780D02*
X017680Y014780D01*
X017380Y014780D01*
X017380Y014580D02*
X017680Y014580D01*
X017980Y014580D01*
X022380Y014280D02*
X022680Y014280D01*
X022980Y014280D01*
X022980Y014080D02*
X022680Y014080D01*
X022380Y014080D01*
X022380Y012280D02*
X022680Y012280D01*
X022980Y012280D01*
X022980Y012080D02*
X022680Y012080D01*
X022380Y012080D01*
X026580Y009980D02*
X026580Y009680D01*
X026580Y009380D01*
X026780Y009380D02*
X026780Y009680D01*
X026780Y009980D01*
X026780Y008480D02*
X026780Y008180D01*
X026780Y007880D01*
X026580Y007880D02*
X026580Y008180D01*
X026580Y008480D01*
X018780Y005980D02*
X018780Y005680D01*
X018780Y005380D01*
X018580Y005380D02*
X018580Y005680D01*
X018580Y005980D01*
X009813Y020702D02*
X009783Y020750D01*
X009750Y020795D01*
X009714Y020838D01*
X009676Y020879D01*
X009634Y020916D01*
X009590Y020951D01*
X009544Y020982D01*
X009495Y021011D01*
X009445Y021035D01*
X009393Y021056D01*
X009339Y021074D01*
X009285Y021087D01*
X009230Y021097D01*
X009174Y021103D01*
X009118Y021105D01*
X009823Y019929D02*
X009796Y019882D01*
X009766Y019837D01*
X009733Y019794D01*
X009697Y019754D01*
X009658Y019716D01*
X009617Y019681D01*
X009574Y019648D01*
X009529Y019619D01*
X009481Y019593D01*
X009432Y019570D01*
X009382Y019550D01*
X009331Y019534D01*
X009278Y019521D01*
X009225Y019512D01*
X009171Y019507D01*
X009117Y019505D01*
X008506Y020822D02*
X008542Y020861D01*
X008581Y020899D01*
X008621Y020933D01*
X008664Y020965D01*
X008709Y020993D01*
X008756Y021019D01*
X008805Y021042D01*
X008855Y021061D01*
X008906Y021077D01*
X008958Y021089D01*
X009010Y021098D01*
X009064Y021103D01*
X009117Y021105D01*
X008502Y019793D02*
X008538Y019753D01*
X008577Y019715D01*
X008618Y019680D01*
X008661Y019648D01*
X008706Y019618D01*
X008753Y019592D01*
X008802Y019570D01*
X008853Y019550D01*
X008904Y019534D01*
X008956Y019521D01*
X009010Y019512D01*
X009063Y019507D01*
X009117Y019505D01*
D16*
X004105Y001680D03*
X004105Y002680D03*
X004105Y003680D03*
X006255Y003680D03*
X006255Y002680D03*
X006255Y001680D03*
X008105Y001680D03*
X008105Y002680D03*
X008105Y003680D03*
X010255Y003680D03*
X010255Y002680D03*
X010255Y001680D03*
X019605Y006680D03*
X021105Y005680D03*
X021755Y006680D03*
X023255Y005680D03*
X007068Y020305D03*
X004918Y020305D03*
D17*
X023705Y017079D02*
X023810Y016974D01*
X023810Y017114D01*
X023915Y017079D02*
X023705Y017079D01*
X023740Y016893D02*
X023810Y016893D01*
X023845Y016858D01*
X023845Y016753D01*
X023915Y016753D02*
X023705Y016753D01*
X023705Y016858D01*
X023740Y016893D01*
X023845Y016823D02*
X023915Y016893D01*
X020079Y006655D02*
X020009Y006655D01*
X019974Y006620D01*
X019893Y006620D02*
X019893Y006550D01*
X019858Y006515D01*
X019753Y006515D01*
X019753Y006445D02*
X019753Y006655D01*
X019858Y006655D01*
X019893Y006620D01*
X019823Y006515D02*
X019893Y006445D01*
X019974Y006480D02*
X020009Y006445D01*
X020079Y006445D01*
X020114Y006480D01*
X020114Y006515D01*
X020079Y006550D01*
X020044Y006550D01*
X020079Y006550D02*
X020114Y006585D01*
X020114Y006620D01*
X020079Y006655D01*
X021253Y005655D02*
X021358Y005655D01*
X021393Y005620D01*
X021393Y005550D01*
X021358Y005515D01*
X021253Y005515D01*
X021253Y005445D02*
X021253Y005655D01*
X021323Y005515D02*
X021393Y005445D01*
X021474Y005480D02*
X021509Y005445D01*
X021579Y005445D01*
X021614Y005480D01*
X021614Y005620D01*
X021579Y005655D01*
X021509Y005655D01*
X021474Y005620D01*
X021474Y005585D01*
X021509Y005550D01*
X021614Y005550D01*
X010056Y002915D02*
X009986Y002880D01*
X009916Y002810D01*
X010021Y002810D01*
X010056Y002775D01*
X010056Y002740D01*
X010021Y002705D01*
X009951Y002705D01*
X009916Y002740D01*
X009916Y002810D01*
X009835Y002810D02*
X009800Y002775D01*
X009695Y002775D01*
X009695Y002705D02*
X009695Y002915D01*
X009800Y002915D01*
X009835Y002880D01*
X009835Y002810D01*
X009765Y002775D02*
X009835Y002705D01*
X009800Y001915D02*
X009835Y001880D01*
X009835Y001810D01*
X009800Y001775D01*
X009695Y001775D01*
X009695Y001705D02*
X009695Y001915D01*
X009800Y001915D01*
X009916Y001915D02*
X009916Y001810D01*
X009986Y001845D01*
X010021Y001845D01*
X010056Y001810D01*
X010056Y001740D01*
X010021Y001705D01*
X009951Y001705D01*
X009916Y001740D01*
X009835Y001705D02*
X009765Y001775D01*
X009916Y001915D02*
X010056Y001915D01*
X008614Y003445D02*
X008474Y003445D01*
X008614Y003585D01*
X008614Y003620D01*
X008579Y003655D01*
X008509Y003655D01*
X008474Y003620D01*
X008393Y003620D02*
X008393Y003550D01*
X008358Y003515D01*
X008253Y003515D01*
X008253Y003445D02*
X008253Y003655D01*
X008358Y003655D01*
X008393Y003620D01*
X008323Y003515D02*
X008393Y003445D01*
X006056Y003740D02*
X006021Y003705D01*
X005951Y003705D01*
X005916Y003740D01*
X005916Y003775D01*
X005951Y003810D01*
X006021Y003810D01*
X006056Y003775D01*
X006056Y003740D01*
X006021Y003810D02*
X006056Y003845D01*
X006056Y003880D01*
X006021Y003915D01*
X005951Y003915D01*
X005916Y003880D01*
X005916Y003845D01*
X005951Y003810D01*
X005835Y003810D02*
X005800Y003775D01*
X005695Y003775D01*
X005695Y003705D02*
X005695Y003915D01*
X005800Y003915D01*
X005835Y003880D01*
X005835Y003810D01*
X005765Y003775D02*
X005835Y003705D01*
X005800Y002915D02*
X005695Y002915D01*
X005695Y002705D01*
X005695Y002775D02*
X005800Y002775D01*
X005835Y002810D01*
X005835Y002880D01*
X005800Y002915D01*
X005916Y002915D02*
X006056Y002915D01*
X006056Y002880D01*
X005916Y002740D01*
X005916Y002705D01*
X005835Y002705D02*
X005765Y002775D01*
X005786Y001915D02*
X005716Y001845D01*
X005635Y001880D02*
X005635Y001810D01*
X005600Y001775D01*
X005495Y001775D01*
X005495Y001705D02*
X005495Y001915D01*
X005600Y001915D01*
X005635Y001880D01*
X005565Y001775D02*
X005635Y001705D01*
X005716Y001705D02*
X005856Y001705D01*
X005786Y001705D02*
X005786Y001915D01*
X005937Y001880D02*
X005972Y001915D01*
X006042Y001915D01*
X006077Y001880D01*
X005937Y001740D01*
X005972Y001705D01*
X006042Y001705D01*
X006077Y001740D01*
X006077Y001880D01*
X005937Y001880D02*
X005937Y001740D01*
D18*
X003180Y004680D02*
X003180Y010680D01*
X009180Y010680D01*
X009180Y004680D01*
X003180Y004680D01*
X002805Y005534D02*
X002805Y005834D01*
X002805Y005684D02*
X002355Y005684D01*
X002505Y005534D01*
X002430Y005995D02*
X002355Y006070D01*
X002355Y006220D01*
X002430Y006295D01*
X002505Y006295D01*
X002805Y005995D01*
X002805Y006295D01*
X010680Y004680D02*
X010680Y010680D01*
X016680Y010680D01*
X016680Y004680D01*
X010680Y004680D01*
X012205Y003980D02*
X012280Y003905D01*
X012355Y003905D01*
X012430Y003980D01*
X012430Y004355D01*
X012355Y004355D02*
X012505Y004355D01*
X012665Y004355D02*
X012891Y004355D01*
X012966Y004280D01*
X012966Y004130D01*
X012891Y004055D01*
X012665Y004055D01*
X012665Y003905D02*
X012665Y004355D01*
X013126Y004205D02*
X013276Y004355D01*
X013276Y003905D01*
X013126Y003905D02*
X013426Y003905D01*
X013580Y001505D02*
X013505Y001430D01*
X013580Y001505D02*
X013730Y001505D01*
X013805Y001430D01*
X013805Y001355D01*
X013505Y001055D01*
X013805Y001055D01*
X012805Y001055D02*
X012505Y001055D01*
X012655Y001055D02*
X012655Y001505D01*
X012505Y001355D01*
X017055Y002005D02*
X017055Y002155D01*
X017055Y002080D02*
X017505Y002080D01*
X017505Y002005D02*
X017505Y002155D01*
X017430Y002312D02*
X017505Y002387D01*
X017505Y002537D01*
X017430Y002612D01*
X017505Y002772D02*
X017505Y003073D01*
X017505Y002922D02*
X017055Y002922D01*
X017205Y002772D01*
X017130Y002612D02*
X017055Y002537D01*
X017055Y002387D01*
X017130Y002312D01*
X017430Y002312D01*
X028180Y008180D02*
X030680Y008180D01*
X030680Y010680D01*
X031680Y010680D01*
X031680Y019680D01*
X030680Y019680D01*
X030680Y022180D01*
X028180Y022180D01*
X028180Y019180D01*
X026180Y019180D01*
X026180Y011180D01*
X028180Y011180D01*
X028180Y008180D01*
X026230Y011495D02*
X026155Y011495D01*
X026080Y011570D01*
X026080Y011720D01*
X026155Y011795D01*
X026230Y011795D01*
X026305Y011720D01*
X026305Y011570D01*
X026230Y011495D01*
X026080Y011570D02*
X026005Y011495D01*
X025930Y011495D01*
X025855Y011570D01*
X025855Y011720D01*
X025930Y011795D01*
X026005Y011795D01*
X026080Y011720D01*
X024505Y018445D02*
X024505Y018745D01*
X024505Y018595D02*
X024055Y018595D01*
X024205Y018445D01*
X025284Y019605D02*
X025284Y020055D01*
X025584Y020055D01*
X025745Y019905D02*
X025895Y020055D01*
X025895Y019605D01*
X025745Y019605D02*
X026045Y019605D01*
X025434Y019830D02*
X025284Y019830D01*
X016680Y018180D02*
X016680Y012180D01*
X010680Y012180D01*
X010680Y018180D01*
X016680Y018180D01*
X014105Y020530D02*
X014105Y020605D01*
X014030Y020680D01*
X013805Y020680D01*
X013805Y020530D01*
X013880Y020455D01*
X014030Y020455D01*
X014105Y020530D01*
X013955Y020830D02*
X013805Y020680D01*
X013955Y020830D02*
X014105Y020905D01*
X011926Y021355D02*
X011626Y021355D01*
X011926Y021655D01*
X011926Y021730D01*
X011851Y021805D01*
X011701Y021805D01*
X011626Y021730D01*
X011466Y021805D02*
X011466Y021505D01*
X011316Y021355D01*
X011165Y021505D01*
X011165Y021805D01*
X011005Y021730D02*
X010930Y021805D01*
X010780Y021805D01*
X010705Y021730D01*
X010705Y021655D01*
X010780Y021580D01*
X010930Y021580D01*
X011005Y021505D01*
X011005Y021430D01*
X010930Y021355D01*
X010780Y021355D01*
X010705Y021430D01*
X011105Y019005D02*
X011105Y018555D01*
X010955Y018555D02*
X011255Y018555D01*
X010955Y018855D02*
X011105Y019005D01*
X009180Y018180D02*
X009180Y012180D01*
X003180Y012180D01*
X003180Y018180D01*
X009180Y018180D01*
X001005Y017195D02*
X001005Y016895D01*
X001005Y017045D02*
X000555Y017045D01*
X000705Y016895D01*
D19*
X023680Y016605D03*
X023680Y018755D03*
D20*
X023610Y020680D03*
X026750Y020680D03*
M02*
