%
M48
M72
T01C0.0240
T02C0.0276
T03C0.0315
T04C0.0320
T05C0.0360
T06C0.0400
T07C0.0450
T08C0.0470
T09C0.0590
T10C0.0900
T11C0.1250
T12C0.1300
T13C0.1400
%
T01
X11563Y13551
X13063Y16801
X11938Y20238
X11625Y25863
X12625Y25863
X13625Y25863
X20250Y29113
X5938Y19613
T02
X14125Y29879
X14125Y31847
T03
X5125Y22863
X5125Y21863
X5125Y20863
X5125Y19863
X4125Y20363
X4125Y21363
X4125Y22363
X4125Y23363
T04
X6125Y27363
X7125Y27363
X7125Y29863
X6125Y29863
X5125Y29863
X6125Y32363
X7125Y32363
X3625Y32363
X2625Y32363
X2125Y29863
X9125Y23863
X10125Y23863
X11125Y23863
X11125Y24863
X11625Y21863
X12125Y21113
X12625Y21863
X14125Y23863
X14125Y24863
X15625Y26363
X16625Y26363
X19125Y25863
X21125Y25863
X12625Y17363
X12125Y15863
X11125Y15863
X10125Y15863
X9125Y15863
X8125Y15863
X7125Y15863
X6125Y15863
X5125Y15863
X5125Y14863
X6125Y12863
X7125Y12863
X8125Y12863
X9125Y12863
X10125Y12863
X11125Y12863
X12125Y12863
X9625Y17363
X10125Y18363
X11125Y18363
X10125Y20863
X9125Y20863
T05
X13125Y19863
X14125Y19863
X15125Y21363
X16125Y21363
X16125Y23363
X17125Y23363
X18125Y23363
X18125Y18363
X18125Y17363
X18125Y16363
X18125Y15363
X18125Y14363
X18125Y13363
X18125Y12363
X18125Y11363
X17125Y11363
X17125Y12363
X17125Y13363
X17125Y14363
X17125Y15363
X17125Y16363
X17125Y17363
X17125Y18363
X12125Y11363
X12125Y10363
X12125Y9363
X10125Y9363
X10125Y10363
X10125Y11363
X7625Y11363
X7625Y10363
X7625Y9363
X5125Y9363
X5125Y10363
X5125Y11363
X2625Y10863
X2625Y9863
X17125Y8863
X18125Y8863
T06
X20125Y8933
X20125Y10013
X20125Y11103
X20125Y12193
X20125Y13273
X20125Y14363
X20125Y15453
X20125Y16533
X20125Y17623
X20125Y18713
X20125Y19793
X20125Y20883
X21125Y20343
X21125Y19253
X21125Y18163
X21125Y17083
X21125Y15993
X21125Y14903
X21125Y13823
X21125Y12733
X21125Y11643
X21125Y10563
X21125Y9473
X21125Y8383
X20125Y7843
X14306Y6922
X13759Y5804
X13216Y6922
X12668Y5804
X12125Y6922
X11582Y5804
X11034Y6922
X10491Y5804
X9944Y6922
X6625Y10363
X4125Y10363
X7125Y17863
X7125Y18863
X7125Y19863
X7125Y20863
X7125Y21863
X7125Y22863
X7125Y23863
X7125Y24863
X18125Y25863
X20325Y27063
X18125Y21363
X18125Y20363
X18125Y19363
T07
X16625Y19863
X10625Y19863
X1875Y14983
X1875Y27743
T08
X13140Y30078
X13140Y31648
X15110Y31648
X15110Y30078
T09
X9625Y32863
X9625Y26863
T10
X3125Y4682
X5015Y5863
T11
X3125Y7084
T12
X7204Y6363
X17046Y6363
X20625Y5103
X20625Y23623
T13
X2875Y24613
X2875Y26613
X2875Y18113
X2875Y16113
M30
