G75*
%MOIN*%
%OFA0B0*%
%FSLAX24Y24*%
%IPPOS*%
%LPD*%
%AMOC8*
5,1,8,0,0,1.08239X$1,22.5*
%
%ADD10C,0.0050*%
D10*
X007875Y019863D02*
X007877Y020014D01*
X007883Y020165D01*
X007893Y020316D01*
X007907Y020467D01*
X007925Y020617D01*
X007946Y020766D01*
X007972Y020915D01*
X008002Y021063D01*
X008035Y021211D01*
X008073Y021357D01*
X008114Y021503D01*
X008159Y021647D01*
X008208Y021790D01*
X008260Y021932D01*
X008316Y022072D01*
X008376Y022211D01*
X008440Y022348D01*
X008507Y022484D01*
X008578Y022617D01*
X008652Y022749D01*
X008729Y022879D01*
X008810Y023006D01*
X008894Y023132D01*
X008982Y023255D01*
X009073Y023376D01*
X009167Y023494D01*
X009264Y023610D01*
X009364Y023724D01*
X009467Y023834D01*
X009573Y023942D01*
X009681Y024047D01*
X009793Y024150D01*
X009907Y024249D01*
X010023Y024345D01*
X010142Y024438D01*
X010264Y024528D01*
X010387Y024615D01*
X010513Y024698D01*
X010642Y024778D01*
X010772Y024855D01*
X010904Y024928D01*
X011038Y024998D01*
X011174Y025064D01*
X011312Y025127D01*
X011451Y025186D01*
X011591Y025241D01*
X011734Y025293D01*
X011877Y025341D01*
X012022Y025385D01*
X012167Y025425D01*
X012314Y025462D01*
X012462Y025494D01*
X012610Y025523D01*
X012759Y025547D01*
X012909Y025568D01*
X013059Y025585D01*
X013210Y025598D01*
X013361Y025607D01*
X013512Y025612D01*
X013663Y025613D01*
X013814Y025610D01*
X013965Y025603D01*
X014116Y025592D01*
X014266Y025577D01*
X014416Y025558D01*
X014566Y025536D01*
X014714Y025509D01*
X014862Y025478D01*
X015010Y025444D01*
X015156Y025405D01*
X015301Y025363D01*
X015445Y025317D01*
X015588Y025268D01*
X015729Y025214D01*
X015869Y025157D01*
X016007Y025096D01*
X016144Y025032D01*
X016279Y024964D01*
X016412Y024892D01*
X016544Y024817D01*
X016673Y024739D01*
X016800Y024657D01*
X016925Y024572D01*
X017047Y024484D01*
X017168Y024392D01*
X017286Y024297D01*
X017401Y024200D01*
X017514Y024099D01*
X017624Y023995D01*
X017731Y023889D01*
X017835Y023779D01*
X017937Y023667D01*
X018035Y023553D01*
X018131Y023435D01*
X018223Y023316D01*
X018312Y023194D01*
X018398Y023069D01*
X018481Y022943D01*
X018560Y022814D01*
X018636Y022683D01*
X018708Y022551D01*
X018777Y022416D01*
X018842Y022280D01*
X018904Y022142D01*
X018962Y022002D01*
X019017Y021861D01*
X019067Y021719D01*
X019114Y021575D01*
X019157Y021430D01*
X019197Y021284D01*
X019232Y021137D01*
X019264Y020989D01*
X019291Y020841D01*
X019315Y020692D01*
X019335Y020542D01*
X019351Y020391D01*
X019363Y020241D01*
X019371Y020090D01*
X019375Y019939D01*
X019375Y019787D01*
X019371Y019636D01*
X019363Y019485D01*
X019351Y019335D01*
X019335Y019184D01*
X019315Y019034D01*
X019291Y018885D01*
X019264Y018737D01*
X019232Y018589D01*
X019197Y018442D01*
X019157Y018296D01*
X019114Y018151D01*
X019067Y018007D01*
X019017Y017865D01*
X018962Y017724D01*
X018904Y017584D01*
X018842Y017446D01*
X018777Y017310D01*
X018708Y017175D01*
X018636Y017043D01*
X018560Y016912D01*
X018481Y016783D01*
X018398Y016657D01*
X018312Y016532D01*
X018223Y016410D01*
X018131Y016291D01*
X018035Y016173D01*
X017937Y016059D01*
X017835Y015947D01*
X017731Y015837D01*
X017624Y015731D01*
X017514Y015627D01*
X017401Y015526D01*
X017286Y015429D01*
X017168Y015334D01*
X017047Y015242D01*
X016925Y015154D01*
X016800Y015069D01*
X016673Y014987D01*
X016544Y014909D01*
X016412Y014834D01*
X016279Y014762D01*
X016144Y014694D01*
X016007Y014630D01*
X015869Y014569D01*
X015729Y014512D01*
X015588Y014458D01*
X015445Y014409D01*
X015301Y014363D01*
X015156Y014321D01*
X015010Y014282D01*
X014862Y014248D01*
X014714Y014217D01*
X014566Y014190D01*
X014416Y014168D01*
X014266Y014149D01*
X014116Y014134D01*
X013965Y014123D01*
X013814Y014116D01*
X013663Y014113D01*
X013512Y014114D01*
X013361Y014119D01*
X013210Y014128D01*
X013059Y014141D01*
X012909Y014158D01*
X012759Y014179D01*
X012610Y014203D01*
X012462Y014232D01*
X012314Y014264D01*
X012167Y014301D01*
X012022Y014341D01*
X011877Y014385D01*
X011734Y014433D01*
X011591Y014485D01*
X011451Y014540D01*
X011312Y014599D01*
X011174Y014662D01*
X011038Y014728D01*
X010904Y014798D01*
X010772Y014871D01*
X010642Y014948D01*
X010513Y015028D01*
X010387Y015111D01*
X010264Y015198D01*
X010142Y015288D01*
X010023Y015381D01*
X009907Y015477D01*
X009793Y015576D01*
X009681Y015679D01*
X009573Y015784D01*
X009467Y015892D01*
X009364Y016002D01*
X009264Y016116D01*
X009167Y016232D01*
X009073Y016350D01*
X008982Y016471D01*
X008894Y016594D01*
X008810Y016720D01*
X008729Y016847D01*
X008652Y016977D01*
X008578Y017109D01*
X008507Y017242D01*
X008440Y017378D01*
X008376Y017515D01*
X008316Y017654D01*
X008260Y017794D01*
X008208Y017936D01*
X008159Y018079D01*
X008114Y018223D01*
X008073Y018369D01*
X008035Y018515D01*
X008002Y018663D01*
X007972Y018811D01*
X007946Y018960D01*
X007925Y019109D01*
X007907Y019259D01*
X007893Y019410D01*
X007883Y019561D01*
X007877Y019712D01*
X007875Y019863D01*
M02*
