G75*
%MOIN*%
%OFA0B0*%
%FSLAX24Y24*%
%IPPOS*%
%LPD*%
%AMOC8*
5,1,8,0,0,1.08239X$1,22.5*
%
%ADD10C,0.0886*%
%ADD11C,0.1012*%
%ADD12C,0.0660*%
%ADD13C,0.0640*%
%ADD14C,0.0560*%
%ADD15OC8,0.0640*%
%ADD16R,0.0260X0.0800*%
%ADD17R,0.0460X0.0630*%
%ADD18R,0.0709X0.0630*%
%ADD19C,0.0120*%
%ADD20C,0.0390*%
D10*
X002680Y008680D03*
X005180Y009680D03*
X010180Y008680D03*
X012680Y009680D03*
X017680Y008680D03*
X020180Y009680D03*
X025180Y008680D03*
X027680Y009680D03*
X025180Y016180D03*
X027680Y017180D03*
X020180Y017180D03*
X017680Y016180D03*
X012680Y017180D03*
X010180Y016180D03*
X005180Y017180D03*
X002680Y016180D03*
D11*
X002180Y015180D03*
X006180Y015180D03*
X009680Y015180D03*
X013680Y015180D03*
X017180Y015180D03*
X021180Y015180D03*
X024680Y015180D03*
X028680Y015180D03*
X028680Y007680D03*
X024680Y007680D03*
X021180Y007680D03*
X017180Y007680D03*
X013680Y007680D03*
X009680Y007680D03*
X006180Y007680D03*
X002180Y007680D03*
D12*
X003680Y005680D03*
X004680Y005680D03*
X011180Y005680D03*
X012180Y005680D03*
X018680Y005680D03*
X019680Y005680D03*
X026180Y005680D03*
X027180Y005680D03*
X027180Y013180D03*
X026180Y013180D03*
X019680Y013180D03*
X018680Y013180D03*
X012180Y013180D03*
X011180Y013180D03*
X004680Y013180D03*
X003680Y013180D03*
D13*
X030860Y013180D02*
X031500Y013180D01*
X031500Y012180D02*
X030860Y012180D01*
X030860Y011180D02*
X031500Y011180D01*
X031500Y010180D02*
X030860Y010180D01*
X030860Y009180D02*
X031500Y009180D01*
X031500Y008180D02*
X030860Y008180D01*
X030860Y007180D02*
X031500Y007180D01*
X031500Y006180D02*
X030860Y006180D01*
X030860Y014180D02*
X031500Y014180D01*
X031500Y015180D02*
X030860Y015180D01*
X030860Y016180D02*
X031500Y016180D01*
X031500Y017180D02*
X030860Y017180D01*
D14*
X019180Y002960D02*
X019180Y002400D01*
X018180Y002400D02*
X018180Y002960D01*
X017180Y002960D02*
X017180Y002400D01*
X016180Y002400D02*
X016180Y002960D01*
X015180Y002960D02*
X015180Y002400D01*
X014180Y002400D02*
X014180Y002960D01*
X013180Y002960D02*
X013180Y002400D01*
X012180Y002400D02*
X012180Y002960D01*
X011180Y002960D02*
X011180Y002400D01*
X010180Y002400D02*
X010180Y002960D01*
D15*
X020180Y002680D03*
D16*
X017180Y018970D03*
X016680Y018970D03*
X016180Y018970D03*
X015680Y018970D03*
X015180Y018970D03*
X014680Y018970D03*
X014180Y018970D03*
X014180Y021390D03*
X014680Y021390D03*
X015180Y021390D03*
X015680Y021390D03*
X016180Y021390D03*
X016680Y021390D03*
X017180Y021390D03*
D17*
X019380Y021180D03*
X019980Y021180D03*
X019980Y019680D03*
X019380Y019680D03*
D18*
X012680Y019629D03*
X012680Y020731D03*
D19*
X003100Y005520D02*
X005850Y002770D01*
X010140Y002770D01*
X010180Y002680D01*
X010250Y002660D01*
X011460Y001450D01*
X025430Y001450D01*
X031150Y007170D01*
X031180Y007180D01*
X031180Y008180D02*
X031150Y008270D01*
X030380Y008270D01*
X028620Y010030D01*
X027740Y009700D02*
X027680Y009680D01*
X027740Y009700D02*
X029170Y011130D01*
X031150Y011130D01*
X031180Y011180D01*
X031180Y013180D02*
X031150Y013220D01*
X028180Y013220D01*
X027410Y013990D01*
X024550Y013990D01*
X020260Y009700D01*
X020180Y009680D01*
X019930Y009040D02*
X019490Y009480D01*
X019490Y012230D01*
X020480Y013220D01*
X020480Y016520D01*
X020810Y016850D01*
X020810Y018610D01*
X020260Y019160D01*
X020480Y019380D01*
X020480Y020370D01*
X019930Y020370D02*
X019930Y019710D01*
X019980Y019680D01*
X019710Y019160D02*
X020260Y019160D01*
X019710Y019160D02*
X019380Y019490D01*
X019380Y019680D01*
X019270Y020260D02*
X019160Y020260D01*
X018720Y019820D01*
X018720Y018830D01*
X018280Y019050D02*
X018280Y017510D01*
X020150Y015640D01*
X020150Y013660D01*
X019710Y013220D01*
X019680Y013180D01*
X018680Y013180D02*
X018610Y013110D01*
X018610Y011570D01*
X013660Y006620D01*
X013660Y002220D01*
X013330Y001890D01*
X013000Y001890D01*
X012230Y002660D01*
X012180Y002680D01*
X013110Y002770D02*
X013180Y002680D01*
X013110Y002770D02*
X013110Y007280D01*
X012670Y007720D01*
X012670Y008820D01*
X011240Y010250D01*
X011240Y013110D01*
X011180Y013180D01*
X010800Y012780D02*
X010690Y012890D01*
X010690Y013440D01*
X011460Y014210D01*
X012120Y014210D01*
X013000Y015090D01*
X013000Y015530D01*
X016080Y018610D01*
X016080Y018940D01*
X016180Y018970D01*
X016190Y019050D01*
X016190Y019270D01*
X016630Y019710D01*
X016850Y020150D02*
X016080Y020150D01*
X015200Y021030D01*
X015200Y021360D01*
X015180Y021390D01*
X015680Y021390D02*
X015750Y021360D01*
X015750Y021030D01*
X016410Y020370D01*
X016960Y020370D01*
X018280Y019050D01*
X018060Y018940D02*
X018060Y017180D01*
X018940Y016300D01*
X017680Y016180D02*
X017620Y016190D01*
X017180Y016630D01*
X017180Y018970D01*
X016680Y018970D02*
X016630Y018940D01*
X016630Y017180D01*
X012670Y013220D01*
X012230Y013220D01*
X012180Y013180D01*
X010800Y012780D02*
X010800Y008380D01*
X010690Y008270D01*
X010690Y007170D01*
X012180Y005680D01*
X014650Y003100D02*
X018280Y006730D01*
X024770Y006730D01*
X025650Y007610D01*
X025650Y008270D01*
X026970Y009590D01*
X026970Y012230D01*
X027740Y013000D01*
X027740Y013330D01*
X027300Y013770D01*
X026750Y013770D01*
X026200Y013220D01*
X026180Y013180D01*
X025870Y012670D02*
X026640Y012670D01*
X027080Y013110D01*
X027180Y013180D01*
X025870Y012670D02*
X024990Y013550D01*
X021910Y012010D02*
X020370Y010470D01*
X020810Y009370D02*
X020480Y009040D01*
X019930Y009040D01*
X020810Y009370D02*
X025650Y009370D01*
X025180Y008680D02*
X025100Y008710D01*
X017730Y008710D01*
X017680Y008680D01*
X018390Y006180D02*
X025650Y006180D01*
X026090Y005740D01*
X026180Y005680D01*
X018680Y005680D02*
X018610Y005630D01*
X016190Y003210D01*
X016190Y002770D01*
X016180Y002680D01*
X015200Y002770D02*
X015180Y002680D01*
X015200Y002770D02*
X015200Y002990D01*
X018390Y006180D01*
X014650Y003100D02*
X014650Y002220D01*
X014100Y001670D01*
X012230Y001670D01*
X011240Y002660D01*
X011180Y002680D01*
X005190Y006180D02*
X004750Y005740D01*
X004680Y005680D01*
X005190Y006180D02*
X005190Y008050D01*
X003100Y010140D01*
X003100Y013330D01*
X003540Y013770D01*
X004200Y013770D01*
X005190Y014760D01*
X005190Y015200D01*
X008050Y018060D01*
X014540Y018060D01*
X015090Y018610D01*
X015090Y018940D01*
X015180Y018970D01*
X015640Y018940D02*
X015680Y018970D01*
X015640Y018940D02*
X015640Y018610D01*
X014870Y017840D01*
X009810Y017840D01*
X005190Y013220D01*
X004750Y013220D01*
X004680Y013180D01*
X002880Y015310D02*
X002880Y009370D01*
X003320Y008930D01*
X003320Y008160D01*
X003100Y007940D01*
X003100Y005520D01*
X010180Y008680D02*
X010250Y008710D01*
X010360Y008820D01*
X010360Y015530D01*
X010250Y015640D01*
X010250Y016080D01*
X010180Y016180D01*
X014180Y018970D02*
X014210Y019050D01*
X014210Y019710D01*
X014650Y019820D02*
X013660Y020810D01*
X012780Y019930D01*
X012780Y019710D01*
X012680Y019629D01*
X012670Y019600D01*
X008490Y019600D01*
X005080Y016190D01*
X003760Y016190D01*
X002880Y015310D01*
X002770Y016190D02*
X002680Y016180D01*
X002770Y016190D02*
X007280Y020700D01*
X012670Y020700D01*
X012680Y020731D01*
X013660Y020810D02*
X014210Y021360D01*
X014180Y021390D01*
X014210Y021470D01*
X014210Y021690D01*
X014540Y022020D01*
X016410Y022020D01*
X016630Y021800D01*
X016630Y021470D01*
X016680Y021390D01*
X016190Y021360D02*
X016190Y021030D01*
X016410Y020810D01*
X017730Y020810D01*
X017290Y021250D02*
X017180Y021360D01*
X017180Y021390D01*
X017290Y021250D02*
X019270Y021250D01*
X019380Y021180D01*
X019380Y021250D01*
X019270Y021250D01*
X019710Y021690D01*
X020590Y021690D01*
X024880Y017400D01*
X026310Y016520D02*
X022680Y020150D01*
X021910Y019710D02*
X021910Y012010D01*
X026310Y016520D02*
X028290Y016520D01*
X030600Y014210D01*
X031150Y014210D01*
X031180Y014180D01*
X031180Y016180D02*
X031150Y016190D01*
X028070Y019270D01*
X021910Y019710D02*
X020590Y021030D01*
X019980Y021180D02*
X019930Y021140D01*
X019930Y020920D01*
X019270Y020260D01*
X018060Y018940D02*
X016850Y020150D01*
X016190Y021360D02*
X016180Y021390D01*
X015090Y020590D02*
X014760Y020920D01*
X014760Y021360D01*
X014680Y021390D01*
X014650Y019820D02*
X014650Y019050D01*
X014680Y018970D01*
X021360Y019710D02*
X021360Y017180D01*
D20*
X021360Y017180D03*
X018940Y016300D03*
X018720Y018830D03*
X016630Y019710D03*
X017730Y020810D03*
X019930Y020370D03*
X020480Y020370D03*
X020590Y021030D03*
X021360Y019710D03*
X022680Y020150D03*
X024880Y017400D03*
X028070Y019270D03*
X024990Y013550D03*
X020370Y010470D03*
X025650Y009370D03*
X028620Y010030D03*
X014210Y019710D03*
X015090Y020590D03*
M02*
