G75*
%MOIN*%
%OFA0B0*%
%FSLAX24Y24*%
%IPPOS*%
%LPD*%
%AMOC8*
5,1,8,0,0,1.08239X$1,22.5*
%
%ADD10OC8,0.0580*%
%ADD11C,0.0580*%
%ADD12OC8,0.0614*%
%ADD13C,0.1266*%
%ADD14C,0.0496*%
%ADD15OC8,0.0680*%
%ADD16C,0.0900*%
%ADD17R,0.0575X0.0575*%
%ADD18R,0.0710X0.0710*%
%ADD19C,0.0660*%
%ADD20C,0.0580*%
%ADD21R,0.0460X0.0630*%
%ADD22R,0.0630X0.0460*%
%ADD23C,0.0160*%
%ADD24C,0.0100*%
%ADD25C,0.0200*%
D10*
X009780Y001575D03*
X010780Y001575D03*
X011905Y001575D03*
X014905Y001575D03*
X018217Y001700D03*
X019217Y001700D03*
X018217Y004200D03*
X015217Y004200D03*
X015217Y006200D03*
X018217Y006200D03*
X014217Y008200D03*
X013217Y008200D03*
X015217Y009200D03*
X013717Y009700D03*
X012717Y009700D03*
X011717Y009700D03*
X010717Y009700D03*
X008717Y010700D03*
X008717Y011700D03*
X010717Y012700D03*
X011717Y012700D03*
X012717Y012700D03*
X013717Y012700D03*
X018217Y009200D03*
X008355Y007947D03*
X004717Y011700D03*
X003717Y011700D03*
D11*
X008355Y008747D03*
D12*
X004548Y008039D03*
X003564Y008039D03*
X003564Y007212D03*
X003564Y006188D03*
X003564Y005361D03*
X004548Y005361D03*
D13*
X002387Y004060D03*
X002057Y006700D03*
X002387Y009340D03*
D14*
X007546Y006011D02*
X007546Y005514D01*
X009514Y005514D02*
X009514Y006011D01*
X009514Y004073D02*
X009514Y003577D01*
X007546Y003577D02*
X007546Y004073D01*
D15*
X011405Y004200D03*
X011405Y005200D03*
X011405Y006200D03*
X011405Y007200D03*
X014405Y007200D03*
X014405Y006200D03*
X014405Y005200D03*
X014405Y004200D03*
D16*
X006331Y004746D03*
X005335Y003774D03*
X001405Y004743D03*
X001405Y005723D03*
X001405Y007703D03*
X001405Y008683D03*
X005335Y009683D03*
X006327Y008683D03*
X005339Y006719D03*
D17*
X021217Y006700D03*
X022217Y007200D03*
X021217Y007700D03*
X022217Y008200D03*
X021217Y008700D03*
X022217Y006200D03*
X021217Y005700D03*
X022217Y005200D03*
D18*
X024467Y000820D03*
X024467Y013580D03*
D19*
X019547Y010200D02*
X018887Y010200D01*
X018887Y009200D02*
X019547Y009200D01*
X019547Y008200D02*
X018887Y008200D01*
X018887Y007200D02*
X019547Y007200D01*
X019547Y006200D02*
X018887Y006200D01*
X018887Y005200D02*
X019547Y005200D01*
X019547Y004200D02*
X018887Y004200D01*
X018887Y003200D02*
X019547Y003200D01*
D20*
X019217Y011410D02*
X019217Y011990D01*
X018217Y011990D02*
X018217Y011410D01*
X016217Y011410D02*
X016217Y011990D01*
X015217Y011990D02*
X015217Y011410D01*
D21*
X005017Y002700D03*
X004417Y002700D03*
D22*
X006417Y006400D03*
X006417Y007000D03*
D23*
X006217Y006950D01*
X005967Y006950D01*
X005717Y006700D01*
X005467Y006700D01*
X005339Y006719D01*
X006417Y006400D02*
X006467Y006200D01*
X006967Y005700D01*
X007467Y005700D01*
X007546Y005762D01*
X008467Y006950D02*
X011217Y006950D01*
X011467Y007200D01*
X011405Y007200D01*
X009717Y005700D02*
X009514Y005762D01*
X009717Y005700D02*
X010467Y005700D01*
X010467Y003950D01*
X011217Y003200D01*
X013217Y003200D01*
X014217Y004200D01*
X014405Y004200D01*
X009717Y001700D02*
X009780Y001575D01*
X009717Y001700D02*
X008467Y002950D01*
X008467Y006950D01*
X004548Y005361D02*
X004467Y005200D01*
X004217Y005200D01*
X004217Y002700D01*
X004417Y002700D01*
X005017Y002700D02*
X005217Y002700D01*
X005217Y003700D01*
X005335Y003774D01*
D24*
X001993Y000682D02*
X001801Y000490D01*
X020133Y000490D01*
X019942Y000682D01*
X019802Y001018D01*
X019802Y001382D01*
X019720Y001382D01*
X019802Y001382D02*
X019942Y001718D01*
X020199Y001976D01*
X020535Y002115D01*
X020899Y002115D01*
X021236Y001976D01*
X021493Y001718D01*
X021632Y001382D01*
X022635Y001382D01*
X022628Y001389D02*
X022907Y001111D01*
X023271Y000960D01*
X023664Y000960D01*
X023822Y001025D01*
X023822Y000490D01*
X021301Y000490D01*
X021493Y000682D01*
X021632Y001018D01*
X021632Y001382D01*
X021632Y001283D02*
X022734Y001283D01*
X022832Y001185D02*
X021632Y001185D01*
X021632Y001086D02*
X022965Y001086D01*
X023203Y000988D02*
X021620Y000988D01*
X021579Y000889D02*
X023822Y000889D01*
X023822Y000791D02*
X021538Y000791D01*
X021498Y000692D02*
X023822Y000692D01*
X023822Y000594D02*
X021405Y000594D01*
X021307Y000495D02*
X023822Y000495D01*
X023822Y000988D02*
X023732Y000988D01*
X024338Y001465D02*
X024457Y001753D01*
X024457Y002147D01*
X024307Y002511D01*
X024028Y002789D01*
X023664Y002940D01*
X023271Y002940D01*
X022907Y002789D01*
X022628Y002511D01*
X022477Y002147D01*
X022477Y001753D01*
X022628Y001389D01*
X022590Y001480D02*
X021592Y001480D01*
X021551Y001579D02*
X022550Y001579D01*
X022509Y001677D02*
X021510Y001677D01*
X021435Y001776D02*
X022477Y001776D01*
X022477Y001874D02*
X021337Y001874D01*
X021238Y001973D02*
X022477Y001973D01*
X022477Y002071D02*
X021004Y002071D01*
X020430Y002071D02*
X019666Y002071D01*
X019765Y001973D02*
X020196Y001973D01*
X020098Y001874D02*
X019797Y001874D01*
X019797Y001940D02*
X019458Y002280D01*
X018977Y002280D01*
X018637Y001940D01*
X018637Y001902D01*
X018400Y002140D01*
X018247Y002140D01*
X018247Y001730D01*
X018187Y001730D01*
X018187Y001670D01*
X017777Y001670D01*
X017777Y001518D01*
X018035Y001260D01*
X018187Y001260D01*
X018187Y001670D01*
X018247Y001670D01*
X018247Y001260D01*
X018400Y001260D01*
X018637Y001498D01*
X018637Y001460D01*
X018977Y001120D01*
X019458Y001120D01*
X019797Y001460D01*
X019797Y001940D01*
X019797Y001776D02*
X019999Y001776D01*
X019925Y001677D02*
X019797Y001677D01*
X019797Y001579D02*
X019884Y001579D01*
X019843Y001480D02*
X019797Y001480D01*
X019802Y001283D02*
X019621Y001283D01*
X019523Y001185D02*
X019802Y001185D01*
X019802Y001086D02*
X012237Y001086D01*
X012145Y000995D02*
X012485Y001335D01*
X012485Y001815D01*
X012145Y002155D01*
X011665Y002155D01*
X011342Y001833D01*
X011020Y002155D01*
X010540Y002155D01*
X010280Y001895D01*
X010020Y002155D01*
X009786Y002155D01*
X008837Y003103D01*
X008837Y006580D01*
X010894Y006580D01*
X010775Y006461D01*
X010775Y005939D01*
X011014Y005700D01*
X010837Y005523D01*
X010837Y005774D01*
X010781Y005910D01*
X010677Y006014D01*
X010541Y006070D01*
X010052Y006070D01*
X010052Y006118D01*
X009970Y006315D01*
X009819Y006467D01*
X009621Y006549D01*
X009407Y006549D01*
X009209Y006467D01*
X009058Y006315D01*
X008976Y006118D01*
X008976Y005407D01*
X009058Y005210D01*
X009209Y005058D01*
X009407Y004976D01*
X009621Y004976D01*
X009819Y005058D01*
X009970Y005210D01*
X010020Y005330D01*
X010097Y005330D01*
X010097Y003876D01*
X010154Y003740D01*
X010258Y003636D01*
X011008Y002886D01*
X011144Y002830D01*
X013291Y002830D01*
X013427Y002886D01*
X013531Y002990D01*
X014127Y003587D01*
X014144Y003570D01*
X014666Y003570D01*
X014847Y003751D01*
X014977Y003620D01*
X015458Y003620D01*
X015797Y003960D01*
X015797Y004440D01*
X015458Y004780D01*
X014977Y004780D01*
X014847Y004649D01*
X014796Y004700D01*
X015035Y004939D01*
X015035Y005461D01*
X014796Y005700D01*
X014847Y005751D01*
X014977Y005620D01*
X015458Y005620D01*
X015797Y005960D01*
X015797Y006440D01*
X015458Y006780D01*
X014977Y006780D01*
X014847Y006649D01*
X014796Y006700D01*
X015035Y006939D01*
X015035Y007461D01*
X014667Y007829D01*
X014797Y007960D01*
X014797Y008440D01*
X014458Y008780D01*
X013977Y008780D01*
X013637Y008440D01*
X013637Y008402D01*
X013400Y008640D01*
X013247Y008640D01*
X013247Y008230D01*
X013187Y008230D01*
X013187Y008170D01*
X012777Y008170D01*
X012777Y008018D01*
X013035Y007760D01*
X013187Y007760D01*
X013187Y008170D01*
X013247Y008170D01*
X013247Y007760D01*
X013400Y007760D01*
X013637Y007998D01*
X013637Y007960D01*
X013956Y007642D01*
X013775Y007461D01*
X013775Y006939D01*
X014014Y006700D01*
X013775Y006461D01*
X013775Y005939D01*
X014014Y005700D01*
X013775Y005461D01*
X013775Y004939D01*
X014014Y004700D01*
X013775Y004461D01*
X013775Y004281D01*
X013064Y003570D01*
X011371Y003570D01*
X011231Y003710D01*
X011375Y003710D01*
X011375Y004170D01*
X011435Y004170D01*
X011435Y004230D01*
X011895Y004230D01*
X011895Y004403D01*
X011697Y004601D01*
X012035Y004939D01*
X012035Y005461D01*
X011796Y005700D01*
X012035Y005939D01*
X012035Y006461D01*
X011796Y006700D01*
X012035Y006939D01*
X012035Y007461D01*
X011666Y007830D01*
X011144Y007830D01*
X010775Y007461D01*
X010775Y007320D01*
X008394Y007320D01*
X008258Y007264D01*
X008154Y007160D01*
X008097Y007024D01*
X008097Y002876D01*
X008154Y002740D01*
X008258Y002636D01*
X009200Y001694D01*
X009200Y001335D01*
X009540Y000995D01*
X010020Y000995D01*
X010280Y001255D01*
X010540Y000995D01*
X011020Y000995D01*
X011342Y001317D01*
X011665Y000995D01*
X012145Y000995D01*
X012335Y001185D02*
X014673Y001185D01*
X014723Y001135D02*
X014465Y001393D01*
X014465Y001545D01*
X014875Y001545D01*
X014935Y001545D01*
X014935Y001605D01*
X015345Y001605D01*
X015345Y001757D01*
X015087Y002015D01*
X014935Y002015D01*
X014935Y001605D01*
X014875Y001605D01*
X014875Y002015D01*
X014723Y002015D01*
X014465Y001757D01*
X014465Y001605D01*
X014875Y001605D01*
X014875Y001545D01*
X014875Y001135D01*
X014723Y001135D01*
X014875Y001185D02*
X014935Y001185D01*
X014935Y001135D02*
X015087Y001135D01*
X015345Y001393D01*
X015345Y001545D01*
X014935Y001545D01*
X014935Y001135D01*
X014935Y001283D02*
X014875Y001283D01*
X014875Y001382D02*
X014935Y001382D01*
X014935Y001480D02*
X014875Y001480D01*
X014875Y001579D02*
X012485Y001579D01*
X012485Y001677D02*
X014465Y001677D01*
X014484Y001776D02*
X012485Y001776D01*
X012426Y001874D02*
X014582Y001874D01*
X014681Y001973D02*
X012327Y001973D01*
X012229Y002071D02*
X017967Y002071D01*
X018035Y002140D02*
X017777Y001882D01*
X017777Y001730D01*
X018187Y001730D01*
X018187Y002140D01*
X018035Y002140D01*
X018187Y002071D02*
X018247Y002071D01*
X018247Y001973D02*
X018187Y001973D01*
X018187Y001874D02*
X018247Y001874D01*
X018247Y001776D02*
X018187Y001776D01*
X018187Y001677D02*
X015345Y001677D01*
X015326Y001776D02*
X017777Y001776D01*
X017777Y001874D02*
X015228Y001874D01*
X015129Y001973D02*
X017868Y001973D01*
X017777Y001579D02*
X014935Y001579D01*
X014935Y001677D02*
X014875Y001677D01*
X014875Y001776D02*
X014935Y001776D01*
X014935Y001874D02*
X014875Y001874D01*
X014875Y001973D02*
X014935Y001973D01*
X015345Y001480D02*
X017815Y001480D01*
X017913Y001382D02*
X015334Y001382D01*
X015236Y001283D02*
X018012Y001283D01*
X018187Y001283D02*
X018247Y001283D01*
X018247Y001382D02*
X018187Y001382D01*
X018187Y001480D02*
X018247Y001480D01*
X018247Y001579D02*
X018187Y001579D01*
X018620Y001480D02*
X018637Y001480D01*
X018715Y001382D02*
X018522Y001382D01*
X018423Y001283D02*
X018814Y001283D01*
X018912Y001185D02*
X015137Y001185D01*
X014574Y001283D02*
X012434Y001283D01*
X012485Y001382D02*
X014476Y001382D01*
X014465Y001480D02*
X012485Y001480D01*
X011573Y001086D02*
X011112Y001086D01*
X011210Y001185D02*
X011475Y001185D01*
X011376Y001283D02*
X011309Y001283D01*
X010448Y001086D02*
X010112Y001086D01*
X010210Y001185D02*
X010350Y001185D01*
X009448Y001086D02*
X002132Y001086D01*
X002132Y001018D02*
X002132Y001382D01*
X009200Y001382D01*
X009200Y001480D02*
X002092Y001480D01*
X002132Y001382D02*
X001993Y001718D01*
X001736Y001976D01*
X001399Y002115D01*
X001035Y002115D01*
X000699Y001976D01*
X000507Y001784D01*
X000507Y012616D01*
X000699Y012424D01*
X001035Y012285D01*
X001399Y012285D01*
X001736Y012424D01*
X001993Y012682D01*
X002132Y013018D01*
X002132Y013382D01*
X001993Y013718D01*
X001801Y013910D01*
X020133Y013910D01*
X019942Y013718D01*
X019802Y013382D01*
X019802Y013018D01*
X019942Y012682D01*
X020199Y012424D01*
X020535Y012285D01*
X020899Y012285D01*
X021236Y012424D01*
X021493Y012682D01*
X021632Y013018D01*
X021632Y013382D01*
X021493Y013718D01*
X021301Y013910D01*
X023822Y013910D01*
X023822Y013374D01*
X023664Y013440D01*
X023271Y013440D01*
X022907Y013289D01*
X022628Y013011D01*
X022477Y012647D01*
X022477Y012253D01*
X022628Y011889D01*
X022907Y011611D01*
X023271Y011460D01*
X023664Y011460D01*
X024028Y011611D01*
X024307Y011889D01*
X024457Y012253D01*
X024457Y012647D01*
X024338Y012935D01*
X024880Y012935D01*
X024927Y012955D01*
X024927Y001445D01*
X024880Y001465D01*
X024338Y001465D01*
X024345Y001480D02*
X024927Y001480D01*
X024927Y001579D02*
X024385Y001579D01*
X024426Y001677D02*
X024927Y001677D01*
X024927Y001776D02*
X024457Y001776D01*
X024457Y001874D02*
X024927Y001874D01*
X024927Y001973D02*
X024457Y001973D01*
X024457Y002071D02*
X024927Y002071D01*
X024927Y002170D02*
X024448Y002170D01*
X024407Y002268D02*
X024927Y002268D01*
X024927Y002367D02*
X024366Y002367D01*
X024325Y002465D02*
X024927Y002465D01*
X024927Y002564D02*
X024254Y002564D01*
X024155Y002662D02*
X024927Y002662D01*
X024927Y002761D02*
X024057Y002761D01*
X023859Y002859D02*
X024927Y002859D01*
X024927Y002958D02*
X019963Y002958D01*
X019958Y002948D02*
X019992Y003016D01*
X020016Y003088D01*
X020026Y003150D01*
X019267Y003150D01*
X019267Y002720D01*
X019585Y002720D01*
X019660Y002732D01*
X019732Y002755D01*
X019799Y002789D01*
X019860Y002834D01*
X019914Y002887D01*
X019958Y002948D01*
X019886Y002859D02*
X023076Y002859D01*
X023271Y002960D02*
X023664Y002960D01*
X024028Y003111D01*
X024307Y003389D01*
X024457Y003753D01*
X024457Y004147D01*
X024307Y004511D01*
X024028Y004789D01*
X023664Y004940D01*
X023271Y004940D01*
X022907Y004789D01*
X022628Y004511D01*
X022477Y004147D01*
X022477Y003753D01*
X022628Y003389D01*
X022907Y003111D01*
X023271Y002960D01*
X023038Y003056D02*
X020006Y003056D01*
X020026Y003250D02*
X020016Y003312D01*
X019992Y003384D01*
X019958Y003452D01*
X019914Y003513D01*
X019860Y003566D01*
X019799Y003610D01*
X019775Y003623D01*
X019899Y003674D01*
X020073Y003849D01*
X020167Y004077D01*
X020167Y004323D01*
X020073Y004551D01*
X019899Y004726D01*
X019775Y004777D01*
X019799Y004789D01*
X019860Y004834D01*
X019914Y004887D01*
X019958Y004948D01*
X019992Y005016D01*
X020016Y005088D01*
X020026Y005150D01*
X019267Y005150D01*
X019267Y005250D01*
X020026Y005250D01*
X020016Y005312D01*
X019992Y005384D01*
X019958Y005452D01*
X019914Y005513D01*
X019860Y005566D01*
X019799Y005610D01*
X019775Y005623D01*
X019899Y005674D01*
X020073Y005849D01*
X020167Y006077D01*
X020167Y006323D01*
X020073Y006551D01*
X019924Y006700D01*
X020073Y006849D01*
X020167Y007077D01*
X020167Y007323D01*
X020073Y007551D01*
X019924Y007700D01*
X020073Y007849D01*
X020167Y008077D01*
X020167Y008323D01*
X020073Y008551D01*
X019924Y008700D01*
X020073Y008849D01*
X020167Y009077D01*
X020167Y009323D01*
X020073Y009551D01*
X019899Y009726D01*
X019775Y009777D01*
X019799Y009789D01*
X019860Y009834D01*
X019914Y009887D01*
X019958Y009948D01*
X019992Y010016D01*
X020016Y010088D01*
X020026Y010150D01*
X019267Y010150D01*
X019267Y010250D01*
X019167Y010250D01*
X019167Y010150D01*
X018409Y010150D01*
X018419Y010088D01*
X018443Y010016D01*
X018477Y009948D01*
X018521Y009887D01*
X018575Y009834D01*
X018636Y009789D01*
X018660Y009777D01*
X018536Y009726D01*
X018524Y009713D01*
X018458Y009780D01*
X017977Y009780D01*
X017637Y009440D01*
X017637Y008960D01*
X017977Y008620D01*
X018431Y008620D01*
X018362Y008551D01*
X018267Y008323D01*
X018267Y008077D01*
X018362Y007849D01*
X018511Y007700D01*
X018362Y007551D01*
X018267Y007323D01*
X018267Y007077D01*
X018362Y006849D01*
X018431Y006780D01*
X017977Y006780D01*
X017637Y006440D01*
X017637Y005960D01*
X017977Y005620D01*
X018458Y005620D01*
X018524Y005686D01*
X018536Y005674D01*
X018660Y005623D01*
X018636Y005610D01*
X018575Y005566D01*
X018521Y005513D01*
X018477Y005452D01*
X018443Y005384D01*
X018419Y005312D01*
X018409Y005250D01*
X019167Y005250D01*
X019167Y005150D01*
X018409Y005150D01*
X018419Y005088D01*
X018443Y005016D01*
X018477Y004948D01*
X018521Y004887D01*
X018575Y004834D01*
X018636Y004789D01*
X018660Y004777D01*
X018536Y004726D01*
X018524Y004713D01*
X018458Y004780D01*
X017977Y004780D01*
X017637Y004440D01*
X017637Y003960D01*
X017977Y003620D01*
X018458Y003620D01*
X018524Y003686D01*
X018536Y003674D01*
X018660Y003623D01*
X018636Y003610D01*
X018575Y003566D01*
X018521Y003513D01*
X018477Y003452D01*
X018443Y003384D01*
X018419Y003312D01*
X018409Y003250D01*
X019167Y003250D01*
X019167Y003150D01*
X018409Y003150D01*
X018419Y003088D01*
X018443Y003016D01*
X018477Y002948D01*
X018521Y002887D01*
X018575Y002834D01*
X018636Y002789D01*
X018703Y002755D01*
X018775Y002732D01*
X018850Y002720D01*
X019167Y002720D01*
X019167Y003150D01*
X019267Y003150D01*
X019267Y003250D01*
X020026Y003250D01*
X020025Y003253D02*
X022764Y003253D01*
X022862Y003155D02*
X019267Y003155D01*
X019267Y003056D02*
X019167Y003056D01*
X019167Y002958D02*
X019267Y002958D01*
X019267Y002859D02*
X019167Y002859D01*
X019167Y002761D02*
X019267Y002761D01*
X019743Y002761D02*
X022878Y002761D01*
X022780Y002662D02*
X009278Y002662D01*
X009377Y002564D02*
X022681Y002564D01*
X022609Y002465D02*
X009475Y002465D01*
X009574Y002367D02*
X022569Y002367D01*
X022528Y002268D02*
X019469Y002268D01*
X019568Y002170D02*
X022487Y002170D01*
X023897Y003056D02*
X024927Y003056D01*
X024927Y003155D02*
X024073Y003155D01*
X024171Y003253D02*
X024927Y003253D01*
X024927Y003352D02*
X024270Y003352D01*
X024332Y003450D02*
X024927Y003450D01*
X024927Y003549D02*
X024373Y003549D01*
X024414Y003647D02*
X024927Y003647D01*
X024927Y003746D02*
X024455Y003746D01*
X024457Y003844D02*
X024927Y003844D01*
X024927Y003943D02*
X024457Y003943D01*
X024457Y004041D02*
X024927Y004041D01*
X024927Y004140D02*
X024457Y004140D01*
X024420Y004238D02*
X024927Y004238D01*
X024927Y004337D02*
X024379Y004337D01*
X024338Y004435D02*
X024927Y004435D01*
X024927Y004534D02*
X024284Y004534D01*
X024185Y004632D02*
X024927Y004632D01*
X024927Y004731D02*
X024086Y004731D01*
X023931Y004829D02*
X024927Y004829D01*
X024927Y004928D02*
X023693Y004928D01*
X023242Y004928D02*
X022655Y004928D01*
X022655Y004893D02*
X022655Y005171D01*
X022246Y005171D01*
X022246Y004762D01*
X022525Y004762D01*
X022563Y004773D01*
X022597Y004792D01*
X022625Y004820D01*
X022645Y004855D01*
X022655Y004893D01*
X022630Y004829D02*
X023004Y004829D01*
X022848Y004731D02*
X019886Y004731D01*
X019854Y004829D02*
X021805Y004829D01*
X021810Y004820D02*
X021838Y004792D01*
X021872Y004773D01*
X021910Y004762D01*
X022189Y004762D01*
X022189Y005171D01*
X022246Y005171D01*
X022246Y005229D01*
X022189Y005229D01*
X022189Y005637D01*
X021910Y005637D01*
X021872Y005627D01*
X021838Y005607D01*
X021810Y005580D01*
X021795Y005554D01*
X021795Y005846D01*
X021810Y005820D01*
X021838Y005792D01*
X021872Y005773D01*
X021910Y005762D01*
X022189Y005762D01*
X022189Y006171D01*
X022246Y006171D01*
X022246Y005762D01*
X022525Y005762D01*
X022563Y005773D01*
X022597Y005792D01*
X022625Y005820D01*
X022645Y005855D01*
X022655Y005893D01*
X022655Y006171D01*
X022246Y006171D01*
X022246Y006229D01*
X022655Y006229D01*
X022655Y006507D01*
X022645Y006545D01*
X022625Y006580D01*
X022597Y006607D01*
X022568Y006625D01*
X022669Y006667D01*
X022751Y006748D01*
X022795Y006855D01*
X022795Y007545D01*
X022751Y007652D01*
X022703Y007700D01*
X022751Y007748D01*
X022795Y007855D01*
X022795Y008545D01*
X022751Y008652D01*
X022669Y008733D01*
X022563Y008777D01*
X021872Y008777D01*
X021766Y008733D01*
X021684Y008652D01*
X021655Y008581D01*
X021655Y008671D01*
X021703Y008671D01*
X021655Y008671D02*
X021246Y008671D01*
X021246Y008729D01*
X021189Y008729D01*
X021189Y009137D01*
X020910Y009137D01*
X020872Y009127D01*
X020838Y009107D01*
X020810Y009080D01*
X020790Y009045D01*
X020780Y009007D01*
X020780Y008729D01*
X021189Y008729D01*
X021189Y008671D01*
X020780Y008671D01*
X019953Y008671D01*
X019994Y008769D02*
X020780Y008769D01*
X020780Y008671D02*
X020780Y008393D01*
X020790Y008355D01*
X020810Y008320D01*
X020838Y008292D01*
X020867Y008275D01*
X020766Y008233D01*
X020684Y008152D01*
X020640Y008045D01*
X020640Y007355D01*
X020684Y007248D01*
X020732Y007200D01*
X020684Y007152D01*
X020640Y007045D01*
X020640Y006355D01*
X020684Y006248D01*
X020732Y006200D01*
X020684Y006152D01*
X020640Y006045D01*
X020640Y005355D01*
X020684Y005248D01*
X020766Y005167D01*
X020872Y005122D01*
X021563Y005122D01*
X021669Y005167D01*
X021751Y005248D01*
X021780Y005319D01*
X021780Y005229D01*
X022189Y005229D01*
X022189Y005171D01*
X021780Y005171D01*
X021780Y004893D01*
X021790Y004855D01*
X021810Y004820D01*
X021780Y004928D02*
X019943Y004928D01*
X019996Y005026D02*
X021780Y005026D01*
X021780Y005125D02*
X021569Y005125D01*
X021726Y005223D02*
X022189Y005223D01*
X022246Y005223D02*
X024927Y005223D01*
X024927Y005125D02*
X022655Y005125D01*
X022655Y005026D02*
X024927Y005026D01*
X024927Y005322D02*
X022655Y005322D01*
X022655Y005229D02*
X022655Y005507D01*
X022645Y005545D01*
X022625Y005580D01*
X022597Y005607D01*
X022563Y005627D01*
X022525Y005637D01*
X022246Y005637D01*
X022246Y005229D01*
X022655Y005229D01*
X022655Y005420D02*
X024927Y005420D01*
X024927Y005519D02*
X022652Y005519D01*
X022580Y005617D02*
X024927Y005617D01*
X024927Y005716D02*
X021795Y005716D01*
X021795Y005814D02*
X021816Y005814D01*
X021795Y005617D02*
X021855Y005617D01*
X022189Y005617D02*
X022246Y005617D01*
X022246Y005519D02*
X022189Y005519D01*
X022189Y005420D02*
X022246Y005420D01*
X022246Y005322D02*
X022189Y005322D01*
X022189Y005125D02*
X022246Y005125D01*
X022246Y005026D02*
X022189Y005026D01*
X022189Y004928D02*
X022246Y004928D01*
X022246Y004829D02*
X022189Y004829D01*
X022651Y004534D02*
X020080Y004534D01*
X020121Y004435D02*
X022597Y004435D01*
X022556Y004337D02*
X020162Y004337D01*
X020167Y004238D02*
X022515Y004238D01*
X022477Y004140D02*
X020167Y004140D01*
X020153Y004041D02*
X022477Y004041D01*
X022477Y003943D02*
X020112Y003943D01*
X020069Y003844D02*
X022477Y003844D01*
X022480Y003746D02*
X019970Y003746D01*
X019834Y003647D02*
X022521Y003647D01*
X022562Y003549D02*
X019877Y003549D01*
X019959Y003450D02*
X022603Y003450D01*
X022665Y003352D02*
X020003Y003352D01*
X019167Y003155D02*
X013696Y003155D01*
X013794Y003253D02*
X018410Y003253D01*
X018432Y003352D02*
X013893Y003352D01*
X013991Y003450D02*
X018476Y003450D01*
X018558Y003549D02*
X014090Y003549D01*
X014743Y003647D02*
X014950Y003647D01*
X014851Y003746D02*
X014842Y003746D01*
X015485Y003647D02*
X017950Y003647D01*
X017851Y003746D02*
X015584Y003746D01*
X015682Y003844D02*
X017753Y003844D01*
X017654Y003943D02*
X015781Y003943D01*
X015797Y004041D02*
X017637Y004041D01*
X017637Y004140D02*
X015797Y004140D01*
X015797Y004238D02*
X017637Y004238D01*
X017637Y004337D02*
X015797Y004337D01*
X015797Y004435D02*
X017637Y004435D01*
X017731Y004534D02*
X015704Y004534D01*
X015605Y004632D02*
X017830Y004632D01*
X017928Y004731D02*
X015507Y004731D01*
X015024Y004928D02*
X018492Y004928D01*
X018439Y005026D02*
X015035Y005026D01*
X015035Y005125D02*
X018413Y005125D01*
X018422Y005322D02*
X015035Y005322D01*
X015035Y005420D02*
X018461Y005420D01*
X018528Y005519D02*
X014977Y005519D01*
X014878Y005617D02*
X018650Y005617D01*
X019167Y005223D02*
X015035Y005223D01*
X014925Y004829D02*
X018581Y004829D01*
X018549Y004731D02*
X018507Y004731D01*
X019267Y005223D02*
X020709Y005223D01*
X020654Y005322D02*
X020012Y005322D01*
X019974Y005420D02*
X020640Y005420D01*
X020640Y005519D02*
X019907Y005519D01*
X019785Y005617D02*
X020640Y005617D01*
X020640Y005716D02*
X019940Y005716D01*
X020039Y005814D02*
X020640Y005814D01*
X020640Y005913D02*
X020100Y005913D01*
X020140Y006011D02*
X020640Y006011D01*
X020667Y006110D02*
X020167Y006110D01*
X020167Y006208D02*
X020724Y006208D01*
X020660Y006307D02*
X020167Y006307D01*
X020133Y006405D02*
X020640Y006405D01*
X020640Y006504D02*
X020093Y006504D01*
X020022Y006602D02*
X020640Y006602D01*
X020640Y006701D02*
X019925Y006701D01*
X020024Y006799D02*
X020640Y006799D01*
X020640Y006898D02*
X020093Y006898D01*
X020134Y006996D02*
X020640Y006996D01*
X020661Y007095D02*
X020167Y007095D01*
X020167Y007193D02*
X020726Y007193D01*
X020666Y007292D02*
X020167Y007292D01*
X020140Y007390D02*
X020640Y007390D01*
X020640Y007489D02*
X020099Y007489D01*
X020037Y007587D02*
X020640Y007587D01*
X020640Y007686D02*
X019938Y007686D01*
X020009Y007784D02*
X020640Y007784D01*
X020640Y007883D02*
X020087Y007883D01*
X020128Y007981D02*
X020640Y007981D01*
X020654Y008080D02*
X020167Y008080D01*
X020167Y008178D02*
X020711Y008178D01*
X020865Y008277D02*
X020167Y008277D01*
X020146Y008375D02*
X020785Y008375D01*
X020780Y008474D02*
X020105Y008474D01*
X020052Y008572D02*
X020780Y008572D01*
X020780Y008868D02*
X020081Y008868D01*
X020122Y008966D02*
X020780Y008966D01*
X020802Y009065D02*
X020163Y009065D01*
X020167Y009163D02*
X024927Y009163D01*
X024927Y009065D02*
X021633Y009065D01*
X021625Y009080D02*
X021597Y009107D01*
X021563Y009127D01*
X021525Y009137D01*
X021246Y009137D01*
X021246Y008729D01*
X021655Y008729D01*
X021655Y009007D01*
X021645Y009045D01*
X021625Y009080D01*
X021655Y008966D02*
X024927Y008966D01*
X024927Y008868D02*
X021655Y008868D01*
X021655Y008769D02*
X021853Y008769D01*
X021246Y008769D02*
X021189Y008769D01*
X021189Y008868D02*
X021246Y008868D01*
X021246Y008966D02*
X021189Y008966D01*
X021189Y009065D02*
X021246Y009065D01*
X020167Y009262D02*
X024927Y009262D01*
X024927Y009360D02*
X020152Y009360D01*
X020111Y009459D02*
X024927Y009459D01*
X024927Y009557D02*
X023900Y009557D01*
X024028Y009611D02*
X024307Y009889D01*
X024457Y010253D01*
X024457Y010647D01*
X024307Y011011D01*
X024028Y011289D01*
X023664Y011440D01*
X023271Y011440D01*
X022907Y011289D01*
X022628Y011011D01*
X022477Y010647D01*
X022477Y010253D01*
X022628Y009889D01*
X022907Y009611D01*
X023271Y009460D01*
X023664Y009460D01*
X024028Y009611D01*
X024074Y009656D02*
X024927Y009656D01*
X024927Y009754D02*
X024172Y009754D01*
X024271Y009853D02*
X024927Y009853D01*
X024927Y009951D02*
X024333Y009951D01*
X024373Y010050D02*
X024927Y010050D01*
X024927Y010148D02*
X024414Y010148D01*
X024455Y010247D02*
X024927Y010247D01*
X024927Y010345D02*
X024457Y010345D01*
X024457Y010444D02*
X024927Y010444D01*
X024927Y010542D02*
X024457Y010542D01*
X024457Y010641D02*
X024927Y010641D01*
X024927Y010739D02*
X024419Y010739D01*
X024378Y010838D02*
X024927Y010838D01*
X024927Y010936D02*
X024337Y010936D01*
X024282Y011035D02*
X024927Y011035D01*
X024927Y011133D02*
X024184Y011133D01*
X024085Y011232D02*
X024927Y011232D01*
X024927Y011330D02*
X023929Y011330D01*
X023827Y011527D02*
X024927Y011527D01*
X024927Y011429D02*
X023691Y011429D01*
X023244Y011429D02*
X019797Y011429D01*
X019797Y011527D02*
X023107Y011527D01*
X023006Y011330D02*
X019797Y011330D01*
X019797Y011295D02*
X019797Y012105D01*
X019709Y012319D01*
X019546Y012482D01*
X019333Y012570D01*
X019102Y012570D01*
X018889Y012482D01*
X018726Y012319D01*
X018717Y012298D01*
X018709Y012319D01*
X018546Y012482D01*
X018333Y012570D01*
X018102Y012570D01*
X017889Y012482D01*
X017726Y012319D01*
X017637Y012105D01*
X017637Y011295D01*
X017726Y011081D01*
X017889Y010918D01*
X018102Y010830D01*
X018333Y010830D01*
X018546Y010918D01*
X018709Y011081D01*
X018717Y011101D01*
X018726Y011081D01*
X018889Y010918D01*
X019102Y010830D01*
X019333Y010830D01*
X019546Y010918D01*
X019709Y011081D01*
X019797Y011295D01*
X019772Y011232D02*
X022849Y011232D01*
X022751Y011133D02*
X019731Y011133D01*
X019663Y011035D02*
X022652Y011035D01*
X022597Y010936D02*
X019564Y010936D01*
X019352Y010838D02*
X022557Y010838D01*
X022516Y010739D02*
X009297Y010739D01*
X009297Y010641D02*
X018696Y010641D01*
X018703Y010645D02*
X018636Y010610D01*
X018575Y010566D01*
X018521Y010513D01*
X018477Y010452D01*
X018443Y010384D01*
X018419Y010312D01*
X018409Y010250D01*
X019167Y010250D01*
X019167Y010680D01*
X018850Y010680D01*
X018775Y010668D01*
X018703Y010645D01*
X018551Y010542D02*
X009297Y010542D01*
X009297Y010460D02*
X009297Y010940D01*
X008958Y011280D01*
X008920Y011280D01*
X009157Y011518D01*
X009157Y011670D01*
X008747Y011670D01*
X008747Y011730D01*
X008687Y011730D01*
X008687Y011670D01*
X008277Y011670D01*
X008277Y011518D01*
X008515Y011280D01*
X008477Y011280D01*
X008137Y010940D01*
X008137Y010460D01*
X008477Y010120D01*
X008958Y010120D01*
X009297Y010460D01*
X009282Y010444D02*
X018473Y010444D01*
X018430Y010345D02*
X009183Y010345D01*
X009085Y010247D02*
X010444Y010247D01*
X010477Y010280D02*
X010137Y009940D01*
X010137Y009460D01*
X010477Y009120D01*
X010958Y009120D01*
X011217Y009380D01*
X011477Y009120D01*
X011958Y009120D01*
X012217Y009380D01*
X012477Y009120D01*
X012958Y009120D01*
X013217Y009380D01*
X013477Y009120D01*
X013958Y009120D01*
X014297Y009460D01*
X014297Y009940D01*
X013958Y010280D01*
X013477Y010280D01*
X013217Y010020D01*
X012958Y010280D01*
X012477Y010280D01*
X012217Y010020D01*
X011958Y010280D01*
X011477Y010280D01*
X011217Y010020D01*
X010958Y010280D01*
X010477Y010280D01*
X010346Y010148D02*
X008986Y010148D01*
X008449Y010148D02*
X005916Y010148D01*
X005962Y010103D02*
X005754Y010311D01*
X005482Y010423D01*
X005188Y010423D01*
X004916Y010311D01*
X004707Y010103D01*
X004595Y009831D01*
X004595Y009536D01*
X004707Y009264D01*
X004916Y009056D01*
X005188Y008943D01*
X005482Y008943D01*
X005665Y009019D01*
X005587Y008831D01*
X005587Y008536D01*
X005700Y008264D01*
X005908Y008056D01*
X006180Y007943D01*
X006474Y007943D01*
X006746Y008056D01*
X006954Y008264D01*
X007067Y008536D01*
X007067Y008831D01*
X006954Y009103D01*
X006746Y009311D01*
X006474Y009423D01*
X006180Y009423D01*
X005997Y009348D01*
X006075Y009536D01*
X006075Y009831D01*
X005962Y010103D01*
X005984Y010050D02*
X010247Y010050D01*
X010149Y009951D02*
X006025Y009951D01*
X006065Y009853D02*
X010137Y009853D01*
X010137Y009754D02*
X006075Y009754D01*
X006075Y009656D02*
X010137Y009656D01*
X010137Y009557D02*
X006075Y009557D01*
X006043Y009459D02*
X010138Y009459D01*
X010237Y009360D02*
X006626Y009360D01*
X006795Y009262D02*
X008082Y009262D01*
X008026Y009239D02*
X007863Y009076D01*
X007775Y008863D01*
X007775Y008632D01*
X007863Y008419D01*
X008026Y008256D01*
X008037Y008252D01*
X007915Y008130D01*
X007915Y007977D01*
X008325Y007977D01*
X008325Y007917D01*
X008385Y007917D01*
X008385Y007507D01*
X008537Y007507D01*
X008795Y007765D01*
X008795Y007917D01*
X008385Y007917D01*
X008385Y007977D01*
X008795Y007977D01*
X008795Y008130D01*
X008673Y008252D01*
X008684Y008256D01*
X008847Y008419D01*
X008935Y008632D01*
X008935Y008863D01*
X008847Y009076D01*
X008684Y009239D01*
X008470Y009327D01*
X008240Y009327D01*
X008026Y009239D01*
X007951Y009163D02*
X006893Y009163D01*
X006970Y009065D02*
X007859Y009065D01*
X007818Y008966D02*
X007011Y008966D01*
X007051Y008868D02*
X007777Y008868D01*
X007775Y008769D02*
X007067Y008769D01*
X007067Y008671D02*
X007775Y008671D01*
X007800Y008572D02*
X007067Y008572D01*
X007041Y008474D02*
X007840Y008474D01*
X007907Y008375D02*
X007000Y008375D01*
X006960Y008277D02*
X008005Y008277D01*
X007964Y008178D02*
X006868Y008178D01*
X006770Y008080D02*
X007915Y008080D01*
X007915Y007981D02*
X006566Y007981D01*
X006088Y007981D02*
X005145Y007981D01*
X005145Y007883D02*
X007915Y007883D01*
X007915Y007917D02*
X007915Y007765D01*
X008173Y007507D01*
X008325Y007507D01*
X008325Y007917D01*
X007915Y007917D01*
X007915Y007784D02*
X005139Y007784D01*
X005145Y007791D02*
X005145Y008286D01*
X004796Y008636D01*
X004301Y008636D01*
X004056Y008391D01*
X003811Y008636D01*
X003317Y008636D01*
X002967Y008286D01*
X002967Y007791D01*
X003133Y007625D01*
X002967Y007459D01*
X002967Y006964D01*
X003231Y006700D01*
X002967Y006436D01*
X002967Y005941D01*
X003232Y005676D01*
X003107Y005551D01*
X003107Y005400D01*
X003525Y005400D01*
X003525Y005323D01*
X003107Y005323D01*
X003107Y005172D01*
X003375Y004904D01*
X003525Y004904D01*
X003525Y005323D01*
X003602Y005323D01*
X003602Y004904D01*
X003753Y004904D01*
X003847Y004998D01*
X003847Y002626D01*
X003897Y002506D01*
X003897Y002327D01*
X003942Y002221D01*
X004023Y002139D01*
X004130Y002095D01*
X004705Y002095D01*
X004717Y002100D01*
X004730Y002095D01*
X005305Y002095D01*
X005412Y002139D01*
X005493Y002221D01*
X005537Y002327D01*
X005537Y002506D01*
X005587Y002626D01*
X005587Y003078D01*
X005754Y003147D01*
X005962Y003355D01*
X006075Y003627D01*
X006075Y003921D01*
X005962Y004193D01*
X005754Y004401D01*
X005482Y004514D01*
X005188Y004514D01*
X004916Y004401D01*
X004707Y004193D01*
X004595Y003921D01*
X004595Y003627D01*
X004707Y003355D01*
X004757Y003305D01*
X004730Y003305D01*
X004717Y003300D01*
X004705Y003305D01*
X004587Y003305D01*
X004587Y004764D01*
X004796Y004764D01*
X005145Y005114D01*
X005145Y005609D01*
X004796Y005959D01*
X004301Y005959D01*
X003957Y005615D01*
X003896Y005676D01*
X004161Y005941D01*
X004161Y006436D01*
X003897Y006700D01*
X004161Y006964D01*
X004161Y007459D01*
X003995Y007625D01*
X004056Y007686D01*
X004056Y007686D01*
X004301Y007441D01*
X004796Y007441D01*
X005145Y007791D01*
X005040Y007686D02*
X007994Y007686D01*
X008093Y007587D02*
X004942Y007587D01*
X004843Y007489D02*
X005970Y007489D01*
X005938Y007476D02*
X005857Y007394D01*
X005814Y007290D01*
X005758Y007346D01*
X005486Y007459D01*
X005192Y007459D01*
X004920Y007346D01*
X004711Y007138D01*
X004599Y006866D01*
X004599Y006572D01*
X004711Y006300D01*
X004920Y006092D01*
X005192Y005979D01*
X005486Y005979D01*
X005758Y006092D01*
X005812Y006146D01*
X005812Y006112D01*
X005857Y006006D01*
X005938Y005924D01*
X006045Y005880D01*
X006264Y005880D01*
X006654Y005490D01*
X006758Y005386D01*
X006894Y005330D01*
X007040Y005330D01*
X007090Y005210D01*
X007241Y005058D01*
X007439Y004976D01*
X007653Y004976D01*
X007851Y005058D01*
X008002Y005210D01*
X008084Y005407D01*
X008084Y006118D01*
X008002Y006315D01*
X007851Y006467D01*
X007653Y006549D01*
X007439Y006549D01*
X007241Y006467D01*
X007090Y006315D01*
X007027Y006164D01*
X007022Y006168D01*
X007022Y006688D01*
X007017Y006700D01*
X007022Y006712D01*
X007022Y007288D01*
X006978Y007394D01*
X006897Y007476D01*
X006790Y007520D01*
X006045Y007520D01*
X005938Y007476D01*
X005855Y007390D02*
X005651Y007390D01*
X005812Y007292D02*
X005814Y007292D01*
X005026Y007390D02*
X004161Y007390D01*
X004161Y007292D02*
X004865Y007292D01*
X004767Y007193D02*
X004161Y007193D01*
X004161Y007095D02*
X004694Y007095D01*
X004653Y006996D02*
X004161Y006996D01*
X004095Y006898D02*
X004612Y006898D01*
X004599Y006799D02*
X003996Y006799D01*
X003898Y006701D02*
X004599Y006701D01*
X004599Y006602D02*
X003994Y006602D01*
X004093Y006504D02*
X004627Y006504D01*
X004668Y006405D02*
X004161Y006405D01*
X004161Y006307D02*
X004708Y006307D01*
X004803Y006208D02*
X004161Y006208D01*
X004161Y006110D02*
X004901Y006110D01*
X004841Y005913D02*
X005965Y005913D01*
X005854Y006011D02*
X005565Y006011D01*
X005776Y006110D02*
X005813Y006110D01*
X006330Y005814D02*
X004940Y005814D01*
X005038Y005716D02*
X006428Y005716D01*
X006527Y005617D02*
X005137Y005617D01*
X005145Y005519D02*
X006625Y005519D01*
X006724Y005420D02*
X005145Y005420D01*
X005145Y005322D02*
X006161Y005322D01*
X006190Y005332D02*
X006101Y005302D01*
X006016Y005260D01*
X005940Y005204D01*
X005873Y005137D01*
X005818Y005061D01*
X005775Y004977D01*
X005746Y004887D01*
X005731Y004796D01*
X006281Y004796D01*
X006281Y004696D01*
X006381Y004696D01*
X006381Y004147D01*
X006471Y004161D01*
X006561Y004190D01*
X006645Y004233D01*
X006722Y004289D01*
X006788Y004356D01*
X006844Y004432D01*
X006887Y004516D01*
X006916Y004606D01*
X006930Y004696D01*
X006381Y004696D01*
X006381Y004796D01*
X006930Y004796D01*
X006916Y004887D01*
X006887Y004977D01*
X006844Y005061D01*
X006788Y005137D01*
X006722Y005204D01*
X006645Y005260D01*
X006561Y005302D01*
X006471Y005332D01*
X006381Y005346D01*
X006381Y004796D01*
X006281Y004796D01*
X006281Y005346D01*
X006190Y005332D01*
X006281Y005322D02*
X006381Y005322D01*
X006381Y005223D02*
X006281Y005223D01*
X006281Y005125D02*
X006381Y005125D01*
X006381Y005026D02*
X006281Y005026D01*
X006281Y004928D02*
X006381Y004928D01*
X006381Y004829D02*
X006281Y004829D01*
X006281Y004731D02*
X004587Y004731D01*
X004587Y004632D02*
X005741Y004632D01*
X005746Y004606D02*
X005775Y004516D01*
X005818Y004432D01*
X005873Y004356D01*
X005940Y004289D01*
X006016Y004233D01*
X006101Y004190D01*
X006190Y004161D01*
X006281Y004147D01*
X006281Y004696D01*
X005731Y004696D01*
X005746Y004606D01*
X005769Y004534D02*
X004587Y004534D01*
X004587Y004435D02*
X004998Y004435D01*
X004851Y004337D02*
X004587Y004337D01*
X004587Y004238D02*
X004753Y004238D01*
X004685Y004140D02*
X004587Y004140D01*
X004587Y004041D02*
X004645Y004041D01*
X004604Y003943D02*
X004587Y003943D01*
X004587Y003844D02*
X004595Y003844D01*
X004587Y003746D02*
X004595Y003746D01*
X004587Y003647D02*
X004595Y003647D01*
X004587Y003549D02*
X004627Y003549D01*
X004587Y003450D02*
X004668Y003450D01*
X004710Y003352D02*
X004587Y003352D01*
X003847Y003352D02*
X002985Y003352D01*
X002910Y003277D02*
X003170Y003537D01*
X003311Y003876D01*
X003311Y004244D01*
X003170Y004583D01*
X002910Y004843D01*
X002571Y004983D01*
X002204Y004983D01*
X002121Y004949D01*
X002032Y005163D01*
X001961Y005233D01*
X002032Y005304D01*
X002145Y005576D01*
X002145Y005777D01*
X002241Y005777D01*
X002580Y005917D01*
X002840Y006177D01*
X002981Y006516D01*
X002981Y006884D01*
X002840Y007223D01*
X002580Y007483D01*
X002241Y007623D01*
X002145Y007623D01*
X002145Y007851D01*
X002032Y008123D01*
X001961Y008193D01*
X002032Y008264D01*
X002111Y008455D01*
X002204Y008417D01*
X002571Y008417D01*
X002910Y008557D01*
X003170Y008817D01*
X003311Y009156D01*
X003311Y009524D01*
X003170Y009863D01*
X002910Y010123D01*
X002571Y010263D01*
X002204Y010263D01*
X001865Y010123D01*
X001605Y009863D01*
X001464Y009524D01*
X001464Y009423D01*
X001258Y009423D01*
X000986Y009311D01*
X000777Y009103D01*
X000665Y008831D01*
X000665Y008536D01*
X000777Y008264D01*
X000848Y008193D01*
X000777Y008123D01*
X000665Y007851D01*
X000665Y007556D01*
X000777Y007284D01*
X000986Y007076D01*
X001181Y006995D01*
X001134Y006884D01*
X001134Y006516D01*
X001171Y006428D01*
X000986Y006351D01*
X000777Y006143D01*
X000665Y005871D01*
X000665Y005576D01*
X000777Y005304D01*
X000848Y005233D01*
X000777Y005163D01*
X000665Y004891D01*
X000665Y004596D01*
X000777Y004324D01*
X000986Y004116D01*
X001258Y004003D01*
X001464Y004003D01*
X001464Y003876D01*
X001605Y003537D01*
X001865Y003277D01*
X002204Y003137D01*
X002571Y003137D01*
X002910Y003277D01*
X002852Y003253D02*
X003847Y003253D01*
X003847Y003155D02*
X002615Y003155D01*
X002160Y003155D02*
X000507Y003155D01*
X000507Y003253D02*
X001922Y003253D01*
X001790Y003352D02*
X000507Y003352D01*
X000507Y003450D02*
X001692Y003450D01*
X001600Y003549D02*
X000507Y003549D01*
X000507Y003647D02*
X001559Y003647D01*
X001518Y003746D02*
X000507Y003746D01*
X000507Y003844D02*
X001478Y003844D01*
X001464Y003943D02*
X000507Y003943D01*
X000507Y004041D02*
X001166Y004041D01*
X000962Y004140D02*
X000507Y004140D01*
X000507Y004238D02*
X000863Y004238D01*
X000772Y004337D02*
X000507Y004337D01*
X000507Y004435D02*
X000731Y004435D01*
X000691Y004534D02*
X000507Y004534D01*
X000507Y004632D02*
X000665Y004632D01*
X000665Y004731D02*
X000507Y004731D01*
X000507Y004829D02*
X000665Y004829D01*
X000680Y004928D02*
X000507Y004928D01*
X000507Y005026D02*
X000721Y005026D01*
X000762Y005125D02*
X000507Y005125D01*
X000507Y005223D02*
X000838Y005223D01*
X000770Y005322D02*
X000507Y005322D01*
X000507Y005420D02*
X000729Y005420D01*
X000688Y005519D02*
X000507Y005519D01*
X000507Y005617D02*
X000665Y005617D01*
X000665Y005716D02*
X000507Y005716D01*
X000507Y005814D02*
X000665Y005814D01*
X000682Y005913D02*
X000507Y005913D01*
X000507Y006011D02*
X000723Y006011D01*
X000764Y006110D02*
X000507Y006110D01*
X000507Y006208D02*
X000843Y006208D01*
X000942Y006307D02*
X000507Y006307D01*
X000507Y006405D02*
X001118Y006405D01*
X001139Y006504D02*
X000507Y006504D01*
X000507Y006602D02*
X001134Y006602D01*
X001134Y006701D02*
X000507Y006701D01*
X000507Y006799D02*
X001134Y006799D01*
X001140Y006898D02*
X000507Y006898D01*
X000507Y006996D02*
X001178Y006996D01*
X000967Y007095D02*
X000507Y007095D01*
X000507Y007193D02*
X000868Y007193D01*
X000774Y007292D02*
X000507Y007292D01*
X000507Y007390D02*
X000733Y007390D01*
X000693Y007489D02*
X000507Y007489D01*
X000507Y007587D02*
X000665Y007587D01*
X000665Y007686D02*
X000507Y007686D01*
X000507Y007784D02*
X000665Y007784D01*
X000678Y007883D02*
X000507Y007883D01*
X000507Y007981D02*
X000719Y007981D01*
X000760Y008080D02*
X000507Y008080D01*
X000507Y008178D02*
X000833Y008178D01*
X000772Y008277D02*
X000507Y008277D01*
X000507Y008375D02*
X000731Y008375D01*
X000691Y008474D02*
X000507Y008474D01*
X000507Y008572D02*
X000665Y008572D01*
X000665Y008671D02*
X000507Y008671D01*
X000507Y008769D02*
X000665Y008769D01*
X000680Y008868D02*
X000507Y008868D01*
X000507Y008966D02*
X000721Y008966D01*
X000762Y009065D02*
X000507Y009065D01*
X000507Y009163D02*
X000838Y009163D01*
X000937Y009262D02*
X000507Y009262D01*
X000507Y009360D02*
X001106Y009360D01*
X001464Y009459D02*
X000507Y009459D01*
X000507Y009557D02*
X001478Y009557D01*
X001519Y009656D02*
X000507Y009656D01*
X000507Y009754D02*
X001560Y009754D01*
X001601Y009853D02*
X000507Y009853D01*
X000507Y009951D02*
X001694Y009951D01*
X001792Y010050D02*
X000507Y010050D01*
X000507Y010148D02*
X001927Y010148D01*
X002165Y010247D02*
X000507Y010247D01*
X000507Y010345D02*
X004999Y010345D01*
X004852Y010247D02*
X002610Y010247D01*
X002848Y010148D02*
X004753Y010148D01*
X004686Y010050D02*
X002983Y010050D01*
X003081Y009951D02*
X004645Y009951D01*
X004604Y009853D02*
X003174Y009853D01*
X003215Y009754D02*
X004595Y009754D01*
X004595Y009656D02*
X003256Y009656D01*
X003296Y009557D02*
X004595Y009557D01*
X004627Y009459D02*
X003311Y009459D01*
X003311Y009360D02*
X004668Y009360D01*
X004710Y009262D02*
X003311Y009262D01*
X003311Y009163D02*
X004808Y009163D01*
X004907Y009065D02*
X003273Y009065D01*
X003232Y008966D02*
X005132Y008966D01*
X005538Y008966D02*
X005643Y008966D01*
X005602Y008868D02*
X003191Y008868D01*
X003122Y008769D02*
X005587Y008769D01*
X005587Y008671D02*
X003024Y008671D01*
X002925Y008572D02*
X003253Y008572D01*
X003155Y008474D02*
X002709Y008474D01*
X003056Y008375D02*
X002078Y008375D01*
X002037Y008277D02*
X002967Y008277D01*
X002967Y008178D02*
X001976Y008178D01*
X002050Y008080D02*
X002967Y008080D01*
X002967Y007981D02*
X002091Y007981D01*
X002131Y007883D02*
X002967Y007883D01*
X002973Y007784D02*
X002145Y007784D01*
X002145Y007686D02*
X003072Y007686D01*
X003095Y007587D02*
X002327Y007587D01*
X002565Y007489D02*
X002997Y007489D01*
X002967Y007390D02*
X002672Y007390D01*
X002771Y007292D02*
X002967Y007292D01*
X002967Y007193D02*
X002852Y007193D01*
X002893Y007095D02*
X002967Y007095D01*
X002967Y006996D02*
X002934Y006996D01*
X002975Y006898D02*
X003033Y006898D01*
X002981Y006799D02*
X003132Y006799D01*
X003230Y006701D02*
X002981Y006701D01*
X002981Y006602D02*
X003134Y006602D01*
X003035Y006504D02*
X002975Y006504D01*
X002967Y006405D02*
X002935Y006405D01*
X002967Y006307D02*
X002894Y006307D01*
X002853Y006208D02*
X002967Y006208D01*
X002967Y006110D02*
X002773Y006110D01*
X002674Y006011D02*
X002967Y006011D01*
X002995Y005913D02*
X002570Y005913D01*
X002332Y005814D02*
X003093Y005814D01*
X003192Y005716D02*
X002145Y005716D01*
X002145Y005617D02*
X003173Y005617D01*
X003107Y005519D02*
X002121Y005519D01*
X002080Y005420D02*
X003107Y005420D01*
X003107Y005322D02*
X002039Y005322D01*
X001971Y005223D02*
X003107Y005223D01*
X003154Y005125D02*
X002048Y005125D01*
X002088Y005026D02*
X003252Y005026D01*
X003351Y004928D02*
X002704Y004928D01*
X002923Y004829D02*
X003847Y004829D01*
X003847Y004731D02*
X003022Y004731D01*
X003120Y004632D02*
X003847Y004632D01*
X003847Y004534D02*
X003190Y004534D01*
X003231Y004435D02*
X003847Y004435D01*
X003847Y004337D02*
X003272Y004337D01*
X003311Y004238D02*
X003847Y004238D01*
X003847Y004140D02*
X003311Y004140D01*
X003311Y004041D02*
X003847Y004041D01*
X003847Y003943D02*
X003311Y003943D01*
X003297Y003844D02*
X003847Y003844D01*
X003847Y003746D02*
X003257Y003746D01*
X003216Y003647D02*
X003847Y003647D01*
X003847Y003549D02*
X003175Y003549D01*
X003083Y003450D02*
X003847Y003450D01*
X003847Y003056D02*
X000507Y003056D01*
X000507Y002958D02*
X003847Y002958D01*
X003847Y002859D02*
X000507Y002859D01*
X000507Y002761D02*
X003847Y002761D01*
X003847Y002662D02*
X000507Y002662D01*
X000507Y002564D02*
X003873Y002564D01*
X003897Y002465D02*
X000507Y002465D01*
X000507Y002367D02*
X003897Y002367D01*
X003922Y002268D02*
X000507Y002268D01*
X000507Y002170D02*
X003992Y002170D01*
X005443Y002170D02*
X008724Y002170D01*
X008626Y002268D02*
X005513Y002268D01*
X005537Y002367D02*
X008527Y002367D01*
X008429Y002465D02*
X005537Y002465D01*
X005562Y002564D02*
X008330Y002564D01*
X008232Y002662D02*
X005587Y002662D01*
X005587Y002761D02*
X008145Y002761D01*
X008104Y002859D02*
X005587Y002859D01*
X005587Y002958D02*
X008097Y002958D01*
X008097Y003056D02*
X007696Y003056D01*
X007653Y003039D02*
X007850Y003121D01*
X008002Y003272D01*
X008084Y003470D01*
X008084Y004180D01*
X008002Y004378D01*
X007850Y004529D01*
X007653Y004611D01*
X007439Y004611D01*
X007241Y004529D01*
X007089Y004378D01*
X007008Y004180D01*
X007008Y003470D01*
X007089Y003272D01*
X007241Y003121D01*
X007439Y003039D01*
X007653Y003039D01*
X007396Y003056D02*
X005587Y003056D01*
X005762Y003155D02*
X007207Y003155D01*
X007108Y003253D02*
X005861Y003253D01*
X005959Y003352D02*
X007056Y003352D01*
X007016Y003450D02*
X006002Y003450D01*
X006043Y003549D02*
X007008Y003549D01*
X007008Y003647D02*
X006075Y003647D01*
X006075Y003746D02*
X007008Y003746D01*
X007008Y003844D02*
X006075Y003844D01*
X006066Y003943D02*
X007008Y003943D01*
X007008Y004041D02*
X006025Y004041D01*
X005984Y004140D02*
X007008Y004140D01*
X007032Y004238D02*
X006652Y004238D01*
X006770Y004337D02*
X007073Y004337D01*
X007147Y004435D02*
X006846Y004435D01*
X006893Y004534D02*
X007252Y004534D01*
X006920Y004632D02*
X008097Y004632D01*
X008097Y004534D02*
X007839Y004534D01*
X007944Y004435D02*
X008097Y004435D01*
X008097Y004337D02*
X008019Y004337D01*
X008060Y004238D02*
X008097Y004238D01*
X008084Y004140D02*
X008097Y004140D01*
X008084Y004041D02*
X008097Y004041D01*
X008084Y003943D02*
X008097Y003943D01*
X008084Y003844D02*
X008097Y003844D01*
X008084Y003746D02*
X008097Y003746D01*
X008084Y003647D02*
X008097Y003647D01*
X008084Y003549D02*
X008097Y003549D01*
X008097Y003450D02*
X008076Y003450D01*
X008097Y003352D02*
X008035Y003352D01*
X007983Y003253D02*
X008097Y003253D01*
X008097Y003155D02*
X007885Y003155D01*
X008837Y003155D02*
X009175Y003155D01*
X009209Y003121D02*
X009058Y003272D01*
X008976Y003470D01*
X008976Y004180D01*
X009058Y004378D01*
X009209Y004529D01*
X009407Y004611D01*
X009621Y004611D01*
X009819Y004529D01*
X009970Y004378D01*
X010052Y004180D01*
X010052Y003470D01*
X009970Y003272D01*
X009819Y003121D01*
X009621Y003039D01*
X009407Y003039D01*
X009209Y003121D01*
X009364Y003056D02*
X008884Y003056D01*
X008983Y002958D02*
X010936Y002958D01*
X010838Y003056D02*
X009664Y003056D01*
X009853Y003155D02*
X010739Y003155D01*
X010641Y003253D02*
X009952Y003253D01*
X010003Y003352D02*
X010542Y003352D01*
X010444Y003450D02*
X010044Y003450D01*
X010052Y003549D02*
X010345Y003549D01*
X010247Y003647D02*
X010052Y003647D01*
X010052Y003746D02*
X010151Y003746D01*
X010111Y003844D02*
X010052Y003844D01*
X010052Y003943D02*
X010097Y003943D01*
X010097Y004041D02*
X010052Y004041D01*
X010052Y004140D02*
X010097Y004140D01*
X010097Y004238D02*
X010028Y004238D01*
X009987Y004337D02*
X010097Y004337D01*
X010097Y004435D02*
X009913Y004435D01*
X009808Y004534D02*
X010097Y004534D01*
X010097Y004632D02*
X008837Y004632D01*
X008837Y004534D02*
X009221Y004534D01*
X009116Y004435D02*
X008837Y004435D01*
X008837Y004337D02*
X009041Y004337D01*
X009000Y004238D02*
X008837Y004238D01*
X008837Y004140D02*
X008976Y004140D01*
X008976Y004041D02*
X008837Y004041D01*
X008837Y003943D02*
X008976Y003943D01*
X008976Y003844D02*
X008837Y003844D01*
X008837Y003746D02*
X008976Y003746D01*
X008976Y003647D02*
X008837Y003647D01*
X008837Y003549D02*
X008976Y003549D01*
X008984Y003450D02*
X008837Y003450D01*
X008837Y003352D02*
X009025Y003352D01*
X009077Y003253D02*
X008837Y003253D01*
X009081Y002859D02*
X011073Y002859D01*
X011104Y002071D02*
X011581Y002071D01*
X011483Y001973D02*
X011202Y001973D01*
X011301Y001874D02*
X011384Y001874D01*
X010456Y002071D02*
X010104Y002071D01*
X010202Y001973D02*
X010358Y001973D01*
X009771Y002170D02*
X018867Y002170D01*
X018769Y002071D02*
X018468Y002071D01*
X018567Y001973D02*
X018670Y001973D01*
X018966Y002268D02*
X009672Y002268D01*
X009020Y001874D02*
X001837Y001874D01*
X001935Y001776D02*
X009118Y001776D01*
X009200Y001677D02*
X002010Y001677D01*
X002051Y001579D02*
X009200Y001579D01*
X008921Y001973D02*
X001738Y001973D01*
X001504Y002071D02*
X008823Y002071D01*
X009180Y002761D02*
X018692Y002761D01*
X018549Y002859D02*
X013362Y002859D01*
X013499Y002958D02*
X018472Y002958D01*
X018429Y003056D02*
X013597Y003056D01*
X013142Y003647D02*
X011293Y003647D01*
X011375Y003746D02*
X011435Y003746D01*
X011435Y003710D02*
X011608Y003710D01*
X011895Y003997D01*
X011895Y004170D01*
X011435Y004170D01*
X011435Y003710D01*
X011435Y003844D02*
X011375Y003844D01*
X011375Y003943D02*
X011435Y003943D01*
X011435Y004041D02*
X011375Y004041D01*
X011375Y004140D02*
X011435Y004140D01*
X011375Y004170D02*
X010915Y004170D01*
X010915Y004026D01*
X010837Y004103D01*
X010837Y004877D01*
X011113Y004601D01*
X010915Y004403D01*
X010915Y004230D01*
X011375Y004230D01*
X011375Y004170D01*
X010915Y004140D02*
X010837Y004140D01*
X010837Y004238D02*
X010915Y004238D01*
X010915Y004337D02*
X010837Y004337D01*
X010837Y004435D02*
X010947Y004435D01*
X011046Y004534D02*
X010837Y004534D01*
X010837Y004632D02*
X011081Y004632D01*
X010983Y004731D02*
X010837Y004731D01*
X010837Y004829D02*
X010884Y004829D01*
X010097Y004829D02*
X008837Y004829D01*
X008837Y004731D02*
X010097Y004731D01*
X010097Y004928D02*
X008837Y004928D01*
X008837Y005026D02*
X009286Y005026D01*
X009143Y005125D02*
X008837Y005125D01*
X008837Y005223D02*
X009052Y005223D01*
X009011Y005322D02*
X008837Y005322D01*
X008837Y005420D02*
X008976Y005420D01*
X008976Y005519D02*
X008837Y005519D01*
X008837Y005617D02*
X008976Y005617D01*
X008976Y005716D02*
X008837Y005716D01*
X008837Y005814D02*
X008976Y005814D01*
X008976Y005913D02*
X008837Y005913D01*
X008837Y006011D02*
X008976Y006011D01*
X008976Y006110D02*
X008837Y006110D01*
X008837Y006208D02*
X009014Y006208D01*
X009055Y006307D02*
X008837Y006307D01*
X008837Y006405D02*
X009148Y006405D01*
X009299Y006504D02*
X008837Y006504D01*
X008097Y006504D02*
X007761Y006504D01*
X007912Y006405D02*
X008097Y006405D01*
X008097Y006307D02*
X008005Y006307D01*
X008046Y006208D02*
X008097Y006208D01*
X008084Y006110D02*
X008097Y006110D01*
X008084Y006011D02*
X008097Y006011D01*
X008084Y005913D02*
X008097Y005913D01*
X008084Y005814D02*
X008097Y005814D01*
X008084Y005716D02*
X008097Y005716D01*
X008084Y005617D02*
X008097Y005617D01*
X008084Y005519D02*
X008097Y005519D01*
X008084Y005420D02*
X008097Y005420D01*
X008097Y005322D02*
X008048Y005322D01*
X008008Y005223D02*
X008097Y005223D01*
X008097Y005125D02*
X007917Y005125D01*
X007774Y005026D02*
X008097Y005026D01*
X008097Y004928D02*
X006903Y004928D01*
X006925Y004829D02*
X008097Y004829D01*
X008097Y004731D02*
X006381Y004731D01*
X006381Y004632D02*
X006281Y004632D01*
X006281Y004534D02*
X006381Y004534D01*
X006381Y004435D02*
X006281Y004435D01*
X006281Y004337D02*
X006381Y004337D01*
X006381Y004238D02*
X006281Y004238D01*
X006009Y004238D02*
X005917Y004238D01*
X005892Y004337D02*
X005818Y004337D01*
X005816Y004435D02*
X005671Y004435D01*
X005737Y004829D02*
X004861Y004829D01*
X004959Y004928D02*
X005759Y004928D01*
X005800Y005026D02*
X005058Y005026D01*
X005145Y005125D02*
X005864Y005125D01*
X005967Y005223D02*
X005145Y005223D01*
X004157Y005814D02*
X004035Y005814D01*
X004058Y005716D02*
X003936Y005716D01*
X003954Y005617D02*
X003960Y005617D01*
X004133Y005913D02*
X004255Y005913D01*
X004161Y006011D02*
X005113Y006011D01*
X006501Y005322D02*
X007043Y005322D01*
X007084Y005223D02*
X006695Y005223D01*
X006797Y005125D02*
X007174Y005125D01*
X007317Y005026D02*
X006862Y005026D01*
X007022Y006208D02*
X007045Y006208D01*
X007022Y006307D02*
X007086Y006307D01*
X007022Y006405D02*
X007180Y006405D01*
X007331Y006504D02*
X007022Y006504D01*
X007022Y006602D02*
X008097Y006602D01*
X008097Y006701D02*
X007018Y006701D01*
X007022Y006799D02*
X008097Y006799D01*
X008097Y006898D02*
X007022Y006898D01*
X007022Y006996D02*
X008097Y006996D01*
X008127Y007095D02*
X007022Y007095D01*
X007022Y007193D02*
X008188Y007193D01*
X008326Y007292D02*
X007021Y007292D01*
X006980Y007390D02*
X010775Y007390D01*
X010803Y007489D02*
X006865Y007489D01*
X005884Y008080D02*
X005145Y008080D01*
X005145Y008178D02*
X005785Y008178D01*
X005694Y008277D02*
X005145Y008277D01*
X005056Y008375D02*
X005653Y008375D01*
X005613Y008474D02*
X004957Y008474D01*
X004859Y008572D02*
X005587Y008572D01*
X004238Y008572D02*
X003874Y008572D01*
X003973Y008474D02*
X004139Y008474D01*
X004155Y007587D02*
X004033Y007587D01*
X004131Y007489D02*
X004253Y007489D01*
X006002Y009360D02*
X006028Y009360D01*
X005818Y010247D02*
X008350Y010247D01*
X008252Y010345D02*
X005670Y010345D01*
X004900Y011260D02*
X005157Y011518D01*
X005157Y011670D01*
X004747Y011670D01*
X004747Y011260D01*
X004900Y011260D01*
X004970Y011330D02*
X008465Y011330D01*
X008429Y011232D02*
X004070Y011232D01*
X004168Y011330D02*
X004465Y011330D01*
X004535Y011260D02*
X004297Y011498D01*
X004297Y011460D01*
X003958Y011120D01*
X003477Y011120D01*
X003137Y011460D01*
X003137Y011940D01*
X003477Y012280D01*
X003958Y012280D01*
X004297Y011940D01*
X004297Y011902D01*
X004535Y012140D01*
X004687Y012140D01*
X004687Y011730D01*
X004747Y011730D01*
X004747Y012140D01*
X004900Y012140D01*
X005157Y011882D01*
X005157Y011730D01*
X004747Y011730D01*
X004747Y011670D01*
X004687Y011670D01*
X004687Y011260D01*
X004535Y011260D01*
X004687Y011330D02*
X004747Y011330D01*
X004747Y011429D02*
X004687Y011429D01*
X004687Y011527D02*
X004747Y011527D01*
X004747Y011626D02*
X004687Y011626D01*
X004747Y011724D02*
X008687Y011724D01*
X008687Y011730D02*
X008277Y011730D01*
X008277Y011882D01*
X008535Y012140D01*
X008687Y012140D01*
X008687Y011730D01*
X008747Y011730D02*
X008747Y012140D01*
X008900Y012140D01*
X009157Y011882D01*
X009157Y011730D01*
X008747Y011730D01*
X008747Y011724D02*
X014637Y011724D01*
X014637Y011626D02*
X009157Y011626D01*
X009157Y011527D02*
X014637Y011527D01*
X014637Y011429D02*
X009069Y011429D01*
X008970Y011330D02*
X014637Y011330D01*
X014637Y011295D02*
X014726Y011081D01*
X014889Y010918D01*
X015102Y010830D01*
X015333Y010830D01*
X015546Y010918D01*
X015709Y011081D01*
X015717Y011101D01*
X015726Y011081D01*
X015889Y010918D01*
X016102Y010830D01*
X016333Y010830D01*
X016546Y010918D01*
X016709Y011081D01*
X016797Y011295D01*
X016797Y012105D01*
X016709Y012319D01*
X016546Y012482D01*
X016333Y012570D01*
X016102Y012570D01*
X015889Y012482D01*
X015726Y012319D01*
X015717Y012298D01*
X015709Y012319D01*
X015546Y012482D01*
X015333Y012570D01*
X015102Y012570D01*
X014889Y012482D01*
X014726Y012319D01*
X014637Y012105D01*
X014637Y011295D01*
X014663Y011232D02*
X009006Y011232D01*
X009104Y011133D02*
X014704Y011133D01*
X014772Y011035D02*
X009203Y011035D01*
X009297Y010936D02*
X014871Y010936D01*
X015083Y010838D02*
X009297Y010838D01*
X008331Y011133D02*
X003971Y011133D01*
X004267Y011429D02*
X004366Y011429D01*
X004687Y011823D02*
X004747Y011823D01*
X004747Y011921D02*
X004687Y011921D01*
X004687Y012020D02*
X004747Y012020D01*
X004747Y012118D02*
X004687Y012118D01*
X004514Y012118D02*
X004119Y012118D01*
X004218Y012020D02*
X004415Y012020D01*
X004317Y011921D02*
X004297Y011921D01*
X004021Y012217D02*
X010380Y012217D01*
X010477Y012120D02*
X010137Y012460D01*
X010137Y012940D01*
X010477Y013280D01*
X010958Y013280D01*
X011217Y013020D01*
X011477Y013280D01*
X011958Y013280D01*
X012217Y013020D01*
X012477Y013280D01*
X012958Y013280D01*
X013217Y013020D01*
X013477Y013280D01*
X013958Y013280D01*
X014297Y012940D01*
X014297Y012460D01*
X013958Y012120D01*
X013477Y012120D01*
X013217Y012380D01*
X012958Y012120D01*
X012477Y012120D01*
X012217Y012380D01*
X011958Y012120D01*
X011477Y012120D01*
X011217Y012380D01*
X010958Y012120D01*
X010477Y012120D01*
X010282Y012315D02*
X001473Y012315D01*
X001711Y012414D02*
X010183Y012414D01*
X010137Y012512D02*
X001824Y012512D01*
X001922Y012611D02*
X010137Y012611D01*
X010137Y012709D02*
X002005Y012709D01*
X002045Y012808D02*
X010137Y012808D01*
X010137Y012906D02*
X002086Y012906D01*
X002127Y013005D02*
X010202Y013005D01*
X010301Y013103D02*
X002132Y013103D01*
X002132Y013202D02*
X010399Y013202D01*
X011036Y013202D02*
X011399Y013202D01*
X011301Y013103D02*
X011134Y013103D01*
X012036Y013202D02*
X012399Y013202D01*
X012301Y013103D02*
X012134Y013103D01*
X013036Y013202D02*
X013399Y013202D01*
X013301Y013103D02*
X013134Y013103D01*
X014036Y013202D02*
X019802Y013202D01*
X019802Y013300D02*
X002132Y013300D01*
X002125Y013399D02*
X019809Y013399D01*
X019850Y013497D02*
X002085Y013497D01*
X002044Y013596D02*
X019891Y013596D01*
X019932Y013694D02*
X002003Y013694D01*
X001918Y013793D02*
X020016Y013793D01*
X020115Y013891D02*
X001820Y013891D01*
X000512Y012611D02*
X000507Y012611D01*
X000507Y012512D02*
X000611Y012512D01*
X000507Y012414D02*
X000724Y012414D01*
X000507Y012315D02*
X000962Y012315D01*
X000507Y012217D02*
X003414Y012217D01*
X003316Y012118D02*
X000507Y012118D01*
X000507Y012020D02*
X003217Y012020D01*
X003137Y011921D02*
X000507Y011921D01*
X000507Y011823D02*
X003137Y011823D01*
X003137Y011724D02*
X000507Y011724D01*
X000507Y011626D02*
X003137Y011626D01*
X003137Y011527D02*
X000507Y011527D01*
X000507Y011429D02*
X003168Y011429D01*
X003267Y011330D02*
X000507Y011330D01*
X000507Y011232D02*
X003365Y011232D01*
X003464Y011133D02*
X000507Y011133D01*
X000507Y011035D02*
X008232Y011035D01*
X008137Y010936D02*
X000507Y010936D01*
X000507Y010838D02*
X008137Y010838D01*
X008137Y010739D02*
X000507Y010739D01*
X000507Y010641D02*
X008137Y010641D01*
X008137Y010542D02*
X000507Y010542D01*
X000507Y010444D02*
X008153Y010444D01*
X008366Y011429D02*
X005069Y011429D01*
X005157Y011527D02*
X008277Y011527D01*
X008277Y011626D02*
X005157Y011626D01*
X005157Y011823D02*
X008277Y011823D01*
X008317Y011921D02*
X005118Y011921D01*
X005020Y012020D02*
X008415Y012020D01*
X008514Y012118D02*
X004921Y012118D01*
X008687Y012118D02*
X008747Y012118D01*
X008747Y012020D02*
X008687Y012020D01*
X008687Y011921D02*
X008747Y011921D01*
X008747Y011823D02*
X008687Y011823D01*
X008921Y012118D02*
X014643Y012118D01*
X014637Y012020D02*
X009020Y012020D01*
X009118Y011921D02*
X014637Y011921D01*
X014637Y011823D02*
X009157Y011823D01*
X011055Y012217D02*
X011380Y012217D01*
X011282Y012315D02*
X011153Y012315D01*
X012055Y012217D02*
X012380Y012217D01*
X012282Y012315D02*
X012153Y012315D01*
X013055Y012217D02*
X013380Y012217D01*
X013282Y012315D02*
X013153Y012315D01*
X014055Y012217D02*
X014684Y012217D01*
X014724Y012315D02*
X014153Y012315D01*
X014252Y012414D02*
X014821Y012414D01*
X014963Y012512D02*
X014297Y012512D01*
X014297Y012611D02*
X020012Y012611D01*
X019930Y012709D02*
X014297Y012709D01*
X014297Y012808D02*
X019889Y012808D01*
X019849Y012906D02*
X014297Y012906D01*
X014233Y013005D02*
X019808Y013005D01*
X019802Y013103D02*
X014134Y013103D01*
X015472Y012512D02*
X015963Y012512D01*
X015821Y012414D02*
X015614Y012414D01*
X015710Y012315D02*
X015724Y012315D01*
X016472Y012512D02*
X017963Y012512D01*
X017821Y012414D02*
X016614Y012414D01*
X016710Y012315D02*
X017724Y012315D01*
X017684Y012217D02*
X016751Y012217D01*
X016792Y012118D02*
X017643Y012118D01*
X017637Y012020D02*
X016797Y012020D01*
X016797Y011921D02*
X017637Y011921D01*
X017637Y011823D02*
X016797Y011823D01*
X016797Y011724D02*
X017637Y011724D01*
X017637Y011626D02*
X016797Y011626D01*
X016797Y011527D02*
X017637Y011527D01*
X017637Y011429D02*
X016797Y011429D01*
X016797Y011330D02*
X017637Y011330D01*
X017663Y011232D02*
X016772Y011232D01*
X016731Y011133D02*
X017704Y011133D01*
X017772Y011035D02*
X016663Y011035D01*
X016564Y010936D02*
X017871Y010936D01*
X018083Y010838D02*
X016352Y010838D01*
X016083Y010838D02*
X015352Y010838D01*
X015564Y010936D02*
X015871Y010936D01*
X015772Y011035D02*
X015663Y011035D01*
X013991Y010247D02*
X019167Y010247D01*
X019167Y010345D02*
X019267Y010345D01*
X019267Y010250D02*
X019267Y010680D01*
X019585Y010680D01*
X019660Y010668D01*
X019732Y010645D01*
X019799Y010610D01*
X019860Y010566D01*
X019914Y010513D01*
X019958Y010452D01*
X019992Y010384D01*
X020016Y010312D01*
X020026Y010250D01*
X019267Y010250D01*
X019267Y010247D02*
X022480Y010247D01*
X022477Y010345D02*
X020005Y010345D01*
X019962Y010444D02*
X022477Y010444D01*
X022477Y010542D02*
X019884Y010542D01*
X019739Y010641D02*
X022477Y010641D01*
X022521Y010148D02*
X020025Y010148D01*
X020003Y010050D02*
X022562Y010050D01*
X022602Y009951D02*
X019960Y009951D01*
X019879Y009853D02*
X022664Y009853D01*
X022763Y009754D02*
X019829Y009754D01*
X019968Y009656D02*
X022861Y009656D01*
X023035Y009557D02*
X020067Y009557D01*
X019267Y010444D02*
X019167Y010444D01*
X019167Y010542D02*
X019267Y010542D01*
X019267Y010641D02*
X019167Y010641D01*
X019083Y010838D02*
X018352Y010838D01*
X018564Y010936D02*
X018871Y010936D01*
X018772Y011035D02*
X018663Y011035D01*
X019797Y011626D02*
X022891Y011626D01*
X022793Y011724D02*
X019797Y011724D01*
X019797Y011823D02*
X022694Y011823D01*
X022615Y011921D02*
X019797Y011921D01*
X019797Y012020D02*
X022574Y012020D01*
X022533Y012118D02*
X019792Y012118D01*
X019751Y012217D02*
X022492Y012217D01*
X022477Y012315D02*
X020973Y012315D01*
X021211Y012414D02*
X022477Y012414D01*
X022477Y012512D02*
X021324Y012512D01*
X021422Y012611D02*
X022477Y012611D01*
X022503Y012709D02*
X021505Y012709D01*
X021545Y012808D02*
X022544Y012808D01*
X022585Y012906D02*
X021586Y012906D01*
X021627Y013005D02*
X022626Y013005D01*
X022721Y013103D02*
X021632Y013103D01*
X021632Y013202D02*
X022819Y013202D01*
X022934Y013300D02*
X021632Y013300D01*
X021625Y013399D02*
X023172Y013399D01*
X023763Y013399D02*
X023822Y013399D01*
X023822Y013497D02*
X021585Y013497D01*
X021544Y013596D02*
X023822Y013596D01*
X023822Y013694D02*
X021503Y013694D01*
X021418Y013793D02*
X023822Y013793D01*
X023822Y013891D02*
X021320Y013891D01*
X020111Y012512D02*
X019472Y012512D01*
X019614Y012414D02*
X020224Y012414D01*
X020462Y012315D02*
X019710Y012315D01*
X018963Y012512D02*
X018472Y012512D01*
X018614Y012414D02*
X018821Y012414D01*
X018724Y012315D02*
X018710Y012315D01*
X018410Y010148D02*
X014089Y010148D01*
X014188Y010050D02*
X018431Y010050D01*
X018475Y009951D02*
X014286Y009951D01*
X014297Y009853D02*
X018556Y009853D01*
X018606Y009754D02*
X018483Y009754D01*
X017952Y009754D02*
X015483Y009754D01*
X015458Y009780D02*
X014977Y009780D01*
X014637Y009440D01*
X014637Y008960D01*
X014977Y008620D01*
X015458Y008620D01*
X015797Y008960D01*
X015797Y009440D01*
X015458Y009780D01*
X015582Y009656D02*
X017853Y009656D01*
X017755Y009557D02*
X015680Y009557D01*
X015779Y009459D02*
X017656Y009459D01*
X017637Y009360D02*
X015797Y009360D01*
X015797Y009262D02*
X017637Y009262D01*
X017637Y009163D02*
X015797Y009163D01*
X015797Y009065D02*
X017637Y009065D01*
X017637Y008966D02*
X015797Y008966D01*
X015706Y008868D02*
X017729Y008868D01*
X017828Y008769D02*
X015607Y008769D01*
X015509Y008671D02*
X017926Y008671D01*
X018330Y008474D02*
X014764Y008474D01*
X014797Y008375D02*
X018289Y008375D01*
X018267Y008277D02*
X014797Y008277D01*
X014797Y008178D02*
X018267Y008178D01*
X018267Y008080D02*
X014797Y008080D01*
X014797Y007981D02*
X018307Y007981D01*
X018348Y007883D02*
X014721Y007883D01*
X014711Y007784D02*
X018426Y007784D01*
X018497Y007686D02*
X014810Y007686D01*
X014908Y007587D02*
X018398Y007587D01*
X018336Y007489D02*
X015007Y007489D01*
X015035Y007390D02*
X018295Y007390D01*
X018267Y007292D02*
X015035Y007292D01*
X015035Y007193D02*
X018267Y007193D01*
X018267Y007095D02*
X015035Y007095D01*
X015035Y006996D02*
X018301Y006996D01*
X018341Y006898D02*
X014994Y006898D01*
X014895Y006799D02*
X018411Y006799D01*
X017898Y006701D02*
X015537Y006701D01*
X015635Y006602D02*
X017800Y006602D01*
X017701Y006504D02*
X015734Y006504D01*
X015797Y006405D02*
X017637Y006405D01*
X017637Y006307D02*
X015797Y006307D01*
X015797Y006208D02*
X017637Y006208D01*
X017637Y006110D02*
X015797Y006110D01*
X015797Y006011D02*
X017637Y006011D01*
X017684Y005913D02*
X015751Y005913D01*
X015652Y005814D02*
X017783Y005814D01*
X017881Y005716D02*
X015554Y005716D01*
X014881Y005716D02*
X014812Y005716D01*
X013998Y005716D02*
X011812Y005716D01*
X011878Y005617D02*
X013932Y005617D01*
X013833Y005519D02*
X011977Y005519D01*
X012035Y005420D02*
X013775Y005420D01*
X013775Y005322D02*
X012035Y005322D01*
X012035Y005223D02*
X013775Y005223D01*
X013775Y005125D02*
X012035Y005125D01*
X012035Y005026D02*
X013775Y005026D01*
X013786Y004928D02*
X012024Y004928D01*
X011925Y004829D02*
X013884Y004829D01*
X013983Y004731D02*
X011827Y004731D01*
X011728Y004632D02*
X013946Y004632D01*
X013848Y004534D02*
X011764Y004534D01*
X011862Y004435D02*
X013775Y004435D01*
X013775Y004337D02*
X011895Y004337D01*
X011895Y004238D02*
X013733Y004238D01*
X013634Y004140D02*
X011895Y004140D01*
X011895Y004041D02*
X013536Y004041D01*
X013437Y003943D02*
X011841Y003943D01*
X011742Y003844D02*
X013339Y003844D01*
X013240Y003746D02*
X011644Y003746D01*
X010915Y004041D02*
X010899Y004041D01*
X010097Y005026D02*
X009742Y005026D01*
X009886Y005125D02*
X010097Y005125D01*
X010097Y005223D02*
X009976Y005223D01*
X010017Y005322D02*
X010097Y005322D01*
X010837Y005617D02*
X010932Y005617D01*
X010998Y005716D02*
X010837Y005716D01*
X010820Y005814D02*
X010899Y005814D01*
X010801Y005913D02*
X010778Y005913D01*
X010775Y006011D02*
X010679Y006011D01*
X010775Y006110D02*
X010052Y006110D01*
X010015Y006208D02*
X010775Y006208D01*
X010775Y006307D02*
X009974Y006307D01*
X009880Y006405D02*
X010775Y006405D01*
X010818Y006504D02*
X009729Y006504D01*
X008617Y007587D02*
X010902Y007587D01*
X011000Y007686D02*
X008716Y007686D01*
X008795Y007784D02*
X011099Y007784D01*
X011711Y007784D02*
X013011Y007784D01*
X012912Y007883D02*
X008795Y007883D01*
X008795Y007981D02*
X012814Y007981D01*
X012777Y008080D02*
X008795Y008080D01*
X008746Y008178D02*
X013187Y008178D01*
X013187Y008230D02*
X012777Y008230D01*
X012777Y008382D01*
X013035Y008640D01*
X013187Y008640D01*
X013187Y008230D01*
X013187Y008277D02*
X013247Y008277D01*
X013247Y008375D02*
X013187Y008375D01*
X013187Y008474D02*
X013247Y008474D01*
X013247Y008572D02*
X013187Y008572D01*
X012968Y008572D02*
X008910Y008572D01*
X008935Y008671D02*
X013868Y008671D01*
X013770Y008572D02*
X013467Y008572D01*
X013566Y008474D02*
X013671Y008474D01*
X013967Y008769D02*
X008935Y008769D01*
X008933Y008868D02*
X014729Y008868D01*
X014637Y008966D02*
X008892Y008966D01*
X008851Y009065D02*
X014637Y009065D01*
X014637Y009163D02*
X014001Y009163D01*
X014100Y009262D02*
X014637Y009262D01*
X014637Y009360D02*
X014198Y009360D01*
X014297Y009459D02*
X014656Y009459D01*
X014755Y009557D02*
X014297Y009557D01*
X014297Y009656D02*
X014853Y009656D01*
X014952Y009754D02*
X014297Y009754D01*
X013444Y010247D02*
X012991Y010247D01*
X013089Y010148D02*
X013346Y010148D01*
X013247Y010050D02*
X013188Y010050D01*
X012444Y010247D02*
X011991Y010247D01*
X012089Y010148D02*
X012346Y010148D01*
X012247Y010050D02*
X012188Y010050D01*
X011444Y010247D02*
X010991Y010247D01*
X011089Y010148D02*
X011346Y010148D01*
X011247Y010050D02*
X011188Y010050D01*
X011198Y009360D02*
X011237Y009360D01*
X011335Y009262D02*
X011100Y009262D01*
X011001Y009163D02*
X011434Y009163D01*
X012001Y009163D02*
X012434Y009163D01*
X012335Y009262D02*
X012100Y009262D01*
X012198Y009360D02*
X012237Y009360D01*
X013001Y009163D02*
X013434Y009163D01*
X013335Y009262D02*
X013100Y009262D01*
X013198Y009360D02*
X013237Y009360D01*
X014468Y008769D02*
X014828Y008769D01*
X014926Y008671D02*
X014567Y008671D01*
X014665Y008572D02*
X018383Y008572D01*
X014898Y006701D02*
X014797Y006701D01*
X014013Y006701D02*
X011797Y006701D01*
X011893Y006602D02*
X013917Y006602D01*
X013818Y006504D02*
X011992Y006504D01*
X012035Y006405D02*
X013775Y006405D01*
X013775Y006307D02*
X012035Y006307D01*
X012035Y006208D02*
X013775Y006208D01*
X013775Y006110D02*
X012035Y006110D01*
X012035Y006011D02*
X013775Y006011D01*
X013801Y005913D02*
X012009Y005913D01*
X011910Y005814D02*
X013899Y005814D01*
X013914Y006799D02*
X011895Y006799D01*
X011994Y006898D02*
X013816Y006898D01*
X013775Y006996D02*
X012035Y006996D01*
X012035Y007095D02*
X013775Y007095D01*
X013775Y007193D02*
X012035Y007193D01*
X012035Y007292D02*
X013775Y007292D01*
X013775Y007390D02*
X012035Y007390D01*
X012007Y007489D02*
X013803Y007489D01*
X013902Y007587D02*
X011908Y007587D01*
X011810Y007686D02*
X013911Y007686D01*
X013813Y007784D02*
X013424Y007784D01*
X013523Y007883D02*
X013714Y007883D01*
X013637Y007981D02*
X013621Y007981D01*
X013247Y007981D02*
X013187Y007981D01*
X013187Y007883D02*
X013247Y007883D01*
X013247Y007784D02*
X013187Y007784D01*
X013187Y008080D02*
X013247Y008080D01*
X012777Y008277D02*
X008705Y008277D01*
X008803Y008375D02*
X012777Y008375D01*
X012869Y008474D02*
X008869Y008474D01*
X008759Y009163D02*
X010434Y009163D01*
X010335Y009262D02*
X008628Y009262D01*
X008385Y007883D02*
X008325Y007883D01*
X008325Y007784D02*
X008385Y007784D01*
X008385Y007686D02*
X008325Y007686D01*
X008325Y007587D02*
X008385Y007587D01*
X003847Y004928D02*
X003777Y004928D01*
X003602Y004928D02*
X003525Y004928D01*
X003525Y005026D02*
X003602Y005026D01*
X003602Y005125D02*
X003525Y005125D01*
X003525Y005223D02*
X003602Y005223D01*
X003602Y005322D02*
X003525Y005322D01*
X000930Y002071D02*
X000507Y002071D01*
X000507Y001973D02*
X000696Y001973D01*
X000598Y001874D02*
X000507Y001874D01*
X002132Y001283D02*
X009251Y001283D01*
X009350Y001185D02*
X002132Y001185D01*
X002132Y001018D02*
X001993Y000682D01*
X001998Y000692D02*
X019937Y000692D01*
X019896Y000791D02*
X002038Y000791D01*
X002079Y000889D02*
X019856Y000889D01*
X019815Y000988D02*
X002120Y000988D01*
X001905Y000594D02*
X020029Y000594D01*
X020128Y000495D02*
X001807Y000495D01*
X014827Y004731D02*
X014928Y004731D01*
X018485Y003647D02*
X018601Y003647D01*
X019992Y004632D02*
X022750Y004632D01*
X020866Y005125D02*
X020022Y005125D01*
X022189Y005814D02*
X022246Y005814D01*
X022246Y005913D02*
X022189Y005913D01*
X022189Y006011D02*
X022246Y006011D01*
X022246Y006110D02*
X022189Y006110D01*
X022246Y006208D02*
X024927Y006208D01*
X024927Y006110D02*
X022655Y006110D01*
X022655Y006011D02*
X024927Y006011D01*
X024927Y005913D02*
X022655Y005913D01*
X022619Y005814D02*
X024927Y005814D01*
X024927Y006307D02*
X022655Y006307D01*
X022655Y006405D02*
X024927Y006405D01*
X024927Y006504D02*
X022655Y006504D01*
X022602Y006602D02*
X024927Y006602D01*
X024927Y006701D02*
X022704Y006701D01*
X022772Y006799D02*
X024927Y006799D01*
X024927Y006898D02*
X022795Y006898D01*
X022795Y006996D02*
X024927Y006996D01*
X024927Y007095D02*
X022795Y007095D01*
X022795Y007193D02*
X024927Y007193D01*
X024927Y007292D02*
X022795Y007292D01*
X022795Y007390D02*
X024927Y007390D01*
X024927Y007489D02*
X022795Y007489D01*
X022777Y007587D02*
X024927Y007587D01*
X024927Y007686D02*
X022717Y007686D01*
X022766Y007784D02*
X024927Y007784D01*
X024927Y007883D02*
X022795Y007883D01*
X022795Y007981D02*
X024927Y007981D01*
X024927Y008080D02*
X022795Y008080D01*
X022795Y008178D02*
X024927Y008178D01*
X024927Y008277D02*
X022795Y008277D01*
X022795Y008375D02*
X024927Y008375D01*
X024927Y008474D02*
X022795Y008474D01*
X022784Y008572D02*
X024927Y008572D01*
X024927Y008671D02*
X022732Y008671D01*
X022582Y008769D02*
X024927Y008769D01*
X024927Y011626D02*
X024044Y011626D01*
X024142Y011724D02*
X024927Y011724D01*
X024927Y011823D02*
X024241Y011823D01*
X024320Y011921D02*
X024927Y011921D01*
X024927Y012020D02*
X024361Y012020D01*
X024402Y012118D02*
X024927Y012118D01*
X024927Y012217D02*
X024443Y012217D01*
X024457Y012315D02*
X024927Y012315D01*
X024927Y012414D02*
X024457Y012414D01*
X024457Y012512D02*
X024927Y012512D01*
X024927Y012611D02*
X024457Y012611D01*
X024432Y012709D02*
X024927Y012709D01*
X024927Y012808D02*
X024391Y012808D01*
X024350Y012906D02*
X024927Y012906D01*
D25*
X019217Y011700D02*
X018217Y011700D01*
X021217Y007700D02*
X021717Y007700D01*
X022217Y007200D01*
M02*
