G75*
%MOIN*%
%OFA0B0*%
%FSLAX24Y24*%
%IPPOS*%
%LPD*%
%AMOC8*
5,1,8,0,0,1.08239X$1,22.5*
%
%ADD10OC8,0.0580*%
%ADD11C,0.0580*%
%ADD12OC8,0.0614*%
%ADD13C,0.1266*%
%ADD14C,0.0496*%
%ADD15OC8,0.0680*%
%ADD16C,0.0900*%
%ADD17R,0.0575X0.0575*%
%ADD18R,0.0710X0.0710*%
%ADD19C,0.0660*%
%ADD20C,0.0580*%
%ADD21C,0.0160*%
%ADD22C,0.0200*%
D10*
X009780Y001575D03*
X010780Y001575D03*
X011905Y001575D03*
X014905Y001575D03*
X018217Y001700D03*
X019217Y001700D03*
X018217Y004200D03*
X015217Y004200D03*
X015217Y006200D03*
X018217Y006200D03*
X014217Y008200D03*
X013217Y008200D03*
X015217Y009200D03*
X013717Y009700D03*
X012717Y009700D03*
X011717Y009700D03*
X010717Y009700D03*
X008717Y010700D03*
X008717Y011700D03*
X010717Y012700D03*
X011717Y012700D03*
X012717Y012700D03*
X013717Y012700D03*
X018217Y009200D03*
X008355Y007947D03*
X004717Y011700D03*
X003717Y011700D03*
D11*
X008355Y008747D03*
D12*
X004548Y008039D03*
X003564Y008039D03*
X003564Y007212D03*
X003564Y006188D03*
X003564Y005361D03*
X004548Y005361D03*
D13*
X002387Y004060D03*
X002057Y006700D03*
X002387Y009340D03*
D14*
X007546Y006011D02*
X007546Y005514D01*
X009514Y005514D02*
X009514Y006011D01*
X009514Y004073D02*
X009514Y003577D01*
X007546Y003577D02*
X007546Y004073D01*
D15*
X011405Y004200D03*
X011405Y005200D03*
X011405Y006200D03*
X011405Y007200D03*
X014405Y007200D03*
X014405Y006200D03*
X014405Y005200D03*
X014405Y004200D03*
D16*
X005335Y003774D03*
X006331Y004746D03*
X005339Y006719D03*
X006327Y008683D03*
X005335Y009683D03*
X001405Y008683D03*
X001405Y007703D03*
X001405Y005723D03*
X001405Y004743D03*
D17*
X021217Y005700D03*
X022217Y006200D03*
X021217Y006700D03*
X022217Y007200D03*
X021217Y007700D03*
X022217Y008200D03*
X021217Y008700D03*
X022217Y005200D03*
D18*
X024467Y000820D03*
X024467Y013580D03*
D19*
X019547Y010200D02*
X018887Y010200D01*
X018887Y009200D02*
X019547Y009200D01*
X019547Y008200D02*
X018887Y008200D01*
X018887Y007200D02*
X019547Y007200D01*
X019547Y006200D02*
X018887Y006200D01*
X018887Y005200D02*
X019547Y005200D01*
X019547Y004200D02*
X018887Y004200D01*
X018887Y003200D02*
X019547Y003200D01*
D20*
X019217Y011410D02*
X019217Y011990D01*
X018217Y011990D02*
X018217Y011410D01*
X016217Y011410D02*
X016217Y011990D01*
X015217Y011990D02*
X015217Y011410D01*
D21*
X015217Y011700D02*
X014217Y011700D01*
X014217Y008200D01*
X014217Y007200D01*
X014405Y007200D01*
X014967Y006700D02*
X014467Y006200D01*
X014405Y006200D01*
X014217Y006200D01*
X012717Y007700D01*
X012717Y008700D01*
X011717Y009700D01*
X011217Y010200D02*
X011217Y008200D01*
X014217Y005200D01*
X014405Y005200D01*
X015217Y006200D02*
X015717Y005700D01*
X015717Y003950D01*
X014717Y002950D01*
X010717Y002950D01*
X010717Y005700D01*
X011217Y005200D01*
X011405Y005200D01*
X010717Y005700D02*
X010717Y009700D01*
X010467Y010200D02*
X010217Y009950D01*
X010217Y004450D01*
X009717Y003950D01*
X009514Y003825D01*
X007546Y003825D02*
X007467Y003950D01*
X007217Y004200D01*
X007217Y004950D01*
X006717Y005450D01*
X004717Y005450D01*
X004548Y005361D01*
X003717Y005950D02*
X003564Y006188D01*
X003717Y005950D02*
X007467Y005950D01*
X007546Y005762D01*
X009514Y005762D02*
X009717Y005950D01*
X009717Y009950D01*
X010467Y010700D01*
X013717Y010700D01*
X013717Y009700D01*
X012717Y009700D02*
X012717Y010200D01*
X011217Y010200D01*
X010467Y010200D01*
X008717Y010700D02*
X010717Y012700D01*
X011717Y012700D01*
X012717Y012700D01*
X013717Y012700D01*
X013717Y011700D01*
X014217Y011700D01*
X015217Y011700D02*
X016217Y011700D01*
X018217Y010450D02*
X018217Y009200D01*
X019217Y009200D01*
X018217Y010450D02*
X018717Y010950D01*
X018717Y012700D01*
X019217Y012700D01*
X021717Y010200D01*
X021717Y008700D01*
X022217Y008200D01*
X021217Y006700D02*
X019967Y006700D01*
X019467Y006200D01*
X019217Y006200D01*
X018217Y006200D01*
X019717Y004200D02*
X021217Y005700D01*
X019717Y004200D02*
X019217Y004200D01*
X018217Y004200D01*
X019717Y001700D02*
X020967Y002950D01*
X024467Y002950D01*
X024467Y013580D01*
X015217Y009200D02*
X014967Y008950D01*
X014967Y006700D01*
X012467Y005200D02*
X011467Y006200D01*
X011405Y006200D01*
X012467Y005200D02*
X012467Y003450D01*
X014467Y003450D01*
X015217Y004200D01*
X011905Y001575D02*
X011717Y001700D01*
X010967Y001700D01*
X010780Y001575D01*
X002387Y004060D02*
X002217Y004200D01*
X002217Y006700D01*
X002057Y006700D01*
X002217Y006700D02*
X002217Y009200D01*
X002387Y009340D01*
X002467Y009450D01*
X002467Y010450D01*
X003717Y011700D01*
X008467Y010450D02*
X008467Y008950D01*
X008355Y008747D01*
X008217Y008700D01*
X006467Y008700D01*
X006327Y008683D01*
X006217Y008700D01*
X004217Y008700D01*
X003717Y008200D01*
X003564Y008039D01*
X008467Y010450D02*
X008717Y010700D01*
X024467Y002950D02*
X024467Y000820D01*
X019717Y001700D02*
X019217Y001700D01*
D22*
X019217Y007200D02*
X019217Y007950D01*
X019217Y008200D01*
X019217Y007950D02*
X020217Y008950D01*
X020217Y008700D01*
X021217Y007700D01*
X020217Y008950D02*
X020217Y010700D01*
X019217Y011700D01*
M02*
