G75*
%MOIN*%
%OFA0B0*%
%FSLAX24Y24*%
%IPPOS*%
%LPD*%
%AMOC8*
5,1,8,0,0,1.08239X$1,22.5*
%
%ADD10C,0.0060*%
D10*
X018030Y002880D02*
X018030Y003480D01*
X018032Y003497D01*
X018036Y003514D01*
X018043Y003530D01*
X018053Y003544D01*
X018066Y003557D01*
X018080Y003567D01*
X018096Y003574D01*
X018113Y003578D01*
X018130Y003580D01*
X019230Y003580D01*
X019247Y003578D01*
X019264Y003574D01*
X019280Y003567D01*
X019294Y003557D01*
X019307Y003544D01*
X019317Y003530D01*
X019324Y003514D01*
X019328Y003497D01*
X019330Y003480D01*
X019330Y002880D01*
X019328Y002863D01*
X019324Y002846D01*
X019317Y002830D01*
X019307Y002816D01*
X019294Y002803D01*
X019280Y002793D01*
X019264Y002786D01*
X019247Y002782D01*
X019230Y002780D01*
X018130Y002780D01*
X018113Y002782D01*
X018096Y002786D01*
X018080Y002793D01*
X018066Y002803D01*
X018053Y002816D01*
X018043Y002830D01*
X018036Y002846D01*
X018032Y002863D01*
X018030Y002880D01*
X020030Y002880D02*
X020030Y003480D01*
X020032Y003497D01*
X020036Y003514D01*
X020043Y003530D01*
X020053Y003544D01*
X020066Y003557D01*
X020080Y003567D01*
X020096Y003574D01*
X020113Y003578D01*
X020130Y003580D01*
X021230Y003580D01*
X021247Y003578D01*
X021264Y003574D01*
X021280Y003567D01*
X021294Y003557D01*
X021307Y003544D01*
X021317Y003530D01*
X021324Y003514D01*
X021328Y003497D01*
X021330Y003480D01*
X021330Y002880D01*
X021328Y002863D01*
X021324Y002846D01*
X021317Y002830D01*
X021307Y002816D01*
X021294Y002803D01*
X021280Y002793D01*
X021264Y002786D01*
X021247Y002782D01*
X021230Y002780D01*
X020130Y002780D01*
X020113Y002782D01*
X020096Y002786D01*
X020080Y002793D01*
X020066Y002803D01*
X020053Y002816D01*
X020043Y002830D01*
X020036Y002846D01*
X020032Y002863D01*
X020030Y002880D01*
M02*
