G75*
%MOIN*%
%OFA0B0*%
%FSLAX24Y24*%
%IPPOS*%
%LPD*%
%AMOC8*
5,1,8,0,0,1.08239X$1,22.5*
%
%ADD10C,0.0520*%
%ADD11C,0.0560*%
%ADD12OC8,0.0600*%
%ADD13C,0.2000*%
%ADD14R,0.0740X0.0740*%
%ADD15C,0.0740*%
%ADD16R,0.0394X0.1181*%
%ADD17R,0.4331X0.3150*%
%ADD18C,0.0476*%
%ADD19OC8,0.0630*%
%ADD20C,0.0630*%
%ADD21C,0.0885*%
%ADD22OC8,0.0520*%
%ADD23R,0.0460X0.0630*%
%ADD24C,0.0440*%
%ADD25OC8,0.0705*%
%ADD26R,0.2130X0.1340*%
%ADD27R,0.0500X0.0579*%
%ADD28OC8,0.0560*%
%ADD29R,0.0515X0.0515*%
%ADD30R,0.0675X0.0675*%
%ADD31C,0.0600*%
%ADD32C,0.1750*%
%ADD33C,0.1500*%
%ADD34R,0.0630X0.0709*%
%ADD35C,0.0240*%
%ADD36C,0.0120*%
%ADD37C,0.0400*%
D10*
X006125Y012603D02*
X006125Y013123D01*
X007125Y013123D02*
X007125Y012603D01*
X008125Y012603D02*
X008125Y013123D01*
X009125Y013123D02*
X009125Y012603D01*
X010125Y012603D02*
X010125Y013123D01*
X011125Y013123D02*
X011125Y012603D01*
X012125Y012603D02*
X012125Y013123D01*
X012125Y015603D02*
X012125Y016123D01*
X011125Y016123D02*
X011125Y015603D01*
X010125Y015603D02*
X010125Y016123D01*
X009125Y016123D02*
X009125Y015603D01*
X008125Y015603D02*
X008125Y016123D01*
X007125Y016123D02*
X007125Y015603D01*
X006125Y015603D02*
X006125Y016123D01*
X019125Y025603D02*
X019125Y026123D01*
X021125Y026123D02*
X021125Y025603D01*
D11*
X018125Y023643D02*
X018125Y023083D01*
X017125Y023083D02*
X017125Y023643D01*
X016125Y023643D02*
X016125Y023083D01*
X016125Y021643D02*
X016125Y021083D01*
X015125Y021083D02*
X015125Y021643D01*
X014125Y020143D02*
X014125Y019583D01*
X013125Y019583D02*
X013125Y020143D01*
X012405Y011363D02*
X011845Y011363D01*
X011845Y010363D02*
X012405Y010363D01*
X012405Y009363D02*
X011845Y009363D01*
X010405Y009363D02*
X009845Y009363D01*
X009845Y010363D02*
X010405Y010363D01*
X010405Y011363D02*
X009845Y011363D01*
X007905Y011363D02*
X007345Y011363D01*
X007345Y010363D02*
X007905Y010363D01*
X007905Y009363D02*
X007345Y009363D01*
X005405Y009363D02*
X004845Y009363D01*
X004845Y010363D02*
X005405Y010363D01*
X005405Y011363D02*
X004845Y011363D01*
X002905Y010863D02*
X002345Y010863D01*
X002345Y009863D02*
X002905Y009863D01*
X017125Y009143D02*
X017125Y008583D01*
X018125Y008583D02*
X018125Y009143D01*
D12*
X020125Y008933D03*
X020125Y010013D03*
X020125Y011103D03*
X020125Y012193D03*
X020125Y013273D03*
X020125Y014363D03*
X020125Y015453D03*
X020125Y016533D03*
X020125Y017623D03*
X020125Y018713D03*
X020125Y019793D03*
X020125Y020883D03*
X021125Y020343D03*
X021125Y019253D03*
X021125Y018163D03*
X021125Y017083D03*
X021125Y015993D03*
X021125Y014903D03*
X021125Y013823D03*
X021125Y012733D03*
X021125Y011643D03*
X021125Y010563D03*
X021125Y009473D03*
X021125Y008383D03*
X020125Y007843D03*
X018125Y019363D03*
X018125Y020363D03*
X018125Y021363D03*
X018125Y025863D03*
X020325Y027063D03*
X006625Y010363D03*
X004125Y010363D03*
D13*
X007204Y006363D03*
X017046Y006363D03*
X020625Y005103D03*
X020625Y023623D03*
D14*
X014306Y006922D03*
D15*
X013759Y005804D03*
X013216Y006922D03*
X012668Y005804D03*
X012125Y006922D03*
X011582Y005804D03*
X011034Y006922D03*
X010491Y005804D03*
X009944Y006922D03*
X003625Y032363D03*
X002625Y032363D03*
D16*
X018286Y028214D03*
X018956Y028214D03*
X019625Y028214D03*
X020294Y028214D03*
X020964Y028214D03*
D17*
X019625Y032613D03*
D18*
X014363Y031847D02*
X013887Y031847D01*
X013887Y029879D02*
X014363Y029879D01*
D19*
X015625Y026363D03*
X007125Y027363D03*
X007125Y032363D03*
D20*
X006125Y032363D03*
X006125Y027363D03*
X016625Y026363D03*
D21*
X009625Y026421D02*
X009625Y027306D01*
X009625Y032421D02*
X009625Y033306D01*
D22*
X007125Y029863D03*
X006125Y029863D03*
X005125Y029863D03*
X002125Y029863D03*
X009125Y023863D03*
X010125Y023863D03*
X011125Y023863D03*
X011125Y024863D03*
X011625Y021863D03*
X012125Y021113D03*
X012625Y021863D03*
X014125Y023863D03*
X014125Y024863D03*
X010125Y020863D03*
X009125Y020863D03*
X010125Y018363D03*
X009625Y017363D03*
X011125Y018363D03*
X012625Y017363D03*
X005125Y015863D03*
X005125Y014863D03*
D23*
X012325Y026863D03*
X012925Y026863D03*
D24*
X012625Y025863D03*
X011625Y025863D03*
X013625Y025863D03*
D25*
X013140Y030078D03*
X013140Y031648D03*
X015110Y031648D03*
X015110Y030078D03*
D26*
X014125Y028803D03*
X014125Y032923D03*
D27*
X003471Y012863D03*
X001779Y012863D03*
D28*
X017125Y012363D03*
X017125Y011363D03*
X018125Y011363D03*
X018125Y012363D03*
X018125Y013363D03*
X018125Y014363D03*
X018125Y015363D03*
X018125Y016363D03*
X018125Y017363D03*
X018125Y018363D03*
X017125Y018363D03*
X017125Y017363D03*
X017125Y016363D03*
X017125Y015363D03*
X017125Y014363D03*
X017125Y013363D03*
D29*
X005125Y019863D03*
X005125Y020863D03*
X005125Y021863D03*
X005125Y022863D03*
X004125Y022363D03*
X004125Y021363D03*
X004125Y020363D03*
X004125Y023363D03*
D30*
X001875Y027743D03*
X010625Y019863D03*
X016625Y019863D03*
X001875Y014983D03*
D31*
X006825Y017863D02*
X007425Y017863D01*
X007425Y018863D02*
X006825Y018863D01*
X006825Y019863D02*
X007425Y019863D01*
X007425Y020863D02*
X006825Y020863D01*
X006825Y021863D02*
X007425Y021863D01*
X007425Y022863D02*
X006825Y022863D01*
X006825Y023863D02*
X007425Y023863D01*
X007425Y024863D02*
X006825Y024863D01*
D32*
X003125Y007084D03*
D33*
X003125Y004682D03*
X005015Y005863D03*
D34*
X018374Y026963D03*
X019476Y026963D03*
D35*
X019625Y027051D01*
X019625Y028214D01*
X019625Y032613D01*
X016313Y031613D02*
X018938Y028988D01*
X018938Y028238D01*
X018956Y028214D01*
X018313Y028176D02*
X018286Y028214D01*
X018313Y028176D02*
X018313Y026988D01*
X018374Y026963D01*
X018250Y026926D01*
X017688Y026363D01*
X017625Y026363D01*
X018125Y025863D01*
X019125Y025863D01*
X019476Y026963D02*
X019500Y026988D01*
X020250Y026988D01*
X020325Y027063D01*
X017625Y026363D02*
X016625Y026363D01*
X015625Y026363D02*
X014125Y024863D01*
X015250Y023738D01*
X015188Y023676D01*
X015188Y021426D01*
X015125Y021363D01*
X015125Y019863D01*
X014125Y019863D01*
X015125Y019863D02*
X016625Y019863D01*
X016125Y023363D02*
X015625Y023363D01*
X015250Y023738D01*
X014125Y024863D02*
X013625Y025363D01*
X013625Y025863D01*
X012313Y026551D02*
X011625Y025863D01*
X011563Y025801D01*
X011188Y025801D01*
X009875Y024488D01*
X010500Y024488D01*
X011125Y023863D01*
X012625Y022363D01*
X012625Y021863D01*
X009875Y024488D02*
X009438Y024051D01*
X006125Y027363D01*
X006125Y029863D01*
X006125Y032363D01*
X003625Y032363D01*
X009625Y032863D02*
X014000Y032863D01*
X014125Y032923D01*
X014188Y032488D01*
X015000Y031676D01*
X015110Y031648D01*
X015125Y031613D01*
X016313Y031613D01*
X015110Y030078D02*
X015063Y030051D01*
X014188Y029176D01*
X014125Y028803D01*
X014000Y028863D01*
X013875Y028863D01*
X012375Y027363D01*
X012375Y026926D01*
X012325Y026863D01*
X012313Y026863D01*
X012313Y026551D01*
X014125Y028803D02*
X014063Y029176D01*
X013188Y030051D01*
X013140Y030078D01*
X014125Y029879D02*
X014125Y028803D01*
X013140Y031648D02*
X013188Y031676D01*
X014063Y032551D01*
X014125Y032923D01*
X014125Y031847D01*
X009438Y024051D02*
X009250Y023863D01*
X009125Y023863D01*
X008063Y024113D02*
X008063Y023613D01*
X007313Y022863D01*
X007125Y022863D01*
X008063Y024113D02*
X007313Y024863D01*
X007125Y024863D01*
X007063Y024801D01*
X006125Y024801D01*
X004750Y023426D01*
X004188Y023426D01*
X004125Y023363D01*
X004125Y022363D01*
X004125Y021363D02*
X004625Y021363D01*
X005125Y020863D01*
X005188Y020926D01*
X007063Y020926D01*
X007125Y020863D01*
X007125Y019863D01*
X007063Y019988D01*
X006188Y019113D01*
X006188Y015926D01*
X006125Y015863D01*
X005750Y015863D01*
X005750Y014613D01*
X004063Y012926D01*
X003563Y012926D01*
X003471Y012863D01*
X003438Y012863D01*
X003438Y011676D01*
X002625Y010863D01*
X001938Y010363D02*
X002438Y009863D01*
X002625Y009863D01*
X001938Y010363D02*
X001875Y010301D01*
X001875Y006613D01*
X003125Y005363D01*
X003125Y004682D01*
X001938Y010363D02*
X001688Y010613D01*
X001688Y012801D01*
X001779Y012863D01*
X001813Y012863D01*
X001813Y014863D01*
X001875Y014926D01*
X001875Y014983D01*
X001938Y014863D01*
X005125Y014863D01*
X005125Y015863D02*
X005750Y015863D01*
X012125Y012863D02*
X013125Y012863D01*
X016125Y009863D01*
X016188Y009926D01*
X020063Y009926D01*
X020125Y010013D01*
X020125Y010426D01*
X020188Y010426D01*
X021125Y009488D01*
X021125Y009473D01*
X020125Y010426D02*
X020125Y011103D01*
X020125Y012193D01*
X021125Y013823D02*
X021125Y014903D01*
X021063Y014988D01*
X020188Y015863D01*
X020125Y015863D01*
X020125Y015453D01*
X020125Y015863D02*
X020125Y016533D01*
X016125Y009863D02*
X016688Y009301D01*
X014375Y006988D01*
X014306Y006922D01*
X014250Y006926D01*
X013250Y006926D01*
X013216Y006922D01*
X016688Y009301D02*
X017125Y008863D01*
D36*
X018125Y008863D02*
X019813Y007176D01*
X020875Y007176D01*
X021813Y008113D01*
X021813Y009863D01*
X021125Y010551D01*
X021125Y010563D01*
X021125Y011643D02*
X021125Y011988D01*
X020313Y012801D01*
X019938Y012801D01*
X018500Y011363D01*
X018125Y011363D01*
X017125Y012363D02*
X017125Y012738D01*
X017625Y013238D01*
X017625Y016488D01*
X017250Y016863D01*
X013750Y016863D01*
X012813Y017801D01*
X010688Y017801D01*
X009813Y016926D01*
X009188Y016926D01*
X007250Y018863D01*
X007125Y018863D01*
X005938Y019613D02*
X005625Y019301D01*
X004750Y019301D01*
X004125Y019926D01*
X004125Y020363D01*
X005125Y021863D02*
X007125Y021863D01*
X007250Y021863D01*
X008688Y020426D01*
X011000Y020426D01*
X011188Y020238D01*
X011938Y020238D01*
X012125Y021113D02*
X010375Y021113D01*
X010125Y020863D01*
X009125Y020863D01*
X010625Y019863D02*
X009563Y018801D01*
X009563Y018176D01*
X009625Y018113D01*
X009625Y017363D01*
X010000Y016801D02*
X009750Y016551D01*
X007813Y016551D01*
X007125Y015863D01*
X007125Y014738D01*
X003625Y011238D01*
X003625Y010176D01*
X004438Y009363D01*
X005125Y009363D01*
X005125Y010363D02*
X005625Y010363D01*
X010125Y005863D01*
X010438Y005863D01*
X010491Y005804D01*
X011313Y005863D02*
X010500Y006676D01*
X010500Y007488D01*
X007625Y010363D01*
X007625Y011363D02*
X009188Y011363D01*
X010000Y012176D01*
X010438Y012176D01*
X011125Y012863D01*
X011125Y015863D01*
X010563Y016176D02*
X010938Y016551D01*
X012313Y016551D01*
X012500Y016363D01*
X017125Y016363D01*
X018000Y016863D02*
X017625Y017238D01*
X017625Y019926D01*
X017063Y020488D01*
X017000Y020488D01*
X016125Y021363D01*
X017125Y023363D02*
X018688Y024926D01*
X019375Y024926D01*
X020500Y026051D01*
X020500Y026426D01*
X020938Y026863D01*
X020938Y028176D01*
X020964Y028214D01*
X020294Y028214D02*
X020250Y028238D01*
X020250Y029113D01*
X014125Y023863D02*
X012375Y025613D01*
X011625Y024863D01*
X011125Y024863D01*
X012375Y025613D02*
X012625Y025863D01*
X012875Y026113D01*
X012875Y026863D01*
X012925Y026863D01*
X013125Y019863D02*
X010625Y019863D01*
X010000Y016801D02*
X013063Y016801D01*
X010563Y016176D02*
X010563Y013301D01*
X010125Y012863D01*
X010000Y012863D01*
X009000Y011863D01*
X007188Y011863D01*
X006125Y010801D01*
X006125Y010176D01*
X006938Y009363D01*
X007625Y009363D01*
X005563Y010863D02*
X004625Y010863D01*
X004125Y010363D01*
X005563Y010863D02*
X006813Y012113D01*
X007250Y012113D01*
X007563Y012426D01*
X007563Y013176D01*
X010125Y015738D01*
X010125Y015863D01*
X009125Y015863D02*
X008125Y015863D01*
X011563Y012426D02*
X011375Y012238D01*
X011375Y010113D01*
X012125Y009363D01*
X011563Y012426D02*
X011563Y013551D01*
X011813Y013551D01*
X011938Y013676D01*
X016813Y013676D01*
X017125Y013363D01*
X018125Y013363D02*
X020063Y013363D01*
X020125Y013301D01*
X020125Y013273D01*
X020125Y014363D02*
X018125Y014363D01*
X018125Y015363D02*
X019875Y017113D01*
X020375Y017113D01*
X021125Y016363D01*
X021125Y015993D01*
X020125Y017623D02*
X020125Y017676D01*
X019313Y016863D01*
X018000Y016863D01*
X018125Y017363D02*
X019625Y018863D01*
X019625Y018926D01*
X020000Y019301D01*
X020313Y019301D01*
X021125Y020113D01*
X021125Y020343D01*
X020125Y020676D02*
X020125Y020883D01*
X020125Y020676D02*
X018125Y018676D01*
X018125Y018363D01*
X011563Y005863D02*
X011313Y005863D01*
X011563Y005863D02*
X011582Y005804D01*
X006000Y022863D02*
X005125Y022863D01*
X006000Y022863D02*
X007000Y023863D01*
X007125Y023863D01*
X002125Y029863D02*
X002125Y031863D01*
X002625Y032363D01*
D37*
X011938Y020238D03*
X013063Y016801D03*
X011563Y013551D03*
X005938Y019613D03*
X020250Y029113D03*
M02*
