G75*
%MOIN*%
%OFA0B0*%
%FSLAX24Y24*%
%IPPOS*%
%LPD*%
%AMOC8*
5,1,8,0,0,1.08239X$1,22.5*
%
%ADD10C,0.0000*%
D10*
X001125Y003363D02*
X001125Y034563D01*
X022125Y034563D01*
X022125Y024863D01*
X023625Y024863D01*
X023625Y003363D01*
X001125Y003363D01*
X002175Y016113D02*
X002177Y016165D01*
X002183Y016217D01*
X002193Y016269D01*
X002206Y016319D01*
X002223Y016369D01*
X002244Y016417D01*
X002269Y016463D01*
X002297Y016507D01*
X002328Y016549D01*
X002362Y016589D01*
X002399Y016626D01*
X002439Y016660D01*
X002481Y016691D01*
X002525Y016719D01*
X002571Y016744D01*
X002619Y016765D01*
X002669Y016782D01*
X002719Y016795D01*
X002771Y016805D01*
X002823Y016811D01*
X002875Y016813D01*
X002927Y016811D01*
X002979Y016805D01*
X003031Y016795D01*
X003081Y016782D01*
X003131Y016765D01*
X003179Y016744D01*
X003225Y016719D01*
X003269Y016691D01*
X003311Y016660D01*
X003351Y016626D01*
X003388Y016589D01*
X003422Y016549D01*
X003453Y016507D01*
X003481Y016463D01*
X003506Y016417D01*
X003527Y016369D01*
X003544Y016319D01*
X003557Y016269D01*
X003567Y016217D01*
X003573Y016165D01*
X003575Y016113D01*
X003573Y016061D01*
X003567Y016009D01*
X003557Y015957D01*
X003544Y015907D01*
X003527Y015857D01*
X003506Y015809D01*
X003481Y015763D01*
X003453Y015719D01*
X003422Y015677D01*
X003388Y015637D01*
X003351Y015600D01*
X003311Y015566D01*
X003269Y015535D01*
X003225Y015507D01*
X003179Y015482D01*
X003131Y015461D01*
X003081Y015444D01*
X003031Y015431D01*
X002979Y015421D01*
X002927Y015415D01*
X002875Y015413D01*
X002823Y015415D01*
X002771Y015421D01*
X002719Y015431D01*
X002669Y015444D01*
X002619Y015461D01*
X002571Y015482D01*
X002525Y015507D01*
X002481Y015535D01*
X002439Y015566D01*
X002399Y015600D01*
X002362Y015637D01*
X002328Y015677D01*
X002297Y015719D01*
X002269Y015763D01*
X002244Y015809D01*
X002223Y015857D01*
X002206Y015907D01*
X002193Y015957D01*
X002183Y016009D01*
X002177Y016061D01*
X002175Y016113D01*
X002175Y018113D02*
X002177Y018165D01*
X002183Y018217D01*
X002193Y018269D01*
X002206Y018319D01*
X002223Y018369D01*
X002244Y018417D01*
X002269Y018463D01*
X002297Y018507D01*
X002328Y018549D01*
X002362Y018589D01*
X002399Y018626D01*
X002439Y018660D01*
X002481Y018691D01*
X002525Y018719D01*
X002571Y018744D01*
X002619Y018765D01*
X002669Y018782D01*
X002719Y018795D01*
X002771Y018805D01*
X002823Y018811D01*
X002875Y018813D01*
X002927Y018811D01*
X002979Y018805D01*
X003031Y018795D01*
X003081Y018782D01*
X003131Y018765D01*
X003179Y018744D01*
X003225Y018719D01*
X003269Y018691D01*
X003311Y018660D01*
X003351Y018626D01*
X003388Y018589D01*
X003422Y018549D01*
X003453Y018507D01*
X003481Y018463D01*
X003506Y018417D01*
X003527Y018369D01*
X003544Y018319D01*
X003557Y018269D01*
X003567Y018217D01*
X003573Y018165D01*
X003575Y018113D01*
X003573Y018061D01*
X003567Y018009D01*
X003557Y017957D01*
X003544Y017907D01*
X003527Y017857D01*
X003506Y017809D01*
X003481Y017763D01*
X003453Y017719D01*
X003422Y017677D01*
X003388Y017637D01*
X003351Y017600D01*
X003311Y017566D01*
X003269Y017535D01*
X003225Y017507D01*
X003179Y017482D01*
X003131Y017461D01*
X003081Y017444D01*
X003031Y017431D01*
X002979Y017421D01*
X002927Y017415D01*
X002875Y017413D01*
X002823Y017415D01*
X002771Y017421D01*
X002719Y017431D01*
X002669Y017444D01*
X002619Y017461D01*
X002571Y017482D01*
X002525Y017507D01*
X002481Y017535D01*
X002439Y017566D01*
X002399Y017600D01*
X002362Y017637D01*
X002328Y017677D01*
X002297Y017719D01*
X002269Y017763D01*
X002244Y017809D01*
X002223Y017857D01*
X002206Y017907D01*
X002193Y017957D01*
X002183Y018009D01*
X002177Y018061D01*
X002175Y018113D01*
X002175Y024613D02*
X002177Y024665D01*
X002183Y024717D01*
X002193Y024769D01*
X002206Y024819D01*
X002223Y024869D01*
X002244Y024917D01*
X002269Y024963D01*
X002297Y025007D01*
X002328Y025049D01*
X002362Y025089D01*
X002399Y025126D01*
X002439Y025160D01*
X002481Y025191D01*
X002525Y025219D01*
X002571Y025244D01*
X002619Y025265D01*
X002669Y025282D01*
X002719Y025295D01*
X002771Y025305D01*
X002823Y025311D01*
X002875Y025313D01*
X002927Y025311D01*
X002979Y025305D01*
X003031Y025295D01*
X003081Y025282D01*
X003131Y025265D01*
X003179Y025244D01*
X003225Y025219D01*
X003269Y025191D01*
X003311Y025160D01*
X003351Y025126D01*
X003388Y025089D01*
X003422Y025049D01*
X003453Y025007D01*
X003481Y024963D01*
X003506Y024917D01*
X003527Y024869D01*
X003544Y024819D01*
X003557Y024769D01*
X003567Y024717D01*
X003573Y024665D01*
X003575Y024613D01*
X003573Y024561D01*
X003567Y024509D01*
X003557Y024457D01*
X003544Y024407D01*
X003527Y024357D01*
X003506Y024309D01*
X003481Y024263D01*
X003453Y024219D01*
X003422Y024177D01*
X003388Y024137D01*
X003351Y024100D01*
X003311Y024066D01*
X003269Y024035D01*
X003225Y024007D01*
X003179Y023982D01*
X003131Y023961D01*
X003081Y023944D01*
X003031Y023931D01*
X002979Y023921D01*
X002927Y023915D01*
X002875Y023913D01*
X002823Y023915D01*
X002771Y023921D01*
X002719Y023931D01*
X002669Y023944D01*
X002619Y023961D01*
X002571Y023982D01*
X002525Y024007D01*
X002481Y024035D01*
X002439Y024066D01*
X002399Y024100D01*
X002362Y024137D01*
X002328Y024177D01*
X002297Y024219D01*
X002269Y024263D01*
X002244Y024309D01*
X002223Y024357D01*
X002206Y024407D01*
X002193Y024457D01*
X002183Y024509D01*
X002177Y024561D01*
X002175Y024613D01*
X002175Y026613D02*
X002177Y026665D01*
X002183Y026717D01*
X002193Y026769D01*
X002206Y026819D01*
X002223Y026869D01*
X002244Y026917D01*
X002269Y026963D01*
X002297Y027007D01*
X002328Y027049D01*
X002362Y027089D01*
X002399Y027126D01*
X002439Y027160D01*
X002481Y027191D01*
X002525Y027219D01*
X002571Y027244D01*
X002619Y027265D01*
X002669Y027282D01*
X002719Y027295D01*
X002771Y027305D01*
X002823Y027311D01*
X002875Y027313D01*
X002927Y027311D01*
X002979Y027305D01*
X003031Y027295D01*
X003081Y027282D01*
X003131Y027265D01*
X003179Y027244D01*
X003225Y027219D01*
X003269Y027191D01*
X003311Y027160D01*
X003351Y027126D01*
X003388Y027089D01*
X003422Y027049D01*
X003453Y027007D01*
X003481Y026963D01*
X003506Y026917D01*
X003527Y026869D01*
X003544Y026819D01*
X003557Y026769D01*
X003567Y026717D01*
X003573Y026665D01*
X003575Y026613D01*
X003573Y026561D01*
X003567Y026509D01*
X003557Y026457D01*
X003544Y026407D01*
X003527Y026357D01*
X003506Y026309D01*
X003481Y026263D01*
X003453Y026219D01*
X003422Y026177D01*
X003388Y026137D01*
X003351Y026100D01*
X003311Y026066D01*
X003269Y026035D01*
X003225Y026007D01*
X003179Y025982D01*
X003131Y025961D01*
X003081Y025944D01*
X003031Y025931D01*
X002979Y025921D01*
X002927Y025915D01*
X002875Y025913D01*
X002823Y025915D01*
X002771Y025921D01*
X002719Y025931D01*
X002669Y025944D01*
X002619Y025961D01*
X002571Y025982D01*
X002525Y026007D01*
X002481Y026035D01*
X002439Y026066D01*
X002399Y026100D01*
X002362Y026137D01*
X002328Y026177D01*
X002297Y026219D01*
X002269Y026263D01*
X002244Y026309D01*
X002223Y026357D01*
X002206Y026407D01*
X002193Y026457D01*
X002183Y026509D01*
X002177Y026561D01*
X002175Y026613D01*
M02*
