%
M48
M72
T01C0.0236
T02C0.0315
T03C0.0320
T04C0.0354
T05C0.0400
T06C0.0450
T07C0.0551
T08C0.0866
T09C0.1250
T10C0.1400
%
T01
X7546Y3825
X9514Y3825
X9514Y5762
X7546Y5762
T02
X21217Y5700
X22217Y6200
X21217Y6700
X22217Y7200
X21217Y7700
X22217Y8200
X21217Y8700
X22217Y5200
T03
X18217Y6200
X15217Y6200
X14405Y6200
X14405Y7200
X14217Y8200
X13217Y8200
X11405Y7200
X11405Y6200
X11405Y5200
X11405Y4200
X14405Y4200
X15217Y4200
X14405Y5200
X18217Y4200
X18217Y1700
X19217Y1700
X14905Y1575
X11905Y1575
X10780Y1575
X9780Y1575
X8355Y7947
X8355Y8747
X10717Y9700
X11717Y9700
X12717Y9700
X13717Y9700
X15217Y9200
X18217Y9200
X18217Y11700
X19217Y11700
X16217Y11700
X15217Y11700
X13717Y12700
X12717Y12700
X11717Y12700
X10717Y12700
X8717Y11700
X8717Y10700
X4717Y11700
X3717Y11700
T04
X3564Y8039
X4548Y8039
X3564Y7212
X3564Y6188
X3564Y5361
X4548Y5361
T05
X19217Y5200
X19217Y6200
X19217Y7200
X19217Y8200
X19217Y9200
X19217Y10200
X19217Y4200
X19217Y3200
T06
X24467Y820
X24467Y13580
T07
X6327Y8683
X5335Y9683
X1405Y8683
X1405Y7703
X1405Y5723
X1405Y4743
X5335Y3774
X6331Y4746
X5339Y6719
T08
X2057Y6700
X2387Y4060
X2387Y9340
T09
X1217Y1200
X20717Y1200
X20717Y13200
X1217Y13200
T10
X23467Y12450
X23467Y10450
X23467Y3950
X23467Y1950
M30
