G75*
%MOIN*%
%OFA0B0*%
%FSLAX24Y24*%
%IPPOS*%
%LPD*%
%AMOC8*
5,1,8,0,0,1.08239X$1,22.5*
%
%ADD10C,0.1330*%
%ADD11OC8,0.0660*%
%ADD12C,0.0660*%
%ADD13OC8,0.0694*%
%ADD14C,0.1346*%
%ADD15R,0.0655X0.0655*%
%ADD16C,0.1480*%
%ADD17R,0.0790X0.0790*%
%ADD18C,0.0740*%
%ADD19C,0.0660*%
%ADD20C,0.0966*%
%ADD21C,0.1092*%
%ADD22C,0.1655*%
%ADD23C,0.0760*%
%ADD24C,0.0740*%
%ADD25OC8,0.0740*%
%ADD26OC8,0.0700*%
D10*
X002180Y002180D03*
X016180Y002180D03*
X024180Y007180D03*
X016180Y020180D03*
X002180Y020180D03*
D11*
X004493Y020305D03*
X007493Y020305D03*
X008618Y020305D03*
X009618Y020305D03*
X017680Y015180D03*
X017680Y014180D03*
X022680Y013680D03*
X022680Y012680D03*
X022680Y011680D03*
X024432Y009818D03*
X026180Y009680D03*
X027180Y009680D03*
X027180Y008180D03*
X026180Y008180D03*
X023680Y005680D03*
X022180Y006680D03*
X020680Y005680D03*
X019180Y005680D03*
X018180Y005680D03*
X019180Y006680D03*
X010680Y003680D03*
X010680Y002680D03*
X010680Y001680D03*
X007680Y001680D03*
X006680Y001680D03*
X006680Y002680D03*
X007680Y002680D03*
X007680Y003680D03*
X006680Y003680D03*
X003680Y003680D03*
X003680Y002680D03*
X003680Y001680D03*
X022680Y014680D03*
X023680Y016180D03*
X023680Y019180D03*
D12*
X023632Y009818D03*
D13*
X026349Y005519D03*
X027334Y005519D03*
X027334Y004692D03*
X027334Y003668D03*
X027334Y002841D03*
X026349Y002841D03*
D14*
X028510Y001540D03*
X028840Y004180D03*
X028510Y006820D03*
D15*
X027680Y013180D03*
X026680Y013680D03*
X027680Y014180D03*
X027680Y015180D03*
X027680Y016180D03*
X026680Y015680D03*
X026680Y014680D03*
X026680Y016680D03*
D16*
X028930Y018430D03*
X028930Y020430D03*
X028930Y011930D03*
X028930Y009930D03*
D17*
X029930Y008800D03*
X029930Y021560D03*
D18*
X025510Y018680D02*
X024850Y018680D01*
X024850Y017680D02*
X025510Y017680D01*
X025510Y016680D02*
X024850Y016680D01*
X024850Y015680D02*
X025510Y015680D01*
X025510Y014680D02*
X024850Y014680D01*
X024850Y013680D02*
X025510Y013680D01*
X025510Y012680D02*
X024850Y012680D01*
X024850Y011680D02*
X025510Y011680D01*
X002010Y011180D02*
X001350Y011180D01*
X001350Y010180D02*
X002010Y010180D01*
X002010Y009180D02*
X001350Y009180D01*
X001350Y008180D02*
X002010Y008180D01*
X002010Y007180D02*
X001350Y007180D01*
X001350Y006180D02*
X002010Y006180D01*
X002010Y012180D02*
X001350Y012180D01*
X001350Y013180D02*
X002010Y013180D01*
X002010Y014180D02*
X001350Y014180D01*
X001350Y015180D02*
X002010Y015180D01*
X002010Y016180D02*
X001350Y016180D01*
X001350Y017180D02*
X002010Y017180D01*
D19*
X018390Y017180D02*
X018970Y017180D01*
X018970Y018180D02*
X018390Y018180D01*
X018390Y019180D02*
X018970Y019180D01*
X018970Y020180D02*
X018390Y020180D01*
X018390Y021180D02*
X018970Y021180D01*
X021390Y021180D02*
X021970Y021180D01*
X023180Y020970D02*
X023180Y020390D01*
X021970Y020180D02*
X021390Y020180D01*
X021390Y019180D02*
X021970Y019180D01*
X021970Y018180D02*
X021390Y018180D01*
X021390Y017180D02*
X021970Y017180D01*
X021970Y016180D02*
X021390Y016180D01*
X021390Y015180D02*
X021970Y015180D01*
X021970Y014180D02*
X021390Y014180D01*
X021390Y013180D02*
X021970Y013180D01*
X021970Y012180D02*
X021390Y012180D01*
X021390Y011180D02*
X021970Y011180D01*
X021970Y010180D02*
X021390Y010180D01*
X021390Y009180D02*
X021970Y009180D01*
X021970Y008180D02*
X021390Y008180D01*
X018970Y008180D02*
X018390Y008180D01*
X018390Y009180D02*
X018970Y009180D01*
X018970Y010180D02*
X018390Y010180D01*
X018390Y011180D02*
X018970Y011180D01*
X018970Y012180D02*
X018390Y012180D01*
X018390Y013180D02*
X018970Y013180D01*
X018970Y014180D02*
X018390Y014180D01*
X018390Y015180D02*
X018970Y015180D01*
X018970Y016180D02*
X018390Y016180D01*
X024180Y020390D02*
X024180Y020970D01*
X026180Y020970D02*
X026180Y020390D01*
X027180Y020390D02*
X027180Y020970D01*
X024180Y004970D02*
X024180Y004390D01*
X023180Y004390D02*
X023180Y004970D01*
X022180Y004970D02*
X022180Y004390D01*
X021180Y004390D02*
X021180Y004970D01*
X020180Y004970D02*
X020180Y004390D01*
X019180Y004390D02*
X019180Y004970D01*
X018180Y004970D02*
X018180Y004390D01*
X018180Y001970D02*
X018180Y001390D01*
X019180Y001390D02*
X019180Y001970D01*
X020180Y001970D02*
X020180Y001390D01*
X021180Y001390D02*
X021180Y001970D01*
X022180Y001970D02*
X022180Y001390D01*
X023180Y001390D02*
X023180Y001970D01*
X024180Y001970D02*
X024180Y001390D01*
D20*
X014680Y009680D03*
X012180Y008680D03*
X007180Y009680D03*
X004680Y008680D03*
X004680Y016180D03*
X007180Y017180D03*
X012180Y016180D03*
X014680Y017180D03*
D21*
X015680Y015180D03*
X011680Y015180D03*
X008180Y015180D03*
X004180Y015180D03*
X004180Y007680D03*
X008180Y007680D03*
X011680Y007680D03*
X015680Y007680D03*
D22*
X013680Y007680D03*
X006180Y007680D03*
X006180Y015180D03*
X013680Y015180D03*
D23*
X013180Y013180D03*
X014180Y013180D03*
X006680Y013180D03*
X005680Y013180D03*
X005680Y005680D03*
X006680Y005680D03*
X013180Y005680D03*
X014180Y005680D03*
D24*
X011180Y019680D03*
D25*
X012180Y019680D03*
X013180Y019680D03*
X013180Y020680D03*
X012180Y020680D03*
X011180Y020680D03*
D26*
X012680Y003180D03*
X012680Y002180D03*
X013680Y002180D03*
X013680Y003180D03*
M02*
