%
M48
M72
T01C0.0230
T02C0.0320
T03C0.0400
T04C0.0420
T05C0.0591
T06C0.0675
T07C0.1250
T08C0.1575
%
T01
X20370Y10470
X24990Y13550
X21360Y17180
X18940Y16300
X18720Y18830
X16630Y19710
X17730Y20810
X19930Y20370
X20480Y20370
X20590Y21030
X21360Y19710
X22680Y20150
X24880Y17400
X28070Y19270
X28620Y10030
X25650Y9370
X14210Y19710
X15090Y20590
T02
X15180Y2680
X14180Y2680
X13180Y2680
X12180Y2680
X11180Y2680
X10180Y2680
X16180Y2680
X17180Y2680
X18180Y2680
X19180Y2680
T03
X20180Y2680
X31180Y6180
X31180Y7180
X31180Y8180
X31180Y9180
X31180Y10180
X31180Y11180
X31180Y12180
X31180Y13180
X31180Y14180
X31180Y15180
X31180Y16180
X31180Y17180
T04
X27180Y13180
X26180Y13180
X19680Y13180
X18680Y13180
X12180Y13180
X11180Y13180
X4680Y13180
X3680Y13180
X3680Y5680
X4680Y5680
X11180Y5680
X12180Y5680
X18680Y5680
X19680Y5680
X26180Y5680
X27180Y5680
T05
X25180Y8680
X27680Y9680
X20180Y9680
X17680Y8680
X12680Y9680
X10180Y8680
X5180Y9680
X2680Y8680
X2680Y16180
X5180Y17180
X10180Y16180
X12680Y17180
X17680Y16180
X20180Y17180
X25180Y16180
X27680Y17180
T06
X28680Y15180
X24680Y15180
X21180Y15180
X17180Y15180
X13680Y15180
X9680Y15180
X6180Y15180
X2180Y15180
X2180Y7680
X6180Y7680
X9680Y7680
X13680Y7680
X17180Y7680
X21180Y7680
X24680Y7680
X28680Y7680
T07
X2180Y2180
X2180Y20680
X30680Y20680
X30680Y2180
T08
X26680Y7680
X19180Y7680
X11680Y7680
X4180Y7680
X4180Y15180
X11680Y15180
X19180Y15180
X26680Y15180
M30
