G75*
%MOIN*%
%OFA0B0*%
%FSLAX24Y24*%
%IPPOS*%
%LPD*%
%AMOC8*
5,1,8,0,0,1.08239X$1,22.5*
%
%ADD10C,0.0050*%
%ADD11C,0.0060*%
%ADD12C,0.0020*%
%ADD13C,0.0040*%
D10*
X001180Y004680D02*
X001180Y010680D01*
X007180Y010680D01*
X007180Y004680D01*
X001180Y004680D01*
X008680Y004680D02*
X008680Y010680D01*
X014680Y010680D01*
X014680Y004680D01*
X008680Y004680D01*
X009705Y003655D02*
X009930Y003655D01*
X010005Y003580D01*
X010005Y003430D01*
X009930Y003355D01*
X009705Y003355D01*
X009705Y003205D02*
X009705Y003655D01*
X009855Y003355D02*
X010005Y003205D01*
X010165Y003205D02*
X010165Y003655D01*
X010466Y003205D01*
X010466Y003655D01*
X010626Y003505D02*
X010776Y003655D01*
X010776Y003205D01*
X010626Y003205D02*
X010926Y003205D01*
X009532Y002505D02*
X009305Y002505D01*
X009418Y002505D02*
X009418Y002845D01*
X009305Y002732D01*
X016180Y004680D02*
X016180Y010680D01*
X022180Y010680D01*
X022180Y004680D01*
X016180Y004680D01*
X023680Y004680D02*
X023680Y010680D01*
X029680Y010680D01*
X029680Y004680D01*
X023680Y004680D01*
X031855Y005684D02*
X032305Y005684D01*
X032305Y005534D02*
X032305Y005834D01*
X032305Y005995D02*
X032005Y006295D01*
X031930Y006295D01*
X031855Y006220D01*
X031855Y006070D01*
X031930Y005995D01*
X031855Y005684D02*
X032005Y005534D01*
X032305Y005995D02*
X032305Y006295D01*
X029680Y012180D02*
X023680Y012180D01*
X023680Y018180D01*
X029680Y018180D01*
X029680Y012180D01*
X030205Y016895D02*
X030055Y017045D01*
X030505Y017045D01*
X030505Y016895D02*
X030505Y017195D01*
X022180Y018180D02*
X022180Y012180D01*
X016180Y012180D01*
X016180Y018180D01*
X022180Y018180D01*
X020276Y020155D02*
X019976Y020155D01*
X020126Y020155D02*
X020126Y020605D01*
X019976Y020455D01*
X019816Y020605D02*
X019666Y020605D01*
X019741Y020605D02*
X019741Y020230D01*
X019666Y020155D01*
X019590Y020155D01*
X019515Y020230D01*
X019355Y020230D02*
X019280Y020155D01*
X019130Y020155D01*
X019055Y020230D01*
X019130Y020380D02*
X019055Y020455D01*
X019055Y020530D01*
X019130Y020605D01*
X019280Y020605D01*
X019355Y020530D01*
X019280Y020380D02*
X019355Y020305D01*
X019355Y020230D01*
X019280Y020380D02*
X019130Y020380D01*
X019130Y021655D02*
X019055Y021730D01*
X019130Y021655D02*
X019280Y021655D01*
X019355Y021730D01*
X019355Y021805D01*
X019280Y021880D01*
X019130Y021880D01*
X019055Y021955D01*
X019055Y022030D01*
X019130Y022105D01*
X019280Y022105D01*
X019355Y022030D01*
X019666Y022105D02*
X019816Y022105D01*
X019741Y022105D02*
X019741Y021730D01*
X019666Y021655D01*
X019590Y021655D01*
X019515Y021730D01*
X019976Y021655D02*
X020276Y021955D01*
X020276Y022030D01*
X020201Y022105D01*
X020051Y022105D01*
X019976Y022030D01*
X019976Y021655D02*
X020276Y021655D01*
X014680Y018180D02*
X014680Y012180D01*
X008680Y012180D01*
X008680Y018180D01*
X014680Y018180D01*
X013755Y019455D02*
X013755Y019605D01*
X013755Y019530D02*
X013305Y019530D01*
X013305Y019455D02*
X013305Y019605D01*
X013380Y019762D02*
X013680Y019762D01*
X013755Y019837D01*
X013755Y019987D01*
X013680Y020062D01*
X013755Y020222D02*
X013755Y020523D01*
X013755Y020372D02*
X013305Y020372D01*
X013455Y020222D01*
X013380Y020062D02*
X013305Y019987D01*
X013305Y019837D01*
X013380Y019762D01*
X007180Y018180D02*
X007180Y012180D01*
X001180Y012180D01*
X001180Y018180D01*
X007180Y018180D01*
D11*
X013930Y019560D02*
X013930Y019980D01*
X013930Y020380D01*
X013930Y020800D01*
X013932Y020823D01*
X013937Y020846D01*
X013946Y020868D01*
X013959Y020888D01*
X013974Y020906D01*
X013992Y020921D01*
X014012Y020934D01*
X014034Y020943D01*
X014057Y020948D01*
X014080Y020950D01*
X013930Y020380D02*
X013957Y020378D01*
X013984Y020373D01*
X014010Y020363D01*
X014034Y020351D01*
X014056Y020335D01*
X014076Y020317D01*
X014093Y020295D01*
X014108Y020272D01*
X014118Y020247D01*
X014126Y020221D01*
X014130Y020194D01*
X014130Y020166D01*
X014126Y020139D01*
X014118Y020113D01*
X014108Y020088D01*
X014093Y020065D01*
X014076Y020043D01*
X014056Y020025D01*
X014034Y020009D01*
X014010Y019997D01*
X013984Y019987D01*
X013957Y019982D01*
X013930Y019980D01*
X013930Y019560D02*
X013932Y019537D01*
X013937Y019514D01*
X013946Y019492D01*
X013959Y019472D01*
X013974Y019454D01*
X013992Y019439D01*
X014012Y019426D01*
X014034Y019417D01*
X014057Y019412D01*
X014080Y019410D01*
X017280Y019410D02*
X017303Y019412D01*
X017326Y019417D01*
X017348Y019426D01*
X017368Y019439D01*
X017386Y019454D01*
X017401Y019472D01*
X017414Y019492D01*
X017423Y019514D01*
X017428Y019537D01*
X017430Y019560D01*
X017430Y020800D01*
X017428Y020823D01*
X017423Y020846D01*
X017414Y020868D01*
X017401Y020888D01*
X017386Y020906D01*
X017368Y020921D01*
X017348Y020934D01*
X017326Y020943D01*
X017303Y020948D01*
X017280Y020950D01*
X019030Y020880D02*
X019030Y021480D01*
X019032Y021497D01*
X019036Y021514D01*
X019043Y021530D01*
X019053Y021544D01*
X019066Y021557D01*
X019080Y021567D01*
X019096Y021574D01*
X019113Y021578D01*
X019130Y021580D01*
X020230Y021580D01*
X020247Y021578D01*
X020264Y021574D01*
X020280Y021567D01*
X020294Y021557D01*
X020307Y021544D01*
X020317Y021530D01*
X020324Y021514D01*
X020328Y021497D01*
X020330Y021480D01*
X020330Y020880D01*
X020328Y020863D01*
X020324Y020846D01*
X020317Y020830D01*
X020307Y020816D01*
X020294Y020803D01*
X020280Y020793D01*
X020264Y020786D01*
X020247Y020782D01*
X020230Y020780D01*
X019130Y020780D01*
X019113Y020782D01*
X019096Y020786D01*
X019080Y020793D01*
X019066Y020803D01*
X019053Y020816D01*
X019043Y020830D01*
X019036Y020846D01*
X019032Y020863D01*
X019030Y020880D01*
X019130Y020080D02*
X020230Y020080D01*
X020247Y020078D01*
X020264Y020074D01*
X020280Y020067D01*
X020294Y020057D01*
X020307Y020044D01*
X020317Y020030D01*
X020324Y020014D01*
X020328Y019997D01*
X020330Y019980D01*
X020330Y019380D01*
X020328Y019363D01*
X020324Y019346D01*
X020317Y019330D01*
X020307Y019316D01*
X020294Y019303D01*
X020280Y019293D01*
X020264Y019286D01*
X020247Y019282D01*
X020230Y019280D01*
X019130Y019280D01*
X019113Y019282D01*
X019096Y019286D01*
X019080Y019293D01*
X019066Y019303D01*
X019053Y019316D01*
X019043Y019330D01*
X019036Y019346D01*
X019032Y019363D01*
X019030Y019380D01*
X019030Y019980D01*
X019032Y019997D01*
X019036Y020014D01*
X019043Y020030D01*
X019053Y020044D01*
X019066Y020057D01*
X019080Y020067D01*
X019096Y020074D01*
X019113Y020078D01*
X019130Y020080D01*
X030680Y017430D02*
X030680Y016930D01*
X030930Y016680D01*
X030680Y016430D01*
X030680Y015930D01*
X030930Y015680D01*
X030680Y015430D01*
X030680Y014930D01*
X030930Y014680D01*
X030680Y014430D01*
X030680Y013930D01*
X030930Y013680D01*
X030680Y013430D01*
X030680Y012930D01*
X030930Y012680D01*
X030680Y012430D01*
X030680Y011930D01*
X030930Y011680D01*
X030680Y011430D01*
X030680Y010930D01*
X030930Y010680D01*
X030680Y010430D01*
X030680Y009930D01*
X030930Y009680D01*
X030680Y009430D01*
X030680Y008930D01*
X030930Y008680D01*
X030680Y008430D01*
X030680Y007930D01*
X030930Y007680D01*
X030680Y007430D01*
X030680Y006930D01*
X030930Y006680D01*
X030680Y006430D01*
X030680Y005930D01*
X030930Y005680D01*
X031430Y005680D01*
X031680Y005930D01*
X031680Y006430D01*
X031430Y006680D01*
X031680Y006930D01*
X031680Y007430D01*
X031430Y007680D01*
X031680Y007930D01*
X031680Y008430D01*
X031430Y008680D01*
X031680Y008930D01*
X031680Y009430D01*
X031430Y009680D01*
X031680Y009930D01*
X031680Y010430D01*
X031430Y010680D01*
X031680Y010930D01*
X031680Y011430D01*
X031430Y011680D01*
X031680Y011930D01*
X031680Y012430D01*
X031430Y012680D01*
X031680Y012930D01*
X031680Y013430D01*
X031430Y013680D01*
X031680Y013930D01*
X031680Y014430D01*
X031430Y014680D01*
X031680Y014930D01*
X031680Y015430D01*
X031430Y015680D01*
X031680Y015930D01*
X031680Y016430D01*
X031430Y016680D01*
X031680Y016930D01*
X031680Y017430D01*
X031430Y017680D01*
X030930Y017680D01*
X030680Y017430D01*
X019480Y003080D02*
X009880Y003080D01*
X009830Y003030D02*
X010530Y003030D01*
X010530Y002330D01*
X009830Y002330D01*
X009830Y003030D01*
X009880Y003080D02*
X009854Y003078D01*
X009828Y003073D01*
X009803Y003065D01*
X009780Y003053D01*
X009758Y003039D01*
X009739Y003021D01*
X009721Y003002D01*
X009707Y002980D01*
X009695Y002957D01*
X009687Y002932D01*
X009682Y002906D01*
X009680Y002880D01*
X009680Y002480D01*
X009682Y002454D01*
X009687Y002428D01*
X009695Y002403D01*
X009707Y002380D01*
X009721Y002358D01*
X009739Y002339D01*
X009758Y002321D01*
X009780Y002307D01*
X009803Y002295D01*
X009828Y002287D01*
X009854Y002282D01*
X009880Y002280D01*
X019480Y002280D01*
X019506Y002282D01*
X019532Y002287D01*
X019557Y002295D01*
X019580Y002307D01*
X019602Y002321D01*
X019621Y002339D01*
X019639Y002358D01*
X019653Y002380D01*
X019665Y002403D01*
X019673Y002428D01*
X019678Y002454D01*
X019680Y002480D01*
X019680Y002880D01*
X019678Y002906D01*
X019673Y002932D01*
X019665Y002957D01*
X019653Y002980D01*
X019639Y003002D01*
X019621Y003021D01*
X019602Y003039D01*
X019580Y003053D01*
X019557Y003065D01*
X019532Y003073D01*
X019506Y003078D01*
X019480Y003080D01*
D12*
X017430Y019550D02*
X013930Y019550D01*
D13*
X012210Y019777D02*
X012210Y019930D01*
X012133Y020007D01*
X012210Y020160D02*
X012210Y020467D01*
X012210Y020314D02*
X011750Y020314D01*
X011903Y020160D01*
X011826Y020007D02*
X011750Y019930D01*
X011750Y019777D01*
X011826Y019700D01*
X012133Y019700D01*
X012210Y019777D01*
M02*
