G75*
%MOIN*%
%OFA0B0*%
%FSLAX24Y24*%
%IPPOS*%
%LPD*%
%AMOC8*
5,1,8,0,0,1.08239X$1,22.5*
%
%ADD10C,0.0000*%
D10*
X000680Y000680D02*
X030680Y000680D01*
X030680Y022180D01*
X000680Y022180D01*
X000680Y000680D01*
X001555Y002180D02*
X001557Y002230D01*
X001563Y002279D01*
X001573Y002328D01*
X001586Y002375D01*
X001604Y002422D01*
X001625Y002467D01*
X001649Y002510D01*
X001677Y002551D01*
X001708Y002590D01*
X001742Y002626D01*
X001779Y002660D01*
X001819Y002690D01*
X001860Y002717D01*
X001904Y002741D01*
X001949Y002761D01*
X001996Y002777D01*
X002044Y002790D01*
X002093Y002799D01*
X002143Y002804D01*
X002192Y002805D01*
X002242Y002802D01*
X002291Y002795D01*
X002340Y002784D01*
X002387Y002770D01*
X002433Y002751D01*
X002478Y002729D01*
X002521Y002704D01*
X002561Y002675D01*
X002599Y002643D01*
X002635Y002609D01*
X002668Y002571D01*
X002697Y002531D01*
X002723Y002489D01*
X002746Y002445D01*
X002765Y002399D01*
X002781Y002352D01*
X002793Y002303D01*
X002801Y002254D01*
X002805Y002205D01*
X002805Y002155D01*
X002801Y002106D01*
X002793Y002057D01*
X002781Y002008D01*
X002765Y001961D01*
X002746Y001915D01*
X002723Y001871D01*
X002697Y001829D01*
X002668Y001789D01*
X002635Y001751D01*
X002599Y001717D01*
X002561Y001685D01*
X002521Y001656D01*
X002478Y001631D01*
X002433Y001609D01*
X002387Y001590D01*
X002340Y001576D01*
X002291Y001565D01*
X002242Y001558D01*
X002192Y001555D01*
X002143Y001556D01*
X002093Y001561D01*
X002044Y001570D01*
X001996Y001583D01*
X001949Y001599D01*
X001904Y001619D01*
X001860Y001643D01*
X001819Y001670D01*
X001779Y001700D01*
X001742Y001734D01*
X001708Y001770D01*
X001677Y001809D01*
X001649Y001850D01*
X001625Y001893D01*
X001604Y001938D01*
X001586Y001985D01*
X001573Y002032D01*
X001563Y002081D01*
X001557Y002130D01*
X001555Y002180D01*
X005393Y007680D02*
X005395Y007736D01*
X005401Y007791D01*
X005411Y007845D01*
X005424Y007899D01*
X005442Y007952D01*
X005463Y008003D01*
X005487Y008053D01*
X005515Y008101D01*
X005547Y008147D01*
X005581Y008191D01*
X005619Y008232D01*
X005659Y008270D01*
X005702Y008305D01*
X005747Y008337D01*
X005795Y008366D01*
X005844Y008392D01*
X005895Y008414D01*
X005947Y008432D01*
X006001Y008446D01*
X006056Y008457D01*
X006111Y008464D01*
X006166Y008467D01*
X006222Y008466D01*
X006277Y008461D01*
X006332Y008452D01*
X006386Y008440D01*
X006439Y008423D01*
X006491Y008403D01*
X006541Y008379D01*
X006589Y008352D01*
X006636Y008322D01*
X006680Y008288D01*
X006722Y008251D01*
X006760Y008211D01*
X006797Y008169D01*
X006830Y008124D01*
X006859Y008078D01*
X006886Y008029D01*
X006908Y007978D01*
X006928Y007926D01*
X006943Y007872D01*
X006955Y007818D01*
X006963Y007763D01*
X006967Y007708D01*
X006967Y007652D01*
X006963Y007597D01*
X006955Y007542D01*
X006943Y007488D01*
X006928Y007434D01*
X006908Y007382D01*
X006886Y007331D01*
X006859Y007282D01*
X006830Y007236D01*
X006797Y007191D01*
X006760Y007149D01*
X006722Y007109D01*
X006680Y007072D01*
X006636Y007038D01*
X006589Y007008D01*
X006541Y006981D01*
X006491Y006957D01*
X006439Y006937D01*
X006386Y006920D01*
X006332Y006908D01*
X006277Y006899D01*
X006222Y006894D01*
X006166Y006893D01*
X006111Y006896D01*
X006056Y006903D01*
X006001Y006914D01*
X005947Y006928D01*
X005895Y006946D01*
X005844Y006968D01*
X005795Y006994D01*
X005747Y007023D01*
X005702Y007055D01*
X005659Y007090D01*
X005619Y007128D01*
X005581Y007169D01*
X005547Y007213D01*
X005515Y007259D01*
X005487Y007307D01*
X005463Y007357D01*
X005442Y007408D01*
X005424Y007461D01*
X005411Y007515D01*
X005401Y007569D01*
X005395Y007624D01*
X005393Y007680D01*
X012893Y007680D02*
X012895Y007736D01*
X012901Y007791D01*
X012911Y007845D01*
X012924Y007899D01*
X012942Y007952D01*
X012963Y008003D01*
X012987Y008053D01*
X013015Y008101D01*
X013047Y008147D01*
X013081Y008191D01*
X013119Y008232D01*
X013159Y008270D01*
X013202Y008305D01*
X013247Y008337D01*
X013295Y008366D01*
X013344Y008392D01*
X013395Y008414D01*
X013447Y008432D01*
X013501Y008446D01*
X013556Y008457D01*
X013611Y008464D01*
X013666Y008467D01*
X013722Y008466D01*
X013777Y008461D01*
X013832Y008452D01*
X013886Y008440D01*
X013939Y008423D01*
X013991Y008403D01*
X014041Y008379D01*
X014089Y008352D01*
X014136Y008322D01*
X014180Y008288D01*
X014222Y008251D01*
X014260Y008211D01*
X014297Y008169D01*
X014330Y008124D01*
X014359Y008078D01*
X014386Y008029D01*
X014408Y007978D01*
X014428Y007926D01*
X014443Y007872D01*
X014455Y007818D01*
X014463Y007763D01*
X014467Y007708D01*
X014467Y007652D01*
X014463Y007597D01*
X014455Y007542D01*
X014443Y007488D01*
X014428Y007434D01*
X014408Y007382D01*
X014386Y007331D01*
X014359Y007282D01*
X014330Y007236D01*
X014297Y007191D01*
X014260Y007149D01*
X014222Y007109D01*
X014180Y007072D01*
X014136Y007038D01*
X014089Y007008D01*
X014041Y006981D01*
X013991Y006957D01*
X013939Y006937D01*
X013886Y006920D01*
X013832Y006908D01*
X013777Y006899D01*
X013722Y006894D01*
X013666Y006893D01*
X013611Y006896D01*
X013556Y006903D01*
X013501Y006914D01*
X013447Y006928D01*
X013395Y006946D01*
X013344Y006968D01*
X013295Y006994D01*
X013247Y007023D01*
X013202Y007055D01*
X013159Y007090D01*
X013119Y007128D01*
X013081Y007169D01*
X013047Y007213D01*
X013015Y007259D01*
X012987Y007307D01*
X012963Y007357D01*
X012942Y007408D01*
X012924Y007461D01*
X012911Y007515D01*
X012901Y007569D01*
X012895Y007624D01*
X012893Y007680D01*
X015555Y002180D02*
X015557Y002230D01*
X015563Y002279D01*
X015573Y002328D01*
X015586Y002375D01*
X015604Y002422D01*
X015625Y002467D01*
X015649Y002510D01*
X015677Y002551D01*
X015708Y002590D01*
X015742Y002626D01*
X015779Y002660D01*
X015819Y002690D01*
X015860Y002717D01*
X015904Y002741D01*
X015949Y002761D01*
X015996Y002777D01*
X016044Y002790D01*
X016093Y002799D01*
X016143Y002804D01*
X016192Y002805D01*
X016242Y002802D01*
X016291Y002795D01*
X016340Y002784D01*
X016387Y002770D01*
X016433Y002751D01*
X016478Y002729D01*
X016521Y002704D01*
X016561Y002675D01*
X016599Y002643D01*
X016635Y002609D01*
X016668Y002571D01*
X016697Y002531D01*
X016723Y002489D01*
X016746Y002445D01*
X016765Y002399D01*
X016781Y002352D01*
X016793Y002303D01*
X016801Y002254D01*
X016805Y002205D01*
X016805Y002155D01*
X016801Y002106D01*
X016793Y002057D01*
X016781Y002008D01*
X016765Y001961D01*
X016746Y001915D01*
X016723Y001871D01*
X016697Y001829D01*
X016668Y001789D01*
X016635Y001751D01*
X016599Y001717D01*
X016561Y001685D01*
X016521Y001656D01*
X016478Y001631D01*
X016433Y001609D01*
X016387Y001590D01*
X016340Y001576D01*
X016291Y001565D01*
X016242Y001558D01*
X016192Y001555D01*
X016143Y001556D01*
X016093Y001561D01*
X016044Y001570D01*
X015996Y001583D01*
X015949Y001599D01*
X015904Y001619D01*
X015860Y001643D01*
X015819Y001670D01*
X015779Y001700D01*
X015742Y001734D01*
X015708Y001770D01*
X015677Y001809D01*
X015649Y001850D01*
X015625Y001893D01*
X015604Y001938D01*
X015586Y001985D01*
X015573Y002032D01*
X015563Y002081D01*
X015557Y002130D01*
X015555Y002180D01*
X023555Y007180D02*
X023557Y007230D01*
X023563Y007279D01*
X023573Y007328D01*
X023586Y007375D01*
X023604Y007422D01*
X023625Y007467D01*
X023649Y007510D01*
X023677Y007551D01*
X023708Y007590D01*
X023742Y007626D01*
X023779Y007660D01*
X023819Y007690D01*
X023860Y007717D01*
X023904Y007741D01*
X023949Y007761D01*
X023996Y007777D01*
X024044Y007790D01*
X024093Y007799D01*
X024143Y007804D01*
X024192Y007805D01*
X024242Y007802D01*
X024291Y007795D01*
X024340Y007784D01*
X024387Y007770D01*
X024433Y007751D01*
X024478Y007729D01*
X024521Y007704D01*
X024561Y007675D01*
X024599Y007643D01*
X024635Y007609D01*
X024668Y007571D01*
X024697Y007531D01*
X024723Y007489D01*
X024746Y007445D01*
X024765Y007399D01*
X024781Y007352D01*
X024793Y007303D01*
X024801Y007254D01*
X024805Y007205D01*
X024805Y007155D01*
X024801Y007106D01*
X024793Y007057D01*
X024781Y007008D01*
X024765Y006961D01*
X024746Y006915D01*
X024723Y006871D01*
X024697Y006829D01*
X024668Y006789D01*
X024635Y006751D01*
X024599Y006717D01*
X024561Y006685D01*
X024521Y006656D01*
X024478Y006631D01*
X024433Y006609D01*
X024387Y006590D01*
X024340Y006576D01*
X024291Y006565D01*
X024242Y006558D01*
X024192Y006555D01*
X024143Y006556D01*
X024093Y006561D01*
X024044Y006570D01*
X023996Y006583D01*
X023949Y006599D01*
X023904Y006619D01*
X023860Y006643D01*
X023819Y006670D01*
X023779Y006700D01*
X023742Y006734D01*
X023708Y006770D01*
X023677Y006809D01*
X023649Y006850D01*
X023625Y006893D01*
X023604Y006938D01*
X023586Y006985D01*
X023573Y007032D01*
X023563Y007081D01*
X023557Y007130D01*
X023555Y007180D01*
X028230Y009930D02*
X028232Y009982D01*
X028238Y010034D01*
X028248Y010086D01*
X028261Y010136D01*
X028278Y010186D01*
X028299Y010234D01*
X028324Y010280D01*
X028352Y010324D01*
X028383Y010366D01*
X028417Y010406D01*
X028454Y010443D01*
X028494Y010477D01*
X028536Y010508D01*
X028580Y010536D01*
X028626Y010561D01*
X028674Y010582D01*
X028724Y010599D01*
X028774Y010612D01*
X028826Y010622D01*
X028878Y010628D01*
X028930Y010630D01*
X028982Y010628D01*
X029034Y010622D01*
X029086Y010612D01*
X029136Y010599D01*
X029186Y010582D01*
X029234Y010561D01*
X029280Y010536D01*
X029324Y010508D01*
X029366Y010477D01*
X029406Y010443D01*
X029443Y010406D01*
X029477Y010366D01*
X029508Y010324D01*
X029536Y010280D01*
X029561Y010234D01*
X029582Y010186D01*
X029599Y010136D01*
X029612Y010086D01*
X029622Y010034D01*
X029628Y009982D01*
X029630Y009930D01*
X029628Y009878D01*
X029622Y009826D01*
X029612Y009774D01*
X029599Y009724D01*
X029582Y009674D01*
X029561Y009626D01*
X029536Y009580D01*
X029508Y009536D01*
X029477Y009494D01*
X029443Y009454D01*
X029406Y009417D01*
X029366Y009383D01*
X029324Y009352D01*
X029280Y009324D01*
X029234Y009299D01*
X029186Y009278D01*
X029136Y009261D01*
X029086Y009248D01*
X029034Y009238D01*
X028982Y009232D01*
X028930Y009230D01*
X028878Y009232D01*
X028826Y009238D01*
X028774Y009248D01*
X028724Y009261D01*
X028674Y009278D01*
X028626Y009299D01*
X028580Y009324D01*
X028536Y009352D01*
X028494Y009383D01*
X028454Y009417D01*
X028417Y009454D01*
X028383Y009494D01*
X028352Y009536D01*
X028324Y009580D01*
X028299Y009626D01*
X028278Y009674D01*
X028261Y009724D01*
X028248Y009774D01*
X028238Y009826D01*
X028232Y009878D01*
X028230Y009930D01*
X028230Y011930D02*
X028232Y011982D01*
X028238Y012034D01*
X028248Y012086D01*
X028261Y012136D01*
X028278Y012186D01*
X028299Y012234D01*
X028324Y012280D01*
X028352Y012324D01*
X028383Y012366D01*
X028417Y012406D01*
X028454Y012443D01*
X028494Y012477D01*
X028536Y012508D01*
X028580Y012536D01*
X028626Y012561D01*
X028674Y012582D01*
X028724Y012599D01*
X028774Y012612D01*
X028826Y012622D01*
X028878Y012628D01*
X028930Y012630D01*
X028982Y012628D01*
X029034Y012622D01*
X029086Y012612D01*
X029136Y012599D01*
X029186Y012582D01*
X029234Y012561D01*
X029280Y012536D01*
X029324Y012508D01*
X029366Y012477D01*
X029406Y012443D01*
X029443Y012406D01*
X029477Y012366D01*
X029508Y012324D01*
X029536Y012280D01*
X029561Y012234D01*
X029582Y012186D01*
X029599Y012136D01*
X029612Y012086D01*
X029622Y012034D01*
X029628Y011982D01*
X029630Y011930D01*
X029628Y011878D01*
X029622Y011826D01*
X029612Y011774D01*
X029599Y011724D01*
X029582Y011674D01*
X029561Y011626D01*
X029536Y011580D01*
X029508Y011536D01*
X029477Y011494D01*
X029443Y011454D01*
X029406Y011417D01*
X029366Y011383D01*
X029324Y011352D01*
X029280Y011324D01*
X029234Y011299D01*
X029186Y011278D01*
X029136Y011261D01*
X029086Y011248D01*
X029034Y011238D01*
X028982Y011232D01*
X028930Y011230D01*
X028878Y011232D01*
X028826Y011238D01*
X028774Y011248D01*
X028724Y011261D01*
X028674Y011278D01*
X028626Y011299D01*
X028580Y011324D01*
X028536Y011352D01*
X028494Y011383D01*
X028454Y011417D01*
X028417Y011454D01*
X028383Y011494D01*
X028352Y011536D01*
X028324Y011580D01*
X028299Y011626D01*
X028278Y011674D01*
X028261Y011724D01*
X028248Y011774D01*
X028238Y011826D01*
X028232Y011878D01*
X028230Y011930D01*
X028230Y018430D02*
X028232Y018482D01*
X028238Y018534D01*
X028248Y018586D01*
X028261Y018636D01*
X028278Y018686D01*
X028299Y018734D01*
X028324Y018780D01*
X028352Y018824D01*
X028383Y018866D01*
X028417Y018906D01*
X028454Y018943D01*
X028494Y018977D01*
X028536Y019008D01*
X028580Y019036D01*
X028626Y019061D01*
X028674Y019082D01*
X028724Y019099D01*
X028774Y019112D01*
X028826Y019122D01*
X028878Y019128D01*
X028930Y019130D01*
X028982Y019128D01*
X029034Y019122D01*
X029086Y019112D01*
X029136Y019099D01*
X029186Y019082D01*
X029234Y019061D01*
X029280Y019036D01*
X029324Y019008D01*
X029366Y018977D01*
X029406Y018943D01*
X029443Y018906D01*
X029477Y018866D01*
X029508Y018824D01*
X029536Y018780D01*
X029561Y018734D01*
X029582Y018686D01*
X029599Y018636D01*
X029612Y018586D01*
X029622Y018534D01*
X029628Y018482D01*
X029630Y018430D01*
X029628Y018378D01*
X029622Y018326D01*
X029612Y018274D01*
X029599Y018224D01*
X029582Y018174D01*
X029561Y018126D01*
X029536Y018080D01*
X029508Y018036D01*
X029477Y017994D01*
X029443Y017954D01*
X029406Y017917D01*
X029366Y017883D01*
X029324Y017852D01*
X029280Y017824D01*
X029234Y017799D01*
X029186Y017778D01*
X029136Y017761D01*
X029086Y017748D01*
X029034Y017738D01*
X028982Y017732D01*
X028930Y017730D01*
X028878Y017732D01*
X028826Y017738D01*
X028774Y017748D01*
X028724Y017761D01*
X028674Y017778D01*
X028626Y017799D01*
X028580Y017824D01*
X028536Y017852D01*
X028494Y017883D01*
X028454Y017917D01*
X028417Y017954D01*
X028383Y017994D01*
X028352Y018036D01*
X028324Y018080D01*
X028299Y018126D01*
X028278Y018174D01*
X028261Y018224D01*
X028248Y018274D01*
X028238Y018326D01*
X028232Y018378D01*
X028230Y018430D01*
X028230Y020430D02*
X028232Y020482D01*
X028238Y020534D01*
X028248Y020586D01*
X028261Y020636D01*
X028278Y020686D01*
X028299Y020734D01*
X028324Y020780D01*
X028352Y020824D01*
X028383Y020866D01*
X028417Y020906D01*
X028454Y020943D01*
X028494Y020977D01*
X028536Y021008D01*
X028580Y021036D01*
X028626Y021061D01*
X028674Y021082D01*
X028724Y021099D01*
X028774Y021112D01*
X028826Y021122D01*
X028878Y021128D01*
X028930Y021130D01*
X028982Y021128D01*
X029034Y021122D01*
X029086Y021112D01*
X029136Y021099D01*
X029186Y021082D01*
X029234Y021061D01*
X029280Y021036D01*
X029324Y021008D01*
X029366Y020977D01*
X029406Y020943D01*
X029443Y020906D01*
X029477Y020866D01*
X029508Y020824D01*
X029536Y020780D01*
X029561Y020734D01*
X029582Y020686D01*
X029599Y020636D01*
X029612Y020586D01*
X029622Y020534D01*
X029628Y020482D01*
X029630Y020430D01*
X029628Y020378D01*
X029622Y020326D01*
X029612Y020274D01*
X029599Y020224D01*
X029582Y020174D01*
X029561Y020126D01*
X029536Y020080D01*
X029508Y020036D01*
X029477Y019994D01*
X029443Y019954D01*
X029406Y019917D01*
X029366Y019883D01*
X029324Y019852D01*
X029280Y019824D01*
X029234Y019799D01*
X029186Y019778D01*
X029136Y019761D01*
X029086Y019748D01*
X029034Y019738D01*
X028982Y019732D01*
X028930Y019730D01*
X028878Y019732D01*
X028826Y019738D01*
X028774Y019748D01*
X028724Y019761D01*
X028674Y019778D01*
X028626Y019799D01*
X028580Y019824D01*
X028536Y019852D01*
X028494Y019883D01*
X028454Y019917D01*
X028417Y019954D01*
X028383Y019994D01*
X028352Y020036D01*
X028324Y020080D01*
X028299Y020126D01*
X028278Y020174D01*
X028261Y020224D01*
X028248Y020274D01*
X028238Y020326D01*
X028232Y020378D01*
X028230Y020430D01*
X015555Y020180D02*
X015557Y020230D01*
X015563Y020279D01*
X015573Y020328D01*
X015586Y020375D01*
X015604Y020422D01*
X015625Y020467D01*
X015649Y020510D01*
X015677Y020551D01*
X015708Y020590D01*
X015742Y020626D01*
X015779Y020660D01*
X015819Y020690D01*
X015860Y020717D01*
X015904Y020741D01*
X015949Y020761D01*
X015996Y020777D01*
X016044Y020790D01*
X016093Y020799D01*
X016143Y020804D01*
X016192Y020805D01*
X016242Y020802D01*
X016291Y020795D01*
X016340Y020784D01*
X016387Y020770D01*
X016433Y020751D01*
X016478Y020729D01*
X016521Y020704D01*
X016561Y020675D01*
X016599Y020643D01*
X016635Y020609D01*
X016668Y020571D01*
X016697Y020531D01*
X016723Y020489D01*
X016746Y020445D01*
X016765Y020399D01*
X016781Y020352D01*
X016793Y020303D01*
X016801Y020254D01*
X016805Y020205D01*
X016805Y020155D01*
X016801Y020106D01*
X016793Y020057D01*
X016781Y020008D01*
X016765Y019961D01*
X016746Y019915D01*
X016723Y019871D01*
X016697Y019829D01*
X016668Y019789D01*
X016635Y019751D01*
X016599Y019717D01*
X016561Y019685D01*
X016521Y019656D01*
X016478Y019631D01*
X016433Y019609D01*
X016387Y019590D01*
X016340Y019576D01*
X016291Y019565D01*
X016242Y019558D01*
X016192Y019555D01*
X016143Y019556D01*
X016093Y019561D01*
X016044Y019570D01*
X015996Y019583D01*
X015949Y019599D01*
X015904Y019619D01*
X015860Y019643D01*
X015819Y019670D01*
X015779Y019700D01*
X015742Y019734D01*
X015708Y019770D01*
X015677Y019809D01*
X015649Y019850D01*
X015625Y019893D01*
X015604Y019938D01*
X015586Y019985D01*
X015573Y020032D01*
X015563Y020081D01*
X015557Y020130D01*
X015555Y020180D01*
X012893Y015180D02*
X012895Y015236D01*
X012901Y015291D01*
X012911Y015345D01*
X012924Y015399D01*
X012942Y015452D01*
X012963Y015503D01*
X012987Y015553D01*
X013015Y015601D01*
X013047Y015647D01*
X013081Y015691D01*
X013119Y015732D01*
X013159Y015770D01*
X013202Y015805D01*
X013247Y015837D01*
X013295Y015866D01*
X013344Y015892D01*
X013395Y015914D01*
X013447Y015932D01*
X013501Y015946D01*
X013556Y015957D01*
X013611Y015964D01*
X013666Y015967D01*
X013722Y015966D01*
X013777Y015961D01*
X013832Y015952D01*
X013886Y015940D01*
X013939Y015923D01*
X013991Y015903D01*
X014041Y015879D01*
X014089Y015852D01*
X014136Y015822D01*
X014180Y015788D01*
X014222Y015751D01*
X014260Y015711D01*
X014297Y015669D01*
X014330Y015624D01*
X014359Y015578D01*
X014386Y015529D01*
X014408Y015478D01*
X014428Y015426D01*
X014443Y015372D01*
X014455Y015318D01*
X014463Y015263D01*
X014467Y015208D01*
X014467Y015152D01*
X014463Y015097D01*
X014455Y015042D01*
X014443Y014988D01*
X014428Y014934D01*
X014408Y014882D01*
X014386Y014831D01*
X014359Y014782D01*
X014330Y014736D01*
X014297Y014691D01*
X014260Y014649D01*
X014222Y014609D01*
X014180Y014572D01*
X014136Y014538D01*
X014089Y014508D01*
X014041Y014481D01*
X013991Y014457D01*
X013939Y014437D01*
X013886Y014420D01*
X013832Y014408D01*
X013777Y014399D01*
X013722Y014394D01*
X013666Y014393D01*
X013611Y014396D01*
X013556Y014403D01*
X013501Y014414D01*
X013447Y014428D01*
X013395Y014446D01*
X013344Y014468D01*
X013295Y014494D01*
X013247Y014523D01*
X013202Y014555D01*
X013159Y014590D01*
X013119Y014628D01*
X013081Y014669D01*
X013047Y014713D01*
X013015Y014759D01*
X012987Y014807D01*
X012963Y014857D01*
X012942Y014908D01*
X012924Y014961D01*
X012911Y015015D01*
X012901Y015069D01*
X012895Y015124D01*
X012893Y015180D01*
X005393Y015180D02*
X005395Y015236D01*
X005401Y015291D01*
X005411Y015345D01*
X005424Y015399D01*
X005442Y015452D01*
X005463Y015503D01*
X005487Y015553D01*
X005515Y015601D01*
X005547Y015647D01*
X005581Y015691D01*
X005619Y015732D01*
X005659Y015770D01*
X005702Y015805D01*
X005747Y015837D01*
X005795Y015866D01*
X005844Y015892D01*
X005895Y015914D01*
X005947Y015932D01*
X006001Y015946D01*
X006056Y015957D01*
X006111Y015964D01*
X006166Y015967D01*
X006222Y015966D01*
X006277Y015961D01*
X006332Y015952D01*
X006386Y015940D01*
X006439Y015923D01*
X006491Y015903D01*
X006541Y015879D01*
X006589Y015852D01*
X006636Y015822D01*
X006680Y015788D01*
X006722Y015751D01*
X006760Y015711D01*
X006797Y015669D01*
X006830Y015624D01*
X006859Y015578D01*
X006886Y015529D01*
X006908Y015478D01*
X006928Y015426D01*
X006943Y015372D01*
X006955Y015318D01*
X006963Y015263D01*
X006967Y015208D01*
X006967Y015152D01*
X006963Y015097D01*
X006955Y015042D01*
X006943Y014988D01*
X006928Y014934D01*
X006908Y014882D01*
X006886Y014831D01*
X006859Y014782D01*
X006830Y014736D01*
X006797Y014691D01*
X006760Y014649D01*
X006722Y014609D01*
X006680Y014572D01*
X006636Y014538D01*
X006589Y014508D01*
X006541Y014481D01*
X006491Y014457D01*
X006439Y014437D01*
X006386Y014420D01*
X006332Y014408D01*
X006277Y014399D01*
X006222Y014394D01*
X006166Y014393D01*
X006111Y014396D01*
X006056Y014403D01*
X006001Y014414D01*
X005947Y014428D01*
X005895Y014446D01*
X005844Y014468D01*
X005795Y014494D01*
X005747Y014523D01*
X005702Y014555D01*
X005659Y014590D01*
X005619Y014628D01*
X005581Y014669D01*
X005547Y014713D01*
X005515Y014759D01*
X005487Y014807D01*
X005463Y014857D01*
X005442Y014908D01*
X005424Y014961D01*
X005411Y015015D01*
X005401Y015069D01*
X005395Y015124D01*
X005393Y015180D01*
X001555Y020180D02*
X001557Y020230D01*
X001563Y020279D01*
X001573Y020328D01*
X001586Y020375D01*
X001604Y020422D01*
X001625Y020467D01*
X001649Y020510D01*
X001677Y020551D01*
X001708Y020590D01*
X001742Y020626D01*
X001779Y020660D01*
X001819Y020690D01*
X001860Y020717D01*
X001904Y020741D01*
X001949Y020761D01*
X001996Y020777D01*
X002044Y020790D01*
X002093Y020799D01*
X002143Y020804D01*
X002192Y020805D01*
X002242Y020802D01*
X002291Y020795D01*
X002340Y020784D01*
X002387Y020770D01*
X002433Y020751D01*
X002478Y020729D01*
X002521Y020704D01*
X002561Y020675D01*
X002599Y020643D01*
X002635Y020609D01*
X002668Y020571D01*
X002697Y020531D01*
X002723Y020489D01*
X002746Y020445D01*
X002765Y020399D01*
X002781Y020352D01*
X002793Y020303D01*
X002801Y020254D01*
X002805Y020205D01*
X002805Y020155D01*
X002801Y020106D01*
X002793Y020057D01*
X002781Y020008D01*
X002765Y019961D01*
X002746Y019915D01*
X002723Y019871D01*
X002697Y019829D01*
X002668Y019789D01*
X002635Y019751D01*
X002599Y019717D01*
X002561Y019685D01*
X002521Y019656D01*
X002478Y019631D01*
X002433Y019609D01*
X002387Y019590D01*
X002340Y019576D01*
X002291Y019565D01*
X002242Y019558D01*
X002192Y019555D01*
X002143Y019556D01*
X002093Y019561D01*
X002044Y019570D01*
X001996Y019583D01*
X001949Y019599D01*
X001904Y019619D01*
X001860Y019643D01*
X001819Y019670D01*
X001779Y019700D01*
X001742Y019734D01*
X001708Y019770D01*
X001677Y019809D01*
X001649Y019850D01*
X001625Y019893D01*
X001604Y019938D01*
X001586Y019985D01*
X001573Y020032D01*
X001563Y020081D01*
X001557Y020130D01*
X001555Y020180D01*
M02*
