G75*
%MOIN*%
%OFA0B0*%
%FSLAX24Y24*%
%IPPOS*%
%LPD*%
%AMOC8*
5,1,8,0,0,1.08239X$1,22.5*
%
%ADD10C,0.1330*%
%ADD11C,0.0966*%
%ADD12C,0.1092*%
%ADD13C,0.1655*%
%ADD14C,0.0740*%
%ADD15C,0.0720*%
%ADD16C,0.0640*%
%ADD17OC8,0.0720*%
%ADD18R,0.0340X0.0880*%
%ADD19R,0.0540X0.0710*%
%ADD20R,0.0060X0.0720*%
%ADD21R,0.0789X0.0710*%
D10*
X002180Y002180D03*
X002180Y020680D03*
X030680Y020680D03*
X030680Y002180D03*
D11*
X025180Y008680D03*
X027680Y009680D03*
X020180Y009680D03*
X017680Y008680D03*
X012680Y009680D03*
X010180Y008680D03*
X005180Y009680D03*
X002680Y008680D03*
X002680Y016180D03*
X005180Y017180D03*
X010180Y016180D03*
X012680Y017180D03*
X017680Y016180D03*
X020180Y017180D03*
X025180Y016180D03*
X027680Y017180D03*
D12*
X028680Y015180D03*
X024680Y015180D03*
X021180Y015180D03*
X017180Y015180D03*
X013680Y015180D03*
X009680Y015180D03*
X006180Y015180D03*
X002180Y015180D03*
X002180Y007680D03*
X006180Y007680D03*
X009680Y007680D03*
X013680Y007680D03*
X017180Y007680D03*
X021180Y007680D03*
X024680Y007680D03*
X028680Y007680D03*
D13*
X026680Y007680D03*
X019180Y007680D03*
X011680Y007680D03*
X004180Y007680D03*
X004180Y015180D03*
X011680Y015180D03*
X019180Y015180D03*
X026680Y015180D03*
D14*
X026180Y013180D03*
X027180Y013180D03*
X019680Y013180D03*
X018680Y013180D03*
X012180Y013180D03*
X011180Y013180D03*
X004680Y013180D03*
X003680Y013180D03*
X003680Y005680D03*
X004680Y005680D03*
X011180Y005680D03*
X012180Y005680D03*
X018680Y005680D03*
X019680Y005680D03*
X026180Y005680D03*
X027180Y005680D03*
D15*
X030860Y006180D02*
X031500Y006180D01*
X031500Y007180D02*
X030860Y007180D01*
X030860Y008180D02*
X031500Y008180D01*
X031500Y009180D02*
X030860Y009180D01*
X030860Y010180D02*
X031500Y010180D01*
X031500Y011180D02*
X030860Y011180D01*
X030860Y012180D02*
X031500Y012180D01*
X031500Y013180D02*
X030860Y013180D01*
X030860Y014180D02*
X031500Y014180D01*
X031500Y015180D02*
X030860Y015180D01*
X030860Y016180D02*
X031500Y016180D01*
X031500Y017180D02*
X030860Y017180D01*
D16*
X019180Y002960D02*
X019180Y002400D01*
X018180Y002400D02*
X018180Y002960D01*
X017180Y002960D02*
X017180Y002400D01*
X016180Y002400D02*
X016180Y002960D01*
X015180Y002960D02*
X015180Y002400D01*
X014180Y002400D02*
X014180Y002960D01*
X013180Y002960D02*
X013180Y002400D01*
X012180Y002400D02*
X012180Y002960D01*
X011180Y002960D02*
X011180Y002400D01*
X010180Y002400D02*
X010180Y002960D01*
D17*
X020180Y002680D03*
D18*
X017180Y018970D03*
X016680Y018970D03*
X016180Y018970D03*
X015680Y018970D03*
X015180Y018970D03*
X014680Y018970D03*
X014180Y018970D03*
X014180Y021390D03*
X014680Y021390D03*
X015180Y021390D03*
X015680Y021390D03*
X016180Y021390D03*
X016680Y021390D03*
X017180Y021390D03*
D19*
X019380Y021180D03*
X019980Y021180D03*
X019980Y019680D03*
X019380Y019680D03*
D20*
X019680Y019680D03*
X019680Y021180D03*
D21*
X012680Y020731D03*
X012680Y019629D03*
M02*
