G75*
%MOIN*%
%OFA0B0*%
%FSLAX24Y24*%
%IPPOS*%
%LPD*%
%AMOC8*
5,1,8,0,0,1.08239X$1,22.5*
%
%ADD10C,0.0000*%
D10*
X000680Y000680D02*
X000680Y022180D01*
X032180Y022180D01*
X032180Y000680D01*
X000680Y000680D01*
X001555Y002180D02*
X001557Y002230D01*
X001563Y002279D01*
X001573Y002328D01*
X001586Y002375D01*
X001604Y002422D01*
X001625Y002467D01*
X001649Y002510D01*
X001677Y002551D01*
X001708Y002590D01*
X001742Y002626D01*
X001779Y002660D01*
X001819Y002690D01*
X001860Y002717D01*
X001904Y002741D01*
X001949Y002761D01*
X001996Y002777D01*
X002044Y002790D01*
X002093Y002799D01*
X002143Y002804D01*
X002192Y002805D01*
X002242Y002802D01*
X002291Y002795D01*
X002340Y002784D01*
X002387Y002770D01*
X002433Y002751D01*
X002478Y002729D01*
X002521Y002704D01*
X002561Y002675D01*
X002599Y002643D01*
X002635Y002609D01*
X002668Y002571D01*
X002697Y002531D01*
X002723Y002489D01*
X002746Y002445D01*
X002765Y002399D01*
X002781Y002352D01*
X002793Y002303D01*
X002801Y002254D01*
X002805Y002205D01*
X002805Y002155D01*
X002801Y002106D01*
X002793Y002057D01*
X002781Y002008D01*
X002765Y001961D01*
X002746Y001915D01*
X002723Y001871D01*
X002697Y001829D01*
X002668Y001789D01*
X002635Y001751D01*
X002599Y001717D01*
X002561Y001685D01*
X002521Y001656D01*
X002478Y001631D01*
X002433Y001609D01*
X002387Y001590D01*
X002340Y001576D01*
X002291Y001565D01*
X002242Y001558D01*
X002192Y001555D01*
X002143Y001556D01*
X002093Y001561D01*
X002044Y001570D01*
X001996Y001583D01*
X001949Y001599D01*
X001904Y001619D01*
X001860Y001643D01*
X001819Y001670D01*
X001779Y001700D01*
X001742Y001734D01*
X001708Y001770D01*
X001677Y001809D01*
X001649Y001850D01*
X001625Y001893D01*
X001604Y001938D01*
X001586Y001985D01*
X001573Y002032D01*
X001563Y002081D01*
X001557Y002130D01*
X001555Y002180D01*
X003393Y007680D02*
X003395Y007736D01*
X003401Y007791D01*
X003411Y007845D01*
X003424Y007899D01*
X003442Y007952D01*
X003463Y008003D01*
X003487Y008053D01*
X003515Y008101D01*
X003547Y008147D01*
X003581Y008191D01*
X003619Y008232D01*
X003659Y008270D01*
X003702Y008305D01*
X003747Y008337D01*
X003795Y008366D01*
X003844Y008392D01*
X003895Y008414D01*
X003947Y008432D01*
X004001Y008446D01*
X004056Y008457D01*
X004111Y008464D01*
X004166Y008467D01*
X004222Y008466D01*
X004277Y008461D01*
X004332Y008452D01*
X004386Y008440D01*
X004439Y008423D01*
X004491Y008403D01*
X004541Y008379D01*
X004589Y008352D01*
X004636Y008322D01*
X004680Y008288D01*
X004722Y008251D01*
X004760Y008211D01*
X004797Y008169D01*
X004830Y008124D01*
X004859Y008078D01*
X004886Y008029D01*
X004908Y007978D01*
X004928Y007926D01*
X004943Y007872D01*
X004955Y007818D01*
X004963Y007763D01*
X004967Y007708D01*
X004967Y007652D01*
X004963Y007597D01*
X004955Y007542D01*
X004943Y007488D01*
X004928Y007434D01*
X004908Y007382D01*
X004886Y007331D01*
X004859Y007282D01*
X004830Y007236D01*
X004797Y007191D01*
X004760Y007149D01*
X004722Y007109D01*
X004680Y007072D01*
X004636Y007038D01*
X004589Y007008D01*
X004541Y006981D01*
X004491Y006957D01*
X004439Y006937D01*
X004386Y006920D01*
X004332Y006908D01*
X004277Y006899D01*
X004222Y006894D01*
X004166Y006893D01*
X004111Y006896D01*
X004056Y006903D01*
X004001Y006914D01*
X003947Y006928D01*
X003895Y006946D01*
X003844Y006968D01*
X003795Y006994D01*
X003747Y007023D01*
X003702Y007055D01*
X003659Y007090D01*
X003619Y007128D01*
X003581Y007169D01*
X003547Y007213D01*
X003515Y007259D01*
X003487Y007307D01*
X003463Y007357D01*
X003442Y007408D01*
X003424Y007461D01*
X003411Y007515D01*
X003401Y007569D01*
X003395Y007624D01*
X003393Y007680D01*
X010893Y007680D02*
X010895Y007736D01*
X010901Y007791D01*
X010911Y007845D01*
X010924Y007899D01*
X010942Y007952D01*
X010963Y008003D01*
X010987Y008053D01*
X011015Y008101D01*
X011047Y008147D01*
X011081Y008191D01*
X011119Y008232D01*
X011159Y008270D01*
X011202Y008305D01*
X011247Y008337D01*
X011295Y008366D01*
X011344Y008392D01*
X011395Y008414D01*
X011447Y008432D01*
X011501Y008446D01*
X011556Y008457D01*
X011611Y008464D01*
X011666Y008467D01*
X011722Y008466D01*
X011777Y008461D01*
X011832Y008452D01*
X011886Y008440D01*
X011939Y008423D01*
X011991Y008403D01*
X012041Y008379D01*
X012089Y008352D01*
X012136Y008322D01*
X012180Y008288D01*
X012222Y008251D01*
X012260Y008211D01*
X012297Y008169D01*
X012330Y008124D01*
X012359Y008078D01*
X012386Y008029D01*
X012408Y007978D01*
X012428Y007926D01*
X012443Y007872D01*
X012455Y007818D01*
X012463Y007763D01*
X012467Y007708D01*
X012467Y007652D01*
X012463Y007597D01*
X012455Y007542D01*
X012443Y007488D01*
X012428Y007434D01*
X012408Y007382D01*
X012386Y007331D01*
X012359Y007282D01*
X012330Y007236D01*
X012297Y007191D01*
X012260Y007149D01*
X012222Y007109D01*
X012180Y007072D01*
X012136Y007038D01*
X012089Y007008D01*
X012041Y006981D01*
X011991Y006957D01*
X011939Y006937D01*
X011886Y006920D01*
X011832Y006908D01*
X011777Y006899D01*
X011722Y006894D01*
X011666Y006893D01*
X011611Y006896D01*
X011556Y006903D01*
X011501Y006914D01*
X011447Y006928D01*
X011395Y006946D01*
X011344Y006968D01*
X011295Y006994D01*
X011247Y007023D01*
X011202Y007055D01*
X011159Y007090D01*
X011119Y007128D01*
X011081Y007169D01*
X011047Y007213D01*
X011015Y007259D01*
X010987Y007307D01*
X010963Y007357D01*
X010942Y007408D01*
X010924Y007461D01*
X010911Y007515D01*
X010901Y007569D01*
X010895Y007624D01*
X010893Y007680D01*
X018393Y007680D02*
X018395Y007736D01*
X018401Y007791D01*
X018411Y007845D01*
X018424Y007899D01*
X018442Y007952D01*
X018463Y008003D01*
X018487Y008053D01*
X018515Y008101D01*
X018547Y008147D01*
X018581Y008191D01*
X018619Y008232D01*
X018659Y008270D01*
X018702Y008305D01*
X018747Y008337D01*
X018795Y008366D01*
X018844Y008392D01*
X018895Y008414D01*
X018947Y008432D01*
X019001Y008446D01*
X019056Y008457D01*
X019111Y008464D01*
X019166Y008467D01*
X019222Y008466D01*
X019277Y008461D01*
X019332Y008452D01*
X019386Y008440D01*
X019439Y008423D01*
X019491Y008403D01*
X019541Y008379D01*
X019589Y008352D01*
X019636Y008322D01*
X019680Y008288D01*
X019722Y008251D01*
X019760Y008211D01*
X019797Y008169D01*
X019830Y008124D01*
X019859Y008078D01*
X019886Y008029D01*
X019908Y007978D01*
X019928Y007926D01*
X019943Y007872D01*
X019955Y007818D01*
X019963Y007763D01*
X019967Y007708D01*
X019967Y007652D01*
X019963Y007597D01*
X019955Y007542D01*
X019943Y007488D01*
X019928Y007434D01*
X019908Y007382D01*
X019886Y007331D01*
X019859Y007282D01*
X019830Y007236D01*
X019797Y007191D01*
X019760Y007149D01*
X019722Y007109D01*
X019680Y007072D01*
X019636Y007038D01*
X019589Y007008D01*
X019541Y006981D01*
X019491Y006957D01*
X019439Y006937D01*
X019386Y006920D01*
X019332Y006908D01*
X019277Y006899D01*
X019222Y006894D01*
X019166Y006893D01*
X019111Y006896D01*
X019056Y006903D01*
X019001Y006914D01*
X018947Y006928D01*
X018895Y006946D01*
X018844Y006968D01*
X018795Y006994D01*
X018747Y007023D01*
X018702Y007055D01*
X018659Y007090D01*
X018619Y007128D01*
X018581Y007169D01*
X018547Y007213D01*
X018515Y007259D01*
X018487Y007307D01*
X018463Y007357D01*
X018442Y007408D01*
X018424Y007461D01*
X018411Y007515D01*
X018401Y007569D01*
X018395Y007624D01*
X018393Y007680D01*
X025893Y007680D02*
X025895Y007736D01*
X025901Y007791D01*
X025911Y007845D01*
X025924Y007899D01*
X025942Y007952D01*
X025963Y008003D01*
X025987Y008053D01*
X026015Y008101D01*
X026047Y008147D01*
X026081Y008191D01*
X026119Y008232D01*
X026159Y008270D01*
X026202Y008305D01*
X026247Y008337D01*
X026295Y008366D01*
X026344Y008392D01*
X026395Y008414D01*
X026447Y008432D01*
X026501Y008446D01*
X026556Y008457D01*
X026611Y008464D01*
X026666Y008467D01*
X026722Y008466D01*
X026777Y008461D01*
X026832Y008452D01*
X026886Y008440D01*
X026939Y008423D01*
X026991Y008403D01*
X027041Y008379D01*
X027089Y008352D01*
X027136Y008322D01*
X027180Y008288D01*
X027222Y008251D01*
X027260Y008211D01*
X027297Y008169D01*
X027330Y008124D01*
X027359Y008078D01*
X027386Y008029D01*
X027408Y007978D01*
X027428Y007926D01*
X027443Y007872D01*
X027455Y007818D01*
X027463Y007763D01*
X027467Y007708D01*
X027467Y007652D01*
X027463Y007597D01*
X027455Y007542D01*
X027443Y007488D01*
X027428Y007434D01*
X027408Y007382D01*
X027386Y007331D01*
X027359Y007282D01*
X027330Y007236D01*
X027297Y007191D01*
X027260Y007149D01*
X027222Y007109D01*
X027180Y007072D01*
X027136Y007038D01*
X027089Y007008D01*
X027041Y006981D01*
X026991Y006957D01*
X026939Y006937D01*
X026886Y006920D01*
X026832Y006908D01*
X026777Y006899D01*
X026722Y006894D01*
X026666Y006893D01*
X026611Y006896D01*
X026556Y006903D01*
X026501Y006914D01*
X026447Y006928D01*
X026395Y006946D01*
X026344Y006968D01*
X026295Y006994D01*
X026247Y007023D01*
X026202Y007055D01*
X026159Y007090D01*
X026119Y007128D01*
X026081Y007169D01*
X026047Y007213D01*
X026015Y007259D01*
X025987Y007307D01*
X025963Y007357D01*
X025942Y007408D01*
X025924Y007461D01*
X025911Y007515D01*
X025901Y007569D01*
X025895Y007624D01*
X025893Y007680D01*
X030055Y002180D02*
X030057Y002230D01*
X030063Y002279D01*
X030073Y002328D01*
X030086Y002375D01*
X030104Y002422D01*
X030125Y002467D01*
X030149Y002510D01*
X030177Y002551D01*
X030208Y002590D01*
X030242Y002626D01*
X030279Y002660D01*
X030319Y002690D01*
X030360Y002717D01*
X030404Y002741D01*
X030449Y002761D01*
X030496Y002777D01*
X030544Y002790D01*
X030593Y002799D01*
X030643Y002804D01*
X030692Y002805D01*
X030742Y002802D01*
X030791Y002795D01*
X030840Y002784D01*
X030887Y002770D01*
X030933Y002751D01*
X030978Y002729D01*
X031021Y002704D01*
X031061Y002675D01*
X031099Y002643D01*
X031135Y002609D01*
X031168Y002571D01*
X031197Y002531D01*
X031223Y002489D01*
X031246Y002445D01*
X031265Y002399D01*
X031281Y002352D01*
X031293Y002303D01*
X031301Y002254D01*
X031305Y002205D01*
X031305Y002155D01*
X031301Y002106D01*
X031293Y002057D01*
X031281Y002008D01*
X031265Y001961D01*
X031246Y001915D01*
X031223Y001871D01*
X031197Y001829D01*
X031168Y001789D01*
X031135Y001751D01*
X031099Y001717D01*
X031061Y001685D01*
X031021Y001656D01*
X030978Y001631D01*
X030933Y001609D01*
X030887Y001590D01*
X030840Y001576D01*
X030791Y001565D01*
X030742Y001558D01*
X030692Y001555D01*
X030643Y001556D01*
X030593Y001561D01*
X030544Y001570D01*
X030496Y001583D01*
X030449Y001599D01*
X030404Y001619D01*
X030360Y001643D01*
X030319Y001670D01*
X030279Y001700D01*
X030242Y001734D01*
X030208Y001770D01*
X030177Y001809D01*
X030149Y001850D01*
X030125Y001893D01*
X030104Y001938D01*
X030086Y001985D01*
X030073Y002032D01*
X030063Y002081D01*
X030057Y002130D01*
X030055Y002180D01*
X025893Y015180D02*
X025895Y015236D01*
X025901Y015291D01*
X025911Y015345D01*
X025924Y015399D01*
X025942Y015452D01*
X025963Y015503D01*
X025987Y015553D01*
X026015Y015601D01*
X026047Y015647D01*
X026081Y015691D01*
X026119Y015732D01*
X026159Y015770D01*
X026202Y015805D01*
X026247Y015837D01*
X026295Y015866D01*
X026344Y015892D01*
X026395Y015914D01*
X026447Y015932D01*
X026501Y015946D01*
X026556Y015957D01*
X026611Y015964D01*
X026666Y015967D01*
X026722Y015966D01*
X026777Y015961D01*
X026832Y015952D01*
X026886Y015940D01*
X026939Y015923D01*
X026991Y015903D01*
X027041Y015879D01*
X027089Y015852D01*
X027136Y015822D01*
X027180Y015788D01*
X027222Y015751D01*
X027260Y015711D01*
X027297Y015669D01*
X027330Y015624D01*
X027359Y015578D01*
X027386Y015529D01*
X027408Y015478D01*
X027428Y015426D01*
X027443Y015372D01*
X027455Y015318D01*
X027463Y015263D01*
X027467Y015208D01*
X027467Y015152D01*
X027463Y015097D01*
X027455Y015042D01*
X027443Y014988D01*
X027428Y014934D01*
X027408Y014882D01*
X027386Y014831D01*
X027359Y014782D01*
X027330Y014736D01*
X027297Y014691D01*
X027260Y014649D01*
X027222Y014609D01*
X027180Y014572D01*
X027136Y014538D01*
X027089Y014508D01*
X027041Y014481D01*
X026991Y014457D01*
X026939Y014437D01*
X026886Y014420D01*
X026832Y014408D01*
X026777Y014399D01*
X026722Y014394D01*
X026666Y014393D01*
X026611Y014396D01*
X026556Y014403D01*
X026501Y014414D01*
X026447Y014428D01*
X026395Y014446D01*
X026344Y014468D01*
X026295Y014494D01*
X026247Y014523D01*
X026202Y014555D01*
X026159Y014590D01*
X026119Y014628D01*
X026081Y014669D01*
X026047Y014713D01*
X026015Y014759D01*
X025987Y014807D01*
X025963Y014857D01*
X025942Y014908D01*
X025924Y014961D01*
X025911Y015015D01*
X025901Y015069D01*
X025895Y015124D01*
X025893Y015180D01*
X018393Y015180D02*
X018395Y015236D01*
X018401Y015291D01*
X018411Y015345D01*
X018424Y015399D01*
X018442Y015452D01*
X018463Y015503D01*
X018487Y015553D01*
X018515Y015601D01*
X018547Y015647D01*
X018581Y015691D01*
X018619Y015732D01*
X018659Y015770D01*
X018702Y015805D01*
X018747Y015837D01*
X018795Y015866D01*
X018844Y015892D01*
X018895Y015914D01*
X018947Y015932D01*
X019001Y015946D01*
X019056Y015957D01*
X019111Y015964D01*
X019166Y015967D01*
X019222Y015966D01*
X019277Y015961D01*
X019332Y015952D01*
X019386Y015940D01*
X019439Y015923D01*
X019491Y015903D01*
X019541Y015879D01*
X019589Y015852D01*
X019636Y015822D01*
X019680Y015788D01*
X019722Y015751D01*
X019760Y015711D01*
X019797Y015669D01*
X019830Y015624D01*
X019859Y015578D01*
X019886Y015529D01*
X019908Y015478D01*
X019928Y015426D01*
X019943Y015372D01*
X019955Y015318D01*
X019963Y015263D01*
X019967Y015208D01*
X019967Y015152D01*
X019963Y015097D01*
X019955Y015042D01*
X019943Y014988D01*
X019928Y014934D01*
X019908Y014882D01*
X019886Y014831D01*
X019859Y014782D01*
X019830Y014736D01*
X019797Y014691D01*
X019760Y014649D01*
X019722Y014609D01*
X019680Y014572D01*
X019636Y014538D01*
X019589Y014508D01*
X019541Y014481D01*
X019491Y014457D01*
X019439Y014437D01*
X019386Y014420D01*
X019332Y014408D01*
X019277Y014399D01*
X019222Y014394D01*
X019166Y014393D01*
X019111Y014396D01*
X019056Y014403D01*
X019001Y014414D01*
X018947Y014428D01*
X018895Y014446D01*
X018844Y014468D01*
X018795Y014494D01*
X018747Y014523D01*
X018702Y014555D01*
X018659Y014590D01*
X018619Y014628D01*
X018581Y014669D01*
X018547Y014713D01*
X018515Y014759D01*
X018487Y014807D01*
X018463Y014857D01*
X018442Y014908D01*
X018424Y014961D01*
X018411Y015015D01*
X018401Y015069D01*
X018395Y015124D01*
X018393Y015180D01*
X010893Y015180D02*
X010895Y015236D01*
X010901Y015291D01*
X010911Y015345D01*
X010924Y015399D01*
X010942Y015452D01*
X010963Y015503D01*
X010987Y015553D01*
X011015Y015601D01*
X011047Y015647D01*
X011081Y015691D01*
X011119Y015732D01*
X011159Y015770D01*
X011202Y015805D01*
X011247Y015837D01*
X011295Y015866D01*
X011344Y015892D01*
X011395Y015914D01*
X011447Y015932D01*
X011501Y015946D01*
X011556Y015957D01*
X011611Y015964D01*
X011666Y015967D01*
X011722Y015966D01*
X011777Y015961D01*
X011832Y015952D01*
X011886Y015940D01*
X011939Y015923D01*
X011991Y015903D01*
X012041Y015879D01*
X012089Y015852D01*
X012136Y015822D01*
X012180Y015788D01*
X012222Y015751D01*
X012260Y015711D01*
X012297Y015669D01*
X012330Y015624D01*
X012359Y015578D01*
X012386Y015529D01*
X012408Y015478D01*
X012428Y015426D01*
X012443Y015372D01*
X012455Y015318D01*
X012463Y015263D01*
X012467Y015208D01*
X012467Y015152D01*
X012463Y015097D01*
X012455Y015042D01*
X012443Y014988D01*
X012428Y014934D01*
X012408Y014882D01*
X012386Y014831D01*
X012359Y014782D01*
X012330Y014736D01*
X012297Y014691D01*
X012260Y014649D01*
X012222Y014609D01*
X012180Y014572D01*
X012136Y014538D01*
X012089Y014508D01*
X012041Y014481D01*
X011991Y014457D01*
X011939Y014437D01*
X011886Y014420D01*
X011832Y014408D01*
X011777Y014399D01*
X011722Y014394D01*
X011666Y014393D01*
X011611Y014396D01*
X011556Y014403D01*
X011501Y014414D01*
X011447Y014428D01*
X011395Y014446D01*
X011344Y014468D01*
X011295Y014494D01*
X011247Y014523D01*
X011202Y014555D01*
X011159Y014590D01*
X011119Y014628D01*
X011081Y014669D01*
X011047Y014713D01*
X011015Y014759D01*
X010987Y014807D01*
X010963Y014857D01*
X010942Y014908D01*
X010924Y014961D01*
X010911Y015015D01*
X010901Y015069D01*
X010895Y015124D01*
X010893Y015180D01*
X003393Y015180D02*
X003395Y015236D01*
X003401Y015291D01*
X003411Y015345D01*
X003424Y015399D01*
X003442Y015452D01*
X003463Y015503D01*
X003487Y015553D01*
X003515Y015601D01*
X003547Y015647D01*
X003581Y015691D01*
X003619Y015732D01*
X003659Y015770D01*
X003702Y015805D01*
X003747Y015837D01*
X003795Y015866D01*
X003844Y015892D01*
X003895Y015914D01*
X003947Y015932D01*
X004001Y015946D01*
X004056Y015957D01*
X004111Y015964D01*
X004166Y015967D01*
X004222Y015966D01*
X004277Y015961D01*
X004332Y015952D01*
X004386Y015940D01*
X004439Y015923D01*
X004491Y015903D01*
X004541Y015879D01*
X004589Y015852D01*
X004636Y015822D01*
X004680Y015788D01*
X004722Y015751D01*
X004760Y015711D01*
X004797Y015669D01*
X004830Y015624D01*
X004859Y015578D01*
X004886Y015529D01*
X004908Y015478D01*
X004928Y015426D01*
X004943Y015372D01*
X004955Y015318D01*
X004963Y015263D01*
X004967Y015208D01*
X004967Y015152D01*
X004963Y015097D01*
X004955Y015042D01*
X004943Y014988D01*
X004928Y014934D01*
X004908Y014882D01*
X004886Y014831D01*
X004859Y014782D01*
X004830Y014736D01*
X004797Y014691D01*
X004760Y014649D01*
X004722Y014609D01*
X004680Y014572D01*
X004636Y014538D01*
X004589Y014508D01*
X004541Y014481D01*
X004491Y014457D01*
X004439Y014437D01*
X004386Y014420D01*
X004332Y014408D01*
X004277Y014399D01*
X004222Y014394D01*
X004166Y014393D01*
X004111Y014396D01*
X004056Y014403D01*
X004001Y014414D01*
X003947Y014428D01*
X003895Y014446D01*
X003844Y014468D01*
X003795Y014494D01*
X003747Y014523D01*
X003702Y014555D01*
X003659Y014590D01*
X003619Y014628D01*
X003581Y014669D01*
X003547Y014713D01*
X003515Y014759D01*
X003487Y014807D01*
X003463Y014857D01*
X003442Y014908D01*
X003424Y014961D01*
X003411Y015015D01*
X003401Y015069D01*
X003395Y015124D01*
X003393Y015180D01*
X001555Y020680D02*
X001557Y020730D01*
X001563Y020779D01*
X001573Y020828D01*
X001586Y020875D01*
X001604Y020922D01*
X001625Y020967D01*
X001649Y021010D01*
X001677Y021051D01*
X001708Y021090D01*
X001742Y021126D01*
X001779Y021160D01*
X001819Y021190D01*
X001860Y021217D01*
X001904Y021241D01*
X001949Y021261D01*
X001996Y021277D01*
X002044Y021290D01*
X002093Y021299D01*
X002143Y021304D01*
X002192Y021305D01*
X002242Y021302D01*
X002291Y021295D01*
X002340Y021284D01*
X002387Y021270D01*
X002433Y021251D01*
X002478Y021229D01*
X002521Y021204D01*
X002561Y021175D01*
X002599Y021143D01*
X002635Y021109D01*
X002668Y021071D01*
X002697Y021031D01*
X002723Y020989D01*
X002746Y020945D01*
X002765Y020899D01*
X002781Y020852D01*
X002793Y020803D01*
X002801Y020754D01*
X002805Y020705D01*
X002805Y020655D01*
X002801Y020606D01*
X002793Y020557D01*
X002781Y020508D01*
X002765Y020461D01*
X002746Y020415D01*
X002723Y020371D01*
X002697Y020329D01*
X002668Y020289D01*
X002635Y020251D01*
X002599Y020217D01*
X002561Y020185D01*
X002521Y020156D01*
X002478Y020131D01*
X002433Y020109D01*
X002387Y020090D01*
X002340Y020076D01*
X002291Y020065D01*
X002242Y020058D01*
X002192Y020055D01*
X002143Y020056D01*
X002093Y020061D01*
X002044Y020070D01*
X001996Y020083D01*
X001949Y020099D01*
X001904Y020119D01*
X001860Y020143D01*
X001819Y020170D01*
X001779Y020200D01*
X001742Y020234D01*
X001708Y020270D01*
X001677Y020309D01*
X001649Y020350D01*
X001625Y020393D01*
X001604Y020438D01*
X001586Y020485D01*
X001573Y020532D01*
X001563Y020581D01*
X001557Y020630D01*
X001555Y020680D01*
X030055Y020680D02*
X030057Y020730D01*
X030063Y020779D01*
X030073Y020828D01*
X030086Y020875D01*
X030104Y020922D01*
X030125Y020967D01*
X030149Y021010D01*
X030177Y021051D01*
X030208Y021090D01*
X030242Y021126D01*
X030279Y021160D01*
X030319Y021190D01*
X030360Y021217D01*
X030404Y021241D01*
X030449Y021261D01*
X030496Y021277D01*
X030544Y021290D01*
X030593Y021299D01*
X030643Y021304D01*
X030692Y021305D01*
X030742Y021302D01*
X030791Y021295D01*
X030840Y021284D01*
X030887Y021270D01*
X030933Y021251D01*
X030978Y021229D01*
X031021Y021204D01*
X031061Y021175D01*
X031099Y021143D01*
X031135Y021109D01*
X031168Y021071D01*
X031197Y021031D01*
X031223Y020989D01*
X031246Y020945D01*
X031265Y020899D01*
X031281Y020852D01*
X031293Y020803D01*
X031301Y020754D01*
X031305Y020705D01*
X031305Y020655D01*
X031301Y020606D01*
X031293Y020557D01*
X031281Y020508D01*
X031265Y020461D01*
X031246Y020415D01*
X031223Y020371D01*
X031197Y020329D01*
X031168Y020289D01*
X031135Y020251D01*
X031099Y020217D01*
X031061Y020185D01*
X031021Y020156D01*
X030978Y020131D01*
X030933Y020109D01*
X030887Y020090D01*
X030840Y020076D01*
X030791Y020065D01*
X030742Y020058D01*
X030692Y020055D01*
X030643Y020056D01*
X030593Y020061D01*
X030544Y020070D01*
X030496Y020083D01*
X030449Y020099D01*
X030404Y020119D01*
X030360Y020143D01*
X030319Y020170D01*
X030279Y020200D01*
X030242Y020234D01*
X030208Y020270D01*
X030177Y020309D01*
X030149Y020350D01*
X030125Y020393D01*
X030104Y020438D01*
X030086Y020485D01*
X030073Y020532D01*
X030063Y020581D01*
X030057Y020630D01*
X030055Y020680D01*
M02*
