G75*
%MOIN*%
%OFA0B0*%
%FSLAX24Y24*%
%IPPOS*%
%LPD*%
%AMOC8*
5,1,8,0,0,1.08239X$1,22.5*
%
%ADD10OC8,0.0580*%
%ADD11C,0.0580*%
%ADD12OC8,0.0614*%
%ADD13C,0.1266*%
%ADD14R,0.0575X0.0575*%
%ADD15R,0.0710X0.0710*%
%ADD16C,0.0660*%
%ADD17C,0.0580*%
%ADD18C,0.0886*%
%ADD19C,0.1012*%
%ADD20C,0.0680*%
%ADD21C,0.0660*%
%ADD22OC8,0.0660*%
%ADD23OC8,0.0620*%
%ADD24C,0.0160*%
%ADD25C,0.0400*%
%ADD26C,0.0200*%
D10*
X003680Y001680D03*
X003680Y002680D03*
X003680Y003680D03*
X006680Y003680D03*
X007680Y003680D03*
X007680Y002680D03*
X006680Y002680D03*
X006680Y001680D03*
X007680Y001680D03*
X010680Y001680D03*
X010680Y002680D03*
X010680Y003680D03*
X018180Y005680D03*
X019180Y005680D03*
X019180Y006680D03*
X020680Y005680D03*
X022180Y006680D03*
X023680Y005680D03*
X026180Y008180D03*
X027180Y008180D03*
X027180Y009680D03*
X026180Y009680D03*
X024432Y009818D03*
X022680Y011680D03*
X022680Y012680D03*
X022680Y013680D03*
X022680Y014680D03*
X023680Y016180D03*
X023680Y019180D03*
X017680Y015180D03*
X017680Y014180D03*
X009618Y020305D03*
X008618Y020305D03*
X007493Y020305D03*
X004493Y020305D03*
D11*
X023632Y009818D03*
D12*
X026349Y005519D03*
X027334Y005519D03*
X027334Y004692D03*
X027334Y003668D03*
X027334Y002841D03*
X026349Y002841D03*
D13*
X028510Y001540D03*
X028840Y004180D03*
X028510Y006820D03*
D14*
X027680Y013180D03*
X026680Y013680D03*
X027680Y014180D03*
X027680Y015180D03*
X027680Y016180D03*
X026680Y015680D03*
X026680Y014680D03*
X026680Y016680D03*
D15*
X029930Y021560D03*
X029930Y008800D03*
D16*
X025510Y011680D02*
X024850Y011680D01*
X024850Y012680D02*
X025510Y012680D01*
X025510Y013680D02*
X024850Y013680D01*
X024850Y014680D02*
X025510Y014680D01*
X025510Y015680D02*
X024850Y015680D01*
X024850Y016680D02*
X025510Y016680D01*
X025510Y017680D02*
X024850Y017680D01*
X024850Y018680D02*
X025510Y018680D01*
X002010Y017180D02*
X001350Y017180D01*
X001350Y016180D02*
X002010Y016180D01*
X002010Y015180D02*
X001350Y015180D01*
X001350Y014180D02*
X002010Y014180D01*
X002010Y013180D02*
X001350Y013180D01*
X001350Y012180D02*
X002010Y012180D01*
X002010Y011180D02*
X001350Y011180D01*
X001350Y010180D02*
X002010Y010180D01*
X002010Y009180D02*
X001350Y009180D01*
X001350Y008180D02*
X002010Y008180D01*
X002010Y007180D02*
X001350Y007180D01*
X001350Y006180D02*
X002010Y006180D01*
D17*
X018180Y004970D02*
X018180Y004390D01*
X019180Y004390D02*
X019180Y004970D01*
X020180Y004970D02*
X020180Y004390D01*
X021180Y004390D02*
X021180Y004970D01*
X022180Y004970D02*
X022180Y004390D01*
X023180Y004390D02*
X023180Y004970D01*
X024180Y004970D02*
X024180Y004390D01*
X024180Y001970D02*
X024180Y001390D01*
X023180Y001390D02*
X023180Y001970D01*
X022180Y001970D02*
X022180Y001390D01*
X021180Y001390D02*
X021180Y001970D01*
X020180Y001970D02*
X020180Y001390D01*
X019180Y001390D02*
X019180Y001970D01*
X018180Y001970D02*
X018180Y001390D01*
X018390Y008180D02*
X018970Y008180D01*
X018970Y009180D02*
X018390Y009180D01*
X018390Y010180D02*
X018970Y010180D01*
X018970Y011180D02*
X018390Y011180D01*
X018390Y012180D02*
X018970Y012180D01*
X018970Y013180D02*
X018390Y013180D01*
X018390Y014180D02*
X018970Y014180D01*
X018970Y015180D02*
X018390Y015180D01*
X018390Y016180D02*
X018970Y016180D01*
X018970Y017180D02*
X018390Y017180D01*
X018390Y018180D02*
X018970Y018180D01*
X018970Y019180D02*
X018390Y019180D01*
X018390Y020180D02*
X018970Y020180D01*
X018970Y021180D02*
X018390Y021180D01*
X021390Y021180D02*
X021970Y021180D01*
X023180Y020970D02*
X023180Y020390D01*
X021970Y020180D02*
X021390Y020180D01*
X021390Y019180D02*
X021970Y019180D01*
X021970Y018180D02*
X021390Y018180D01*
X021390Y017180D02*
X021970Y017180D01*
X021970Y016180D02*
X021390Y016180D01*
X021390Y015180D02*
X021970Y015180D01*
X021970Y014180D02*
X021390Y014180D01*
X021390Y013180D02*
X021970Y013180D01*
X021970Y012180D02*
X021390Y012180D01*
X021390Y011180D02*
X021970Y011180D01*
X021970Y010180D02*
X021390Y010180D01*
X021390Y009180D02*
X021970Y009180D01*
X021970Y008180D02*
X021390Y008180D01*
X024180Y020390D02*
X024180Y020970D01*
X026180Y020970D02*
X026180Y020390D01*
X027180Y020390D02*
X027180Y020970D01*
D18*
X014680Y017180D03*
X012180Y016180D03*
X007180Y017180D03*
X004680Y016180D03*
X007180Y009680D03*
X004680Y008680D03*
X012180Y008680D03*
X014680Y009680D03*
D19*
X015680Y007680D03*
X011680Y007680D03*
X008180Y007680D03*
X004180Y007680D03*
X004180Y015180D03*
X008180Y015180D03*
X011680Y015180D03*
X015680Y015180D03*
D20*
X014180Y013180D03*
X013180Y013180D03*
X006680Y013180D03*
X005680Y013180D03*
X005680Y005680D03*
X006680Y005680D03*
X013180Y005680D03*
X014180Y005680D03*
D21*
X011180Y019680D03*
D22*
X012180Y019680D03*
X013180Y019680D03*
X013180Y020680D03*
X012180Y020680D03*
X011180Y020680D03*
D23*
X012680Y003180D03*
X012680Y002180D03*
X013680Y002180D03*
X013680Y003180D03*
D24*
X003680Y002680D02*
X003680Y001680D01*
X003180Y003180D02*
X009430Y003180D01*
X010430Y004180D01*
X017680Y004180D01*
X018055Y003805D01*
X020055Y003805D01*
X020305Y003805D01*
X021180Y004680D01*
X020055Y003805D02*
X019180Y004680D01*
X019180Y005680D01*
X018680Y006180D02*
X022805Y006180D01*
X023180Y006180D01*
X023680Y005680D01*
X023805Y006180D02*
X024930Y006180D01*
X026305Y004805D01*
X027305Y004805D01*
X027334Y004692D01*
X027930Y004180D02*
X024680Y004180D01*
X023930Y003430D01*
X017680Y003430D01*
X017555Y002930D02*
X018930Y002930D01*
X020180Y001680D01*
X019180Y001680D02*
X018305Y002555D01*
X018055Y002555D01*
X016680Y001180D01*
X008180Y001180D01*
X007680Y001680D01*
X006680Y001680D01*
X006680Y002680D02*
X007680Y002680D01*
X007805Y002805D01*
X010055Y002805D01*
X010430Y003180D01*
X011930Y003180D01*
X012555Y003805D01*
X016680Y003805D01*
X017555Y002930D01*
X018180Y004680D02*
X008680Y004680D01*
X007680Y003680D01*
X007180Y004180D01*
X004180Y004180D01*
X003680Y003680D01*
X003180Y003180D02*
X003180Y006430D01*
X001930Y006430D01*
X001680Y006180D01*
X003180Y006430D02*
X004180Y006430D01*
X004305Y006930D02*
X004680Y006555D01*
X017055Y006555D01*
X017180Y006680D01*
X017930Y006180D02*
X019055Y007305D01*
X022680Y007305D01*
X023555Y008180D01*
X024055Y008680D02*
X026305Y006430D01*
X026305Y005555D01*
X026349Y005519D01*
X026680Y006055D02*
X027555Y006055D01*
X027930Y005680D01*
X027930Y004180D01*
X026680Y006055D02*
X026680Y008430D01*
X026055Y009055D01*
X023680Y009055D01*
X023055Y009680D01*
X019680Y009680D01*
X019555Y009805D01*
X020055Y009180D02*
X021680Y009180D01*
X021680Y010180D02*
X021555Y010305D01*
X019555Y010305D01*
X019180Y010680D01*
X016430Y010680D01*
X015180Y010180D02*
X014680Y010680D01*
X009305Y010680D01*
X008055Y009430D02*
X012430Y009430D01*
X012930Y008930D01*
X014930Y008930D01*
X015430Y009430D01*
X018430Y009430D01*
X018680Y009180D01*
X018180Y008680D02*
X024055Y008680D01*
X024680Y009680D02*
X026180Y009680D01*
X027180Y009680D02*
X028055Y008805D01*
X029930Y008805D01*
X029930Y008800D01*
X029930Y008805D02*
X029930Y021560D01*
X025930Y018305D02*
X025555Y018305D01*
X025180Y018680D01*
X025930Y018305D02*
X026680Y017555D01*
X026680Y016680D01*
X026305Y016180D02*
X026055Y016430D01*
X026055Y017680D01*
X025180Y017680D01*
X017180Y017680D01*
X018555Y018305D02*
X018680Y018180D01*
X020555Y018180D01*
X021055Y018680D01*
X023180Y018680D01*
X023680Y019180D01*
X022180Y019680D02*
X025305Y019680D01*
X028180Y016805D01*
X028180Y012680D01*
X027055Y012680D01*
X027680Y013180D02*
X027680Y014180D01*
X026305Y014180D01*
X026180Y014055D01*
X025555Y014055D01*
X025180Y013680D01*
X023680Y013680D01*
X023680Y011680D01*
X022680Y011680D01*
X023680Y011680D02*
X024680Y011680D01*
X025180Y011680D01*
X024680Y011680D02*
X024680Y009930D01*
X024555Y009930D01*
X024432Y009818D01*
X024555Y009805D01*
X024680Y009680D01*
X023680Y010680D02*
X020180Y010680D01*
X019180Y011680D01*
X007805Y011680D01*
X006805Y010680D01*
X002555Y010680D01*
X002805Y010305D02*
X002680Y010180D01*
X001680Y010180D01*
X002805Y010305D02*
X005680Y010305D01*
X005805Y010180D01*
X005555Y011180D02*
X001680Y011180D01*
X001680Y012180D02*
X003055Y012180D01*
X003555Y011680D01*
X004805Y013180D02*
X001680Y013180D01*
X001680Y014180D02*
X003555Y014180D01*
X004055Y013680D01*
X004805Y013180D02*
X005430Y013805D01*
X006305Y013805D01*
X006680Y014180D01*
X012180Y014180D01*
X012305Y014305D01*
X014430Y013805D02*
X008180Y013805D01*
X005555Y011180D01*
X006680Y011180D02*
X007555Y012055D01*
X018555Y012055D01*
X018680Y012180D01*
X018680Y013180D02*
X018555Y013305D01*
X014930Y013305D01*
X014430Y013805D01*
X014805Y015055D02*
X014805Y016430D01*
X013180Y016430D01*
X012930Y016680D01*
X012180Y016180D02*
X012055Y016305D01*
X004805Y016305D01*
X004680Y016180D01*
X003555Y016680D02*
X003055Y016180D01*
X001680Y016180D01*
X001680Y015180D02*
X003055Y015180D01*
X003805Y014430D01*
X004930Y014430D01*
X005180Y014180D01*
X005305Y017180D02*
X001680Y017180D01*
X004180Y019055D02*
X007555Y019055D01*
X008930Y017680D01*
X009555Y018180D02*
X009555Y020305D01*
X009618Y020305D01*
X008618Y020305D02*
X007493Y020305D01*
X006180Y019805D02*
X008055Y021680D01*
X021180Y021680D01*
X021680Y021180D01*
X021680Y020180D02*
X021180Y019680D01*
X017055Y019680D01*
X016555Y019180D01*
X014930Y019180D01*
X015555Y017930D02*
X010305Y017930D01*
X010180Y017805D01*
X009930Y017805D01*
X009555Y018180D01*
X010055Y018305D02*
X018555Y018305D01*
X018680Y017180D02*
X014680Y017180D01*
X015305Y016555D02*
X015805Y016555D01*
X016180Y016180D01*
X018680Y016180D01*
X018680Y015180D02*
X017680Y015180D01*
X017680Y014180D02*
X018680Y014180D01*
X019680Y015180D01*
X021680Y015180D01*
X022180Y015180D01*
X022680Y014680D01*
X023680Y013680D01*
X022680Y013680D02*
X022180Y013680D01*
X021680Y013180D01*
X020805Y013305D02*
X020805Y012680D01*
X022680Y012680D01*
X021680Y014180D02*
X020805Y013305D01*
X019180Y013680D02*
X016180Y013680D01*
X014805Y015055D01*
X015805Y016055D02*
X016180Y015680D01*
X021180Y015680D01*
X021680Y016180D01*
X021680Y017180D02*
X024055Y014805D01*
X025180Y014680D02*
X026680Y014680D01*
X026680Y013680D02*
X025680Y012680D01*
X025180Y012680D01*
X024180Y011180D02*
X023680Y010680D01*
X021680Y011180D02*
X019180Y013680D01*
X018680Y011180D02*
X011805Y011180D01*
X012055Y008805D02*
X004805Y008805D01*
X004680Y008680D01*
X003930Y009430D02*
X003430Y009430D01*
X003430Y007430D01*
X003930Y006930D01*
X004305Y006930D01*
X002430Y009180D02*
X001680Y009180D01*
X002430Y009180D02*
X003055Y009805D01*
X012055Y008805D02*
X012180Y008680D01*
X014805Y008555D02*
X014805Y007180D01*
X015680Y006180D02*
X017930Y006180D01*
X018180Y005680D02*
X018680Y006180D01*
X019180Y006680D01*
X018180Y005680D02*
X018180Y004680D01*
X015680Y006180D02*
X015555Y006055D01*
X016680Y007680D02*
X015805Y008555D01*
X015680Y008555D01*
X015555Y009055D02*
X017805Y009055D01*
X018180Y008680D01*
X016680Y007680D02*
X021180Y007680D01*
X021680Y008180D01*
X022180Y006680D02*
X023305Y006680D01*
X023805Y006180D01*
X027180Y008180D02*
X028430Y006930D01*
X028510Y006820D01*
X018680Y010180D02*
X015180Y010180D01*
X015555Y009055D02*
X015055Y008555D01*
X014805Y008555D01*
X014805Y003305D02*
X013680Y002180D01*
X012680Y002180D02*
X011180Y002180D01*
X010680Y002680D01*
X015680Y016055D02*
X015805Y016055D01*
X013680Y017430D02*
X013430Y017180D01*
X007180Y017180D01*
X006680Y018555D02*
X005305Y017180D01*
X012180Y019680D02*
X013180Y018680D01*
X020430Y018680D01*
X020555Y018805D01*
X021680Y019180D02*
X022180Y019680D01*
X023180Y020680D02*
X019930Y020680D01*
X023180Y020680D02*
X024180Y020680D01*
X026305Y016180D02*
X027680Y016180D01*
X015805Y017680D02*
X015555Y017930D01*
X013180Y019680D02*
X014430Y020930D01*
D25*
X014430Y020930D03*
X014930Y019180D03*
X015805Y017680D03*
X015305Y016555D03*
X015680Y016055D03*
X013680Y017430D03*
X012930Y016680D03*
X010055Y018305D03*
X008930Y017680D03*
X006680Y018555D03*
X006180Y019805D03*
X004180Y019055D03*
X003555Y016680D03*
X005180Y014180D03*
X004055Y013680D03*
X003555Y011680D03*
X002555Y010680D03*
X003055Y009805D03*
X003930Y009430D03*
X005805Y010180D03*
X006680Y011180D03*
X008055Y009430D03*
X009305Y010680D03*
X011805Y011180D03*
X015680Y008555D03*
X014805Y007180D03*
X015555Y006055D03*
X017180Y006680D03*
X020055Y009180D03*
X019555Y009805D03*
X016430Y010680D03*
X012305Y014305D03*
X017180Y017680D03*
X020555Y018805D03*
X019930Y020680D03*
X024055Y014805D03*
X027055Y012680D03*
X024180Y011180D03*
X023555Y008180D03*
X022805Y006180D03*
X017680Y003430D03*
X014805Y003305D03*
X004180Y006430D03*
D26*
X025180Y015680D02*
X025180Y016680D01*
X026680Y015680D02*
X027180Y015680D01*
X027680Y015180D01*
X027180Y020680D02*
X026180Y020680D01*
M02*
