%
M48
M72
T01C0.0240
T02C0.0315
T03C0.0320
T04C0.0354
T05C0.0360
T06C0.0400
T07C0.0420
T08C0.0450
T09C0.0591
T10C0.0675
T11C0.0866
T12C0.1250
T13C0.1400
T14C0.1575
%
T01
X4180Y6430
X3930Y9430
X3055Y9805
X2555Y10680
X3555Y11680
X5805Y10180
X6680Y11180
X8055Y9430
X9305Y10680
X11805Y11180
X15680Y8555
X14805Y7180
X15555Y6055
X17180Y6680
X20055Y9180
X19555Y9805
X16430Y10680
X12305Y14305
X12930Y16680
X13680Y17430
X15305Y16555
X15680Y16055
X15805Y17680
X17180Y17680
X14930Y19180
X14430Y20930
X10055Y18305
X8930Y17680
X6680Y18555
X6180Y19805
X4180Y19055
X3555Y16680
X5180Y14180
X4055Y13680
X17680Y3430
X14805Y3305
X22805Y6180
X23555Y8180
X24180Y11180
X27055Y12680
X24055Y14805
X20555Y18805
X19930Y20680
T02
X26680Y16680
X26680Y15680
X26680Y14680
X27680Y14180
X27680Y15180
X27680Y16180
X26680Y13680
X27680Y13180
T03
X23680Y16180
X22680Y14680
X21680Y14180
X22680Y13680
X21680Y13180
X22680Y12680
X21680Y12180
X22680Y11680
X21680Y11180
X21680Y10180
X21680Y9180
X21680Y8180
X22180Y6680
X20680Y5680
X20180Y4680
X19180Y4680
X18180Y4680
X18180Y5680
X19180Y5680
X19180Y6680
X18680Y8180
X18680Y9180
X18680Y10180
X18680Y11180
X18680Y12180
X18680Y13180
X18680Y14180
X17680Y14180
X17680Y15180
X18680Y15180
X18680Y16180
X18680Y17180
X18680Y18180
X18680Y19180
X18680Y20180
X18680Y21180
X21680Y21180
X21680Y20180
X23180Y20680
X24180Y20680
X26180Y20680
X27180Y20680
X23680Y19180
X21680Y19180
X21680Y18180
X21680Y17180
X21680Y16180
X21680Y15180
X23632Y9818
X24432Y9818
X26180Y9680
X27180Y9680
X27180Y8180
X26180Y8180
X23680Y5680
X23180Y4680
X22180Y4680
X21180Y4680
X24180Y4680
X24180Y1680
X23180Y1680
X22180Y1680
X21180Y1680
X20180Y1680
X19180Y1680
X18180Y1680
X10680Y1680
X10680Y2680
X10680Y3680
X7680Y3680
X6680Y3680
X6680Y2680
X7680Y2680
X7680Y1680
X6680Y1680
X3680Y1680
X3680Y2680
X3680Y3680
X4493Y20305
X7493Y20305
X8618Y20305
X9618Y20305
T04
X26349Y5519
X27334Y5519
X27334Y4692
X27334Y3668
X27334Y2841
X26349Y2841
T05
X13680Y3180
X13680Y2180
X12680Y2180
X12680Y3180
T06
X1680Y6180
X1680Y7180
X1680Y8180
X1680Y9180
X1680Y10180
X1680Y11180
X1680Y12180
X1680Y13180
X1680Y14180
X1680Y15180
X1680Y16180
X1680Y17180
X11180Y19680
X12180Y19680
X13180Y19680
X13180Y20680
X12180Y20680
X11180Y20680
X25180Y18680
X25180Y17680
X25180Y16680
X25180Y15680
X25180Y14680
X25180Y13680
X25180Y12680
X25180Y11680
T07
X14180Y13180
X13180Y13180
X6680Y13180
X5680Y13180
X5680Y5680
X6680Y5680
X13180Y5680
X14180Y5680
T08
X29930Y8800
X29930Y21560
T09
X14680Y17180
X12180Y16180
X7180Y17180
X4680Y16180
X7180Y9680
X4680Y8680
X12180Y8680
X14680Y9680
T10
X15680Y7680
X11680Y7680
X8180Y7680
X4180Y7680
X4180Y15180
X8180Y15180
X11680Y15180
X15680Y15180
T11
X28510Y6820
X28840Y4180
X28510Y1540
T12
X2180Y2180
X16180Y2180
X24180Y7180
X16180Y20180
X2180Y20180
T13
X28930Y20430
X28930Y18430
X28930Y11930
X28930Y9930
T14
X13680Y7680
X6180Y7680
X6180Y15180
X13680Y15180
M30
